<svg xmlns="http://www.w3.org/2000/svg" fill="none" viewBox="0 0 216 216">
  <g stroke-width="8">
    <path stroke="#44639E" d="M70 136l-67 4.7M76.4 116.8l-67-25.5M88.1 98.1l-48.6-52M111.7 85.9l-10.9-66.2M136.8 88.6l25.4-55.7M155.1 105.8l46.8-30.5M159.9 123.8l50.5 7.5M154.2 141.4l35.7 30.9M135.6 153.9l5.8 43.4M115.3 149.7l-20.1 33.9"/>
    <path stroke="#1D1D1B" class="mutant-stroke" d="M72.9 152.2c.2.9-1.3 1.9-2.9 2.8-2.5 1.4-5.9 2.6-7.2 3.2L32 172.6a21.2 21.2 0 01-18.3-.3c-5-2.7-8.3-9.9-9.1-16.7-.7-5.3-1.4-11.1-1.5-14.9-.4-12.4 1.2-34.4 6.3-49.4a101.7 101.7 0 0130.1-45.2 121 121 0 0138.7-21.5 91.5 91.5 0 0122.6-4.9 98.6 98.6 0 0161.3 13.2h.1a106 106 0 0146.3 56.6 83.2 83.2 0 01-52 104.4 67.6 67.6 0 01-16.1 3.2l-5 .2c-14.5 0-28.2-5-40.3-13.8a63 63 0 01-19.2-23.7c-4.4-9.5-5.4-18.9-6-23.8-.4-3.7 1.9-4.7 4.6-4.7 2.2 0 17.5 1.9 23 2.5 3.8.4 7.1.2 8.4 4.5 1.3 4.4 6.5 9.6 11.3 12.8 7.6 5 23.7 5.3 33.7-5.7a32.7 32.7 0 004.1-39.6 39.8 39.8 0 00-41.3-20.3 49.2 49.2 0 00-38.1 31.3 56.7 56.7 0 00-3.4 14.3"/>
  </g>
</svg>