<svg width="24" height="24" viewBox="0 0 24 24" fill="none" xmlns="http://www.w3.org/2000/svg">
<path d="M4.8 24C3.8058 24 3 23.1942 3 22.2V1.8C3 0.8058 3.8058 0 4.8 0H14.4L21 6.6V22.2C21 23.1942 20.1942 24 19.2 24H4.8Z" fill="#673AB7"/>
<path d="M21.0001 6.6L14.9299 6.075L21.0001 12.0744V6.6Z" fill="#5E35B1"/>
<path d="M21.0001 6.6H16.2001C15.2059 6.6 14.4001 5.7942 14.4001 4.8V0L21.0001 6.6Z" fill="#B39DDB"/>
<path d="M10.8002 11.4H16.8002V12.6H10.8002V11.4ZM10.8002 14.4H16.8002V15.6H10.8002V14.4ZM10.8002 17.4H16.8002V18.6H10.8002V17.4ZM8.1002 11.1C7.8615 11.1 7.63258 11.1948 7.4638 11.3636C7.29502 11.5324 7.2002 11.7613 7.2002 12C7.2002 12.2387 7.29502 12.4676 7.4638 12.6364C7.63258 12.8052 7.8615 12.9 8.1002 12.9C8.33889 12.9 8.56781 12.8052 8.73659 12.6364C8.90537 12.4676 9.0002 12.2387 9.0002 12C9.0002 11.7613 8.90537 11.5324 8.73659 11.3636C8.56781 11.1948 8.33889 11.1 8.1002 11.1ZM8.1002 14.1C7.8615 14.1 7.63258 14.1948 7.4638 14.3636C7.29502 14.5324 7.2002 14.7613 7.2002 15C7.2002 15.2387 7.29502 15.4676 7.4638 15.6364C7.63258 15.8052 7.8615 15.9 8.1002 15.9C8.33889 15.9 8.56781 15.8052 8.73659 15.6364C8.90537 15.4676 9.0002 15.2387 9.0002 15C9.0002 14.7613 8.90537 14.5324 8.73659 14.3636C8.56781 14.1948 8.33889 14.1 8.1002 14.1ZM8.1002 17.1C7.8615 17.1 7.63258 17.1948 7.4638 17.3636C7.29502 17.5324 7.2002 17.7613 7.2002 18C7.2002 18.2387 7.29502 18.4676 7.4638 18.6364C7.63258 18.8052 7.8615 18.9 8.1002 18.9C8.33889 18.9 8.56781 18.8052 8.73659 18.6364C8.90537 18.4676 9.0002 18.2387 9.0002 18C9.0002 17.7613 8.90537 17.5324 8.73659 17.3636C8.56781 17.1948 8.33889 17.1 8.1002 17.1Z" fill="#F5F5F5"/>
</svg>
