<svg width="24" height="24" viewBox="0 0 24 24" fill="none" xmlns="http://www.w3.org/2000/svg">
<path d="M21 22.5674C21 23.3578 20.35 24 19.55 24H4.45C3.65 24 3 23.3578 3 22.5674V1.43264C3 0.642216 3.65 0 4.45 0H14.16L21 6.92605V22.5674Z" fill="#DF4D42"/>
<path d="M14.91 6.7482L21 12.4886L20.98 6.91616H20.97H15.6C15.35 6.91616 15.12 6.85688 14.91 6.7482Z" fill="#BC4038"/>
<path d="M21 6.91617H15.6C14.8 6.91617 14.15 6.27395 14.15 5.48353V0L21 6.91617Z" fill="#E67575"/>
<path d="M7.96641 13.6429V15H7V11H8.59967C8.9062 11 9.17695 11.0568 9.4119 11.1703C9.64868 11.2821 9.83132 11.4423 9.9598 11.6511C10.0901 11.8581 10.1553 12.0934 10.1553 12.3571C10.1553 12.7473 10.0149 13.0595 9.73403 13.294C9.45503 13.5266 9.0714 13.6429 8.58315 13.6429H7.96641ZM7.96641 12.8984H8.59967C8.78689 12.8984 8.92915 12.8516 9.02643 12.7582C9.12555 12.6648 9.17511 12.533 9.17511 12.3626C9.17511 12.1758 9.12463 12.0266 9.02368 11.9148C8.92272 11.8031 8.78506 11.7463 8.61068 11.7445H7.96641V12.8984Z" fill="#F4F4F4"/>
<path d="M10.6729 15V11H11.9642C12.3185 11 12.6369 11.0806 12.9196 11.2418C13.2023 11.4011 13.4225 11.6273 13.5804 11.9203C13.7401 12.2115 13.8209 12.5385 13.8227 12.9011V13.0852C13.8227 13.4515 13.7447 13.7802 13.5887 14.0714C13.4345 14.3608 13.216 14.5879 12.9334 14.7527C12.6525 14.9158 12.3387 14.9982 11.9917 15H10.6729ZM11.6393 11.7445V14.2582H11.9752C12.2524 14.2582 12.4653 14.1603 12.614 13.9643C12.7627 13.7665 12.837 13.4734 12.837 13.0852V12.9121C12.837 12.5256 12.7627 12.2344 12.614 12.0385C12.4653 11.8425 12.2487 11.7445 11.9642 11.7445H11.6393Z" fill="#F4F4F4"/>
<path d="M16.8431 13.4066H15.2847V15H14.3183V11H17V11.7445H15.2847V12.6648H16.8431V13.4066Z" fill="#F4F4F4"/>
</svg>
