<svg xmlns="http://www.w3.org/2000/svg" fill="none" viewBox="0 0 220 220">
  <path class="mutant-stroke" stroke="#1D1D1B" stroke-linejoin="round" stroke-width="8" d="M4 39a10 10 0 0110-10h192a10 10 0 0110 10v151.3a9 9 0 01-15.1 6.6l-19.6-18.3a20 20 0 00-13.6-5.3H14a10 10 0 01-10-10V39z"/>
  <circle cx="110.5" cy="133.5" r="6.5" stroke="#4F478B" stroke-width="8"/>
  <mask id="a" fill="#fff">
    <path d="M96.7 65.6a10 10 0 0110-10.6h6.7a10 10 0 0110 10.6l-2.8 44a10 10 0 01-10 9.4h-1.2a10 10 0 01-10-9.4l-2.7-44z"/>
  </mask>
  <path fill="#4F478B" d="M123.3 65.6l-8-.5 8 .5zM106.6 63h6.8V47h-6.8v16zm8.8 2.1l-2.8 44 16 1 2.7-44-16-1zm-4.8 45.9h-1.2v16h1.2v-16zm-3.2-1.9l-2.8-44-16 1 2.8 44 16-1zm2 1.9c-1 0-2-.8-2-1.9l-16 1a18 18 0 0018 16.9v-16zm3.2-1.9c0 1-1 1.9-2 1.9v16a18 18 0 0018-16.9l-16-1zm.8-46.1c1.1 0 2 1 2 2.1l16 1a18 18 0 00-18-19.1v16zm-6.8-16a18 18 0 00-18 19.1l16-1a2 2 0 012-2.1V47z" mask="url(#a)"/>
</svg>