<svg width="24" height="24" viewBox="0 0 24 24" fill="none" xmlns="http://www.w3.org/2000/svg">
<path d="M21 22.5674C21 23.3578 20.35 24 19.55 24H4.45C3.65 24 3 23.3578 3 22.5674V1.43264C3 0.642216 3.65 0 4.45 0H14.16L21 6.92605V22.5674Z" fill="#23A566"/>
<path d="M14.91 6.7482L21 12.4886L20.98 6.91616H20.97H15.6C15.35 6.91616 15.12 6.85688 14.91 6.7482Z" fill="#1C8F5A"/>
<path d="M21 6.91617H15.6C14.8 6.91617 14.15 6.27395 14.15 5.48353V0L21 6.91617Z" fill="#8ED1B1"/>
<path fill-rule="evenodd" clip-rule="evenodd" d="M16.68 19.4255H7.32001V11.4126H16.68V19.4255ZM12.58 12.5587V13.9913H15.52V12.5587H12.58ZM12.58 14.8509V16.1848H15.52V14.8509H12.58ZM12.58 17.0443V18.2794H15.52V17.0443H12.58ZM11.42 18.2794V17.0443H8.48001V18.2794H11.42ZM11.42 16.1848V14.8509H8.48001V16.1848H11.42ZM11.42 13.9913V12.5587H8.48001V13.9913H11.42Z" fill="white"/>
</svg>
