<svg xmlns="http://www.w3.org/2000/svg" fill="none" viewBox="0 0 220 220">
  <circle cx="176.4" cy="69.7" r="18.6" stroke="#4F478B" stroke-width="8"/>
  <circle cx="46.8" cy="48.9" r="18.6" stroke="#4F478B" stroke-width="8"/>
  <circle cx="109.5" cy="38.5" r="18.6" stroke="#4F478B" stroke-width="8"/>
  <path stroke="#1D1D1B" class="mutant-stroke" stroke-width="8" d="M100 81h16c18 0 33 15 33 33v80H67v-80c0-18 15-33 33-33zM149 115c6-4 12-6 21-6h14c23 0 32 19 32 31v54h-67"/>
  <path stroke="#1D1D1B" class="mutant-stroke" stroke-width="8" d="M70 95c-5-4-12-6-20-6H35c-22 0-31 19-31 31v74h66"/>
</svg>