<svg width="51" height="51" viewBox="0 0 51 51" fill="none" xmlns="http://www.w3.org/2000/svg">
<path fill="#1D1D1B" class="mutant" d="M47.4234 13.041L49.6055 11.8233C50.3363 11.4155 51.1921 12.1008 50.9618 12.9095L49.4993 18.0442C49.3565 18.5455 48.8371 18.8353 48.3392 18.6916L43.239 17.2192C42.4357 16.9873 42.3119 15.8935 43.0428 15.4857L45.7827 13.9566C39.4765 2.6285 25.2547 -1.44951 13.9609 4.85303C2.63441 11.1738 -1.4579 25.5418 4.82046 36.9448C11.0988 48.3478 25.3704 52.4678 36.6968 46.147C40.6674 43.9312 43.8426 40.6727 45.9526 36.739C46.1988 36.2802 46.7678 36.1091 47.2236 36.3569C47.6794 36.6047 47.8494 37.1775 47.6032 37.6364C45.3241 41.8853 41.8928 45.4066 37.6063 47.7987C25.3737 54.6252 9.96043 50.1756 3.17979 37.8604C-3.60084 25.5451 0.818841 10.0277 13.0514 3.20128C25.2513 -3.60693 40.6149 0.800668 47.4234 13.041Z"/>
<path fill="#4F478B" d="M27.092 29.0653C26.7131 29.4213 26.1194 29.4005 25.766 29.019L14.252 16.5883C13.8987 16.2069 13.9194 15.6093 14.2983 15.2537C14.6771 14.898 15.2706 14.9189 15.6239 15.3003L26.4983 27.0404L34.0401 19.9531C34.4188 19.5973 35.0123 19.6178 35.3658 19.9991C35.7192 20.3803 35.6987 20.9779 35.3201 21.3337L27.092 29.0653Z"/>
</svg>
