<svg xmlns="http://www.w3.org/2000/svg" fill="none" viewBox="0 0 218 217">
  <path class="mutant-stroke" stroke="#1D1D1B" stroke-linecap="round" stroke-width="8" d="M200.6 157.1A104.2 104.2 0 014 108.5 104.4 104.4 0 01203.6 66"/>
  <path class="mutant-fill mutant-stroke" fill="#1D1D1B" stroke="#1D1D1B" stroke-linejoin="round" stroke-width="8" d="M185 69.5L213.5 54 207 75.5l-22-6z"/>
  <path fill="#4F478B" d="M64.7 59.3a4.5 4.5 0 00-6.4 6.4l6.4-6.4zm44.3 50.2l-3.2 3.2 2.8 2.7 3-2.3-2.6-3.6zm39.2-23.4a4.5 4.5 0 10-5.4-7.2l5.4 7.2zM58.3 65.7l47.5 47 6.4-6.4-47.5-47-6.4 6.4zm53.4 47.4l36.5-27-5.4-7.2-36.5 27 5.4 7.2z"/>
</svg>