<svg xmlns="http://www.w3.org/2000/svg" fill="none" viewBox="0 0 220 220">
  <path stroke="#4F478B" stroke-linecap="round" stroke-linejoin="round" stroke-width="8" d="M75.5 12.5l4.7 4a9 9 0 004 2l10 2c4 .7 6.3 5 4.7 8.8v0a6.5 6.5 0 01-3 3.3l-8.2 4.2a9 9 0 00-3.5 3.4l-7.6 12.5a9 9 0 01-2.8 3L60 64.4a9 9 0 01-3.4 1.3l-19 3.2a7.5 7.5 0 00-6.2 7.3v0c0 1.8.6 3.4 1.7 4.8l4 4.7a6 6 0 011.3 3.8v.6c0 4.2 4.5 7 8.3 5v0a5.6 5.6 0 017 1.6l2.4 3.2a9 9 0 006 3.5l15.8 2a9 9 0 016.3 3.8l7.5 11c1.4 2 3.7 3.2 6.2 3.2v0c4.1 0 7.5 3.4 7.5 7.5v7.9c0 2-.7 4-2 5.6L95.2 155a9 9 0 00-1.6 3L91 167a9 9 0 01-3.6 5l-6.4 4.3a9 9 0 00-3.9 6.4l-.6 6c-.5 4.1-4.6 6.9-8.6 5.8v0c-2-.6-3.8-2-4.6-4l-4-10.3a9 9 0 01-.7-3.3v-29a9 9 0 00-5.3-8.2l-12-5.4a9 9 0 01-4.2-3.7l-4.3-7.4a9 9 0 01-1.2-4.5v-6c0-1.7.6-3.2 1.8-4.4v0a6.1 6.1 0 00-.9-9.4L19 89.5a9 9 0 01-3.7-5.4L12 70M157 15l-11.9 6c-1.4.6-3 1-4.5 1h-5.9a10 10 0 00-8.6 5l-1.4 2.5c-1.8 3-.9 7 2.1 9v0c1.4 1 3.1 1.4 4.8 1l11.5-1.7a10 10 0 013.8.1l22.8 5.2c2.5.6 5 .2 7.2-1l8.1-4.6M201 58.5l-21.3 5.8a10 10 0 01-5.4-.1l-17-5a10 10 0 01-4-2.3l-4-3.7a10 10 0 00-6.8-2.7h-9.7a10 10 0 00-8.3 4.3l-4.8 7a10 10 0 00-1.6 7l1.6 11.2a10 10 0 005.9 7.7l14.5 6.4c1.2.6 2.6.9 4 .9h9.9c2.3 0 4.5.8 6.2 2.2l8.5 6.8a10 10 0 013.8 7.8v7.4c0 1.8.5 3.6 1.5 5.2l12.5 20.2a10 10 0 011.5 5.2v6c0 2.7 1 5.3 3 7.1l5.5 5.6"/>
  <circle class="mutant-stroke" cx="110" cy="110" r="106" stroke="#1D1D1B" stroke-width="8"/>
</svg>