<svg xmlns="http://www.w3.org/2000/svg" fill="none" viewBox="0 0 316 31">
  <path fill="#F4F4F4" fill-rule="evenodd" d="M13.5 25.1c10.8 0 13.5-9 13.5-9S24.3 8 13.5 8 0 16.1 0 16.1s2.7 9 13.5 9zm0-4.5a4.5 4.5 0 100-9 4.5 4.5 0 000 9z" clip-rule="evenodd"/>
  <path fill="#F4F4F4" d="M37 16.3c0-2.6.6-4.6 1.8-6.1a5.6 5.6 0 014.7-2.3c1.7 0 3.1.6 4.2 1.8V1.3h3.6v23.3H48l-.2-1.7a5.4 5.4 0 01-4.4 2c-1.9 0-3.4-.8-4.6-2.3a10.1 10.1 0 01-1.8-6.3zm3.7.3c0 1.6.3 3 1 3.9.6 1 1.5 1.4 2.7 1.4 1.5 0 2.6-.7 3.3-2v-7c-.7-1.3-1.8-2-3.3-2-1.2 0-2.1.5-2.8 1.4-.6 1-1 2.4-1 4.3zM62.4 24.9c-2.3 0-4.2-.8-5.7-2.2a8 8 0 01-2.1-5.9v-.5c0-1.6.3-3 .9-4.3A7 7 0 0162 8c2.2-.1 4 .6 5.1 2a9 9 0 011.9 6v1.5H58.3a5 5 0 001.3 3.3 4 4 0 003 1.1 5 5 0 004.1-2l2 1.9c-.6 1-1.5 1.7-2.6 2.3-1.1.5-2.3.8-3.7.8zm-.4-14c-1 0-1.9.3-2.5 1-.6.7-1 1.7-1.2 3h7v-.3c0-1.3-.4-2.2-1-2.8a3 3 0 00-2.3-1zM79 24.9c-2.3 0-4.2-.8-5.6-2.2a8 8 0 01-2.2-5.9v-.5c0-1.6.3-3 1-4.3a7 7 0 016.5-4c2.2-.1 3.9.6 5 2a9 9 0 012 6v1.5H74.8a5 5 0 001.4 3.3 4 4 0 003 1.1 5 5 0 004-2l2 1.9c-.6 1-1.5 1.7-2.6 2.3-1 .5-2.3.8-3.7.8zm-.4-14c-1 0-1.8.3-2.4 1-.7.7-1 1.7-1.2 3h7v-.3c0-1.3-.4-2.2-1-2.8a3 3 0 00-2.4-1zM102.8 16.5c0 2.6-.5 4.6-1.7 6.1a5.5 5.5 0 01-4.6 2.3c-1.8 0-3.3-.6-4.3-1.8v7.8h-3.7V8.2h3.4l.1 1.7c1.1-1.4 2.6-2 4.4-2 2 0 3.6.7 4.7 2.2a10 10 0 011.7 6.2v.2zm-3.6-.3c0-1.6-.4-2.9-1-3.9-.7-1-1.6-1.4-2.8-1.4-1.5 0-2.6.6-3.2 1.9V20c.6 1.3 1.7 2 3.2 2 1.2 0 2.1-.5 2.8-1.5.6-1 1-2.4 1-4.3zM115 24.6V10.9h-2.5V8.2h2.5V6.7c0-1.8.5-3.2 1.5-4.2s2.4-1.5 4.2-1.5c.7 0 1.4 0 2 .3V4h-1.4c-1.8 0-2.7.8-2.7 2.6v1.5h3.4v2.7h-3.4v13.7H115zM134.6 23c-1 1.2-2.6 1.9-4.6 1.9-1.8 0-3.1-.5-4-1.6-1-1-1.4-2.5-1.4-4.5V8.2h3.7v10.6c0 2 .8 3 2.5 3 1.8 0 3-.6 3.7-1.8V8.2h3.6v16.4h-3.4l-.1-1.6zM146.5 4.2v4h2.9v2.7h-2.9v9.2c0 .6.1 1 .4 1.3.2.3.7.4 1.3.4l1.3-.1v2.8a9 9 0 01-2.4.4c-2.9 0-4.3-1.6-4.3-4.7v-9.3h-2.7V8.2h2.7v-4h3.7zM162.1 23c-1 1.2-2.6 1.9-4.6 1.9-1.7 0-3-.5-4-1.6-1-1-1.4-2.5-1.4-4.5V8.2h3.7v10.6c0 2 .9 3 2.6 3 1.8 0 3-.6 3.6-1.8V8.2h3.7v16.4h-3.5V23zM178 11.6l-1.5-.2c-1.7 0-2.8.7-3.4 2v11.2h-3.7V8.2h3.5l.1 1.8a4.1 4.1 0 013.7-2.1c.6 0 1 0 1.3.2v3.5zM187.2 24.9c-2.3 0-4.2-.8-5.6-2.2a8 8 0 01-2.2-5.9v-.5c0-1.6.3-3 1-4.3a7 7 0 016.5-4c2.2-.1 3.9.6 5 2a9 9 0 012 6v1.5H183a5 5 0 001.4 3.3 4 4 0 003 1.1 5 5 0 004-2l2 1.9c-.6 1-1.5 1.7-2.6 2.3-1 .5-2.3.8-3.7.8zm-.4-14c-1 0-1.8.3-2.4 1-.7.7-1 1.7-1.2 3h7v-.3c-.1-1.3-.4-2.2-1-2.8a3 3 0 00-2.4-1zM208.3 24.6h-3.7V8.2h3.7v16.4zm-3.9-20.7c0-.5.2-1 .5-1.4.4-.3 1-.5 1.6-.5.7 0 1.2.2 1.5.5.4.4.6.9.6 1.4 0 .6-.2 1-.6 1.4-.3.4-.8.6-1.5.6s-1.2-.2-1.6-.6a2 2 0 01-.5-1.4zM215.8 8.2V10a5.9 5.9 0 014.8-2.2c3.4 0 5.2 2 5.2 5.8v10.9h-3.6V14c0-1-.3-1.8-.7-2.3-.5-.5-1.2-.8-2.2-.8-1.5 0-2.6.7-3.3 2v11.7h-3.7V8.2h3.4zM238.8 20.1c0-.6-.3-1.1-.8-1.5l-2.7-.9c-1.3-.3-2.3-.6-3.2-1-1.8-.9-2.7-2.2-2.7-3.8 0-1.5.6-2.6 1.8-3.6a7 7 0 014.5-1.4c2 0 3.6.5 4.8 1.4 1.2 1 1.8 2.3 1.8 3.8h-3.7c0-.7-.3-1.3-.8-1.7a3 3 0 00-2-.8c-.9 0-1.6.2-2 .6-.6.4-.8.9-.8 1.5s.2 1 .7 1.3c.5.3 1.4.6 2.9 1 1.4.3 2.5.7 3.4 1.1.8.4 1.4 1 1.8 1.6.4.6.6 1.3.6 2.2 0 1.5-.6 2.7-1.8 3.6a7.8 7.8 0 01-4.8 1.4c-1.4 0-2.6-.3-3.6-.8-1-.4-1.9-1.1-2.5-2-.6-.8-.9-1.7-.9-2.7h3.6c0 .9.4 1.5 1 2s1.4.7 2.4.7 1.7-.2 2.2-.5c.5-.4.8-.9.8-1.5zM250.2 4.2v4h3v2.7h-3v9.2c0 .6.1 1 .4 1.3.2.3.7.4 1.3.4l1.3-.1v2.8a9 9 0 01-2.4.4c-2.9 0-4.3-1.6-4.3-4.7v-9.3h-2.7V8.2h2.7v-4h3.7zM259.8 24.6h-3.6V8.2h3.6v16.4zM256 3.9c0-.5.2-1 .6-1.4A2 2 0 01258 2c.7 0 1.2.2 1.6.5.3.4.5.9.5 1.4 0 .6-.2 1-.5 1.4-.4.4-1 .6-1.6.6-.7 0-1.2-.2-1.5-.6a2 2 0 01-.6-1.4zM268.5 4.2v4h2.9v2.7h-3v9.2c0 .6.2 1 .4 1.3.3.3.7.4 1.4.4l1.3-.1v2.8a9 9 0 01-2.5.4c-2.8 0-4.2-1.6-4.2-4.7v-9.3H262V8.2h2.7v-4h3.7zM284.1 23c-1 1.2-2.6 1.9-4.6 1.9-1.8 0-3.1-.5-4-1.6-1-1-1.4-2.5-1.4-4.5V8.2h3.7v10.6c0 2 .8 3 2.6 3s3-.6 3.6-1.8V8.2h3.7v16.4h-3.5V23zM296 4.2v4h3v2.7h-3v9.2c0 .6.1 1 .4 1.3.2.3.7.4 1.3.4l1.3-.1v2.8a9 9 0 01-2.4.4c-2.8 0-4.3-1.6-4.3-4.7v-9.3h-2.7V8.2h2.7v-4h3.7zM309 24.9c-2.4 0-4.3-.8-5.7-2.2a8 8 0 01-2.2-5.9v-.5c0-1.6.3-3 1-4.3a7 7 0 016.5-4c2.2-.1 3.9.6 5 2a9 9 0 012 6v1.5h-10.8a5 5 0 001.4 3.3 4 4 0 003 1.1 5 5 0 004-2l2 1.9c-.6 1-1.5 1.7-2.6 2.3-1 .5-2.3.8-3.7.8zm-.5-14c-1 0-1.8.3-2.4 1-.7.7-1 1.7-1.2 3h7v-.3c-.1-1.3-.4-2.2-1-2.8a3 3 0 00-2.4-1z"/>
</svg>