<svg xmlns="http://www.w3.org/2000/svg" fill="none" viewBox="0 0 227 87">
  <path fill="#F4F4F4" fill-rule="evenodd" d="M49 86c38.4 0 48-32.1 48-32.1S87.4 25 49 25 1 53.9 1 53.9 10.6 86 49 86zm0-16a16 16 0 100-32 16 16 0 000 32z" clip-rule="evenodd"/>
  <path fill="#F4F4F4" d="M110 55.3c0-9 2-16.3 6-21.7 4-5.4 9.4-8 16.3-8 5.5 0 10.1 2 13.7 6.3V2h15.3V85h-13.8l-.7-6.2a17.7 17.7 0 01-14.6 7.3c-6.7 0-12-2.7-16.2-8-4-5.5-6-13-6-22.7zm15.2 1.2c0 5.4 1 9.6 2.8 12.5a9 9 0 008 4.4c4.8 0 8-2 10-6.1v-23a10 10 0 00-9.8-6.1c-7.3 0-11 6-11 18.3zM176.7 85V38h-8.4V26.6h8.4v-2.7c.1-7.3 2.3-13 6.6-17S193.8 1 201.7 1c4.7 0 10.4 1 17.2 3.2L216.7 17c-3.4-1-6.1-1.7-8-2-1.9-.4-4-.5-6.1-.5-7 0-10.6 3.2-10.6 9.6v2.4h11.2V38H192v47h-15.3zm49.3 0h-15.2V26.5H226v58.3z"/>
</svg>