<svg width="61" height="42" viewBox="0 0 61 42" fill="none" xmlns="http://www.w3.org/2000/svg">
<path d="M61 19.8418C61 8.91571 47.3321 0 30.5 0C13.6679 0 0 8.91571 0 19.8418C0 20.1041 0 20.8907 0 21.0219C0 32.6035 11.9539 42 30.5 42C49.178 42 61 32.6035 61 21.0219C61 20.5848 61 20.3663 61 19.8418Z" fill="#2D3277"/>
<path d="M59.8574 19.842C59.8574 30.1562 46.7169 38.5038 30.544 38.5038C14.3271 38.5038 1.18665 30.1562 1.18665 19.842C1.18665 9.52773 14.3271 1.18018 30.5 1.18018C46.7169 1.18018 59.8574 9.52773 59.8574 19.842Z" fill="#009EE3"/>
<path d="M20.7874 13.9416C20.7874 13.9853 20.4798 14.2912 20.6556 14.5097C21.139 15.0779 22.5453 15.4275 23.9956 15.1216C24.8746 14.9468 25.9733 14.0727 27.0281 13.1986C28.1707 12.2808 29.3573 11.363 30.5 11.0134C31.7305 10.62 32.5216 10.7949 33.005 10.9697C33.5763 11.1445 34.2355 11.4941 35.2903 12.3245C37.3119 13.8105 45.3544 20.8469 46.7608 22.0269C47.9034 21.5025 52.8696 19.4046 59.6376 17.9187C59.0662 14.3349 56.8688 11.0134 53.5288 8.34741C48.8703 10.2704 43.201 11.3193 37.6196 8.60963C37.5756 8.60963 34.5871 7.16739 31.5987 7.2548C27.2038 7.3422 25.2701 9.2652 23.2485 11.2756L20.7874 13.9416Z" fill="white"/>
<path d="M46.4532 22.7702C46.3653 22.6828 36.9604 14.51 34.8509 12.9367C33.6203 12.0189 32.9172 11.8004 32.214 11.7129C31.8185 11.6692 31.335 11.7129 30.9395 11.8441C29.9287 12.1063 28.6542 12.9804 27.5116 13.8982C26.325 14.8597 25.1823 15.7338 24.1715 15.9523C22.8531 16.2582 21.227 15.9086 20.4799 15.3841C20.1722 15.1656 19.9525 14.9471 19.8646 14.7286C19.6009 14.1167 20.0843 13.5922 20.1722 13.5048L22.7652 10.7077C23.0728 10.4018 23.3804 10.0959 23.6881 9.83365C22.8531 9.92106 22.062 10.1396 21.3149 10.3581C20.392 10.6203 19.4691 10.8826 18.5461 10.8826C18.1506 10.8826 16.129 10.5329 15.7335 10.4455C13.4042 9.78995 11.3386 9.17809 8.26228 7.73584C4.57064 10.4455 2.10954 13.8545 1.40637 17.6131C1.93375 17.7442 2.76876 18.0064 3.1643 18.0938C11.5144 19.9294 14.1074 21.8524 14.5908 22.2457C15.1182 21.6776 15.8214 21.3279 16.6564 21.3279C17.5793 21.3279 18.4143 21.8087 18.8977 22.508C19.3812 22.1146 20.0404 21.8087 20.8754 21.8087C21.2709 21.8087 21.6665 21.8961 22.062 22.0272C22.9849 22.3331 23.4683 22.9887 23.732 23.5569C24.0397 23.4257 24.4352 23.2946 24.8747 23.2946C25.3141 23.2946 25.7976 23.382 26.281 23.6006C27.8192 24.2561 28.0389 25.7421 27.9071 26.8784C27.995 26.8784 28.1268 26.8784 28.2587 26.8784C30.0605 26.8784 31.5548 28.3644 31.5548 30.1562C31.5548 30.7244 31.4229 31.2488 31.1593 31.7296C31.6427 31.9918 32.9172 32.6474 34.0159 32.5163C34.8948 32.3852 35.2464 32.1229 35.3783 31.9481C35.4662 31.817 35.5541 31.6859 35.4662 31.5985L33.093 29.0199C33.093 29.0199 32.6974 28.6703 32.8293 28.4955C32.9611 28.3644 33.1809 28.5392 33.3567 28.714C34.5433 29.7192 36.0375 31.2051 36.0375 31.2051C36.0814 31.2051 36.1693 31.4237 36.6967 31.5111C37.1801 31.5985 37.9712 31.5548 38.5425 31.074C38.6744 30.9429 38.8502 30.8118 38.9381 30.637C38.9381 30.637 38.9381 30.637 38.8941 30.637C39.5094 29.8503 38.8062 29.1073 38.8062 29.1073L36.0375 26.048C36.0375 26.048 35.642 25.6984 35.7738 25.5236C35.9057 25.3925 36.1254 25.5673 36.3012 25.7421C37.1801 26.4851 38.4107 27.7088 39.5973 28.8451C39.817 29.0199 40.8718 29.6318 42.2342 28.7577C43.0692 28.2332 43.245 27.534 43.201 27.0532C43.1571 26.3977 42.6297 25.9169 42.6297 25.9169L38.8941 22.1583C38.8941 22.1583 38.4986 21.8087 38.6304 21.6339C38.7623 21.5028 38.982 21.6776 39.1578 21.8524C40.3444 22.8576 43.5966 25.7858 43.5966 25.7858C43.6405 25.8295 44.7392 26.6162 46.1456 25.7421C46.629 25.4362 46.9366 24.9554 46.9806 24.3872C47.1564 23.3383 46.4532 22.7702 46.4532 22.7702Z" fill="white"/>
<path d="M28.2587 27.5339C27.6874 27.5339 27.0281 27.8835 26.9402 27.8398C26.8963 27.7961 26.9842 27.5776 27.0281 27.4465C27.0721 27.3153 27.8632 24.999 25.9734 24.2123C24.5231 23.6005 23.6881 24.2997 23.3804 24.6057C23.2926 24.6931 23.2486 24.6931 23.2486 24.562C23.2047 24.1686 23.0289 23.0323 21.7983 22.639C20.0404 22.1145 18.8977 23.3382 18.6341 23.7753C18.5022 22.7701 17.6672 21.9834 16.6124 21.9834C15.4698 21.9834 14.5469 22.9012 14.5469 24.0375C14.5469 25.1738 15.4698 26.0916 16.6124 26.0916C17.1838 26.0916 17.6672 25.8731 18.0188 25.5235C18.0188 25.5235 18.0188 25.5672 18.0188 25.6109C17.9309 26.1353 17.7551 27.9272 19.6888 28.6702C20.4799 28.9761 21.1391 28.7576 21.6665 28.3643C21.8423 28.2331 21.8423 28.2768 21.8423 28.4517C21.7544 28.9324 21.8423 29.9376 23.2926 30.5058C24.3913 30.9428 25.0065 30.5058 25.446 30.1124C25.6218 29.9376 25.6658 29.9813 25.6658 30.2435C25.7097 31.5984 26.8523 32.691 28.2147 32.691C29.6211 32.691 30.8077 31.5547 30.8077 30.1124C30.8516 28.6702 29.665 27.5339 28.2587 27.5339Z" fill="white"/>
<path d="M46.8487 21.8085C43.9482 19.3174 37.268 13.5047 35.4662 12.1498C34.4114 11.3632 33.7082 10.9698 33.093 10.795C32.8293 10.7076 32.4337 10.6202 31.9503 10.6202C31.5108 10.6202 30.9835 10.7076 30.5 10.8824C29.3134 11.2321 28.1708 12.1936 27.0281 13.0676L26.9842 13.1113C25.9294 13.9417 24.8307 14.8158 24.0397 14.9906C23.6881 15.078 23.2925 15.1218 22.941 15.1218C22.018 15.1218 21.183 14.8595 20.8754 14.4662C20.8314 14.4225 20.8754 14.2914 20.9633 14.1603L23.5123 11.4506C25.4899 9.48388 27.3797 7.60458 31.7306 7.51718C31.8185 7.51718 31.8624 7.51718 31.9503 7.51718C34.6312 7.51718 37.3559 8.7409 37.6636 8.87201C40.2126 10.0957 42.8055 10.7076 45.4424 10.7076C48.1672 10.7076 51.0238 10.052 53.9683 8.6972C53.6167 8.43497 53.3091 8.12904 52.9575 7.86681C50.3646 9.00313 47.8595 9.57129 45.4863 9.57129C43.0252 9.57129 40.6081 9.00313 38.2349 7.82311C38.1031 7.7794 35.1146 6.38086 32.0382 6.38086C31.9503 6.38086 31.8624 6.38086 31.7745 6.38086C28.1268 6.46827 26.0613 7.7357 24.6989 8.87201C23.3365 8.91572 22.1938 9.22165 21.183 9.52758C20.2601 9.78981 19.4691 10.0083 18.678 10.0083C18.3703 10.0083 17.799 9.96463 17.7551 9.96463C16.8761 9.92092 12.3934 8.82831 8.8336 7.51718C8.48202 7.7794 8.13043 8.04163 7.77885 8.30386C11.5144 9.83351 16.0411 11.0135 17.4914 11.1009C17.8869 11.1446 18.3264 11.1884 18.7219 11.1884C19.6888 11.1884 20.6117 10.9261 21.5346 10.6639C22.062 10.5328 22.6773 10.358 23.2925 10.2269C23.1167 10.4017 22.941 10.5765 22.8091 10.7076L20.2162 13.5047C19.9964 13.7232 19.5569 14.2477 19.8646 14.9469C19.9964 15.2092 20.2162 15.4714 20.5238 15.6899C21.1391 16.0833 22.2378 16.3892 23.2486 16.3892C23.6441 16.3892 23.9957 16.3455 24.3473 16.2581C25.446 15.9958 26.5886 15.1218 27.7752 14.1603C28.7421 13.4173 30.1045 12.4558 31.1593 12.1498C31.4669 12.0624 31.8185 12.0187 32.0822 12.0187C32.1701 12.0187 32.258 12.0187 32.3458 12.0187C33.049 12.1061 33.7082 12.3247 34.8948 13.2425C37.0044 14.8158 46.4093 22.9886 46.4972 23.076C46.4972 23.076 47.1124 23.6004 47.0685 24.4308C47.0245 24.9116 46.7608 25.3486 46.3214 25.6108C45.9258 25.8731 45.4863 26.0042 45.0908 26.0042C44.4755 26.0042 44.0361 25.6982 43.9921 25.6982C43.9482 25.6545 40.7399 22.7263 39.5533 21.7648C39.3776 21.59 39.2018 21.4589 38.982 21.4589C38.8941 21.4589 38.8062 21.5026 38.7183 21.59C38.5425 21.8085 38.7623 22.1145 38.982 22.333L42.7616 26.0916C42.7616 26.0916 43.245 26.5286 43.2889 27.0968C43.3329 27.7086 43.0252 28.2331 42.41 28.6264C41.9705 28.9324 41.531 29.0635 41.0915 29.0635C40.5202 29.0635 40.1247 28.8013 40.0368 28.7576L39.5094 28.2331C38.5425 27.2716 37.4878 26.2664 36.7407 25.6545C36.5649 25.5234 36.3451 25.3486 36.1693 25.3486C36.0814 25.3486 35.9935 25.3923 35.9496 25.436C35.8617 25.5234 35.8178 25.6982 36.0375 25.9605C36.1254 26.0916 36.2133 26.179 36.2133 26.179L38.9381 29.2383C38.982 29.282 39.5094 29.8939 38.982 30.5494L38.8941 30.6805C38.8062 30.768 38.7183 30.8554 38.6304 30.9428C38.147 31.3361 37.5317 31.3798 37.268 31.3798C37.1362 31.3798 37.0044 31.3798 36.9165 31.3361C36.6528 31.2924 36.477 31.205 36.3891 31.1176L36.3451 31.0739C36.2133 30.8991 34.8069 29.5005 33.6643 28.5827C33.5324 28.4516 33.3127 28.2768 33.1369 28.2768C33.049 28.2768 32.9611 28.3205 32.8732 28.4079C32.6535 28.6701 33.0051 29.0198 33.1369 29.1509L35.4662 31.7295C35.4662 31.7732 35.4222 31.8169 35.3783 31.9043C35.2904 32.0354 35.0267 32.2976 34.1477 32.4287C34.0598 32.4287 33.928 32.4287 33.8401 32.4287C32.9611 32.4287 32.0382 31.9917 31.5548 31.7732C31.7745 31.2924 31.9064 30.8117 31.9064 30.2872C31.9064 28.3642 30.3242 26.8346 28.4345 26.7908C28.3905 26.7908 28.3466 26.7908 28.3026 26.7908C28.3466 25.9168 28.2587 24.256 26.5447 23.513C26.0613 23.2945 25.5778 23.2071 25.0944 23.2071C24.7428 23.2071 24.3473 23.2508 24.0397 23.3819C23.6881 22.6826 23.1167 22.2019 22.3257 21.9397C21.8862 21.8085 21.4907 21.7211 21.0512 21.7211C20.348 21.7211 19.6888 21.9397 19.1175 22.333C18.5461 21.6337 17.7111 21.2404 16.8322 21.2404C16.0411 21.2404 15.294 21.5463 14.7666 22.1145C14.0195 21.5463 11.1629 19.7544 3.42798 18.0062C3.03245 17.9188 2.19744 17.6566 1.67006 17.5255C1.58216 17.9625 1.49427 18.3559 1.45032 18.7929C1.45032 18.7929 2.85666 19.1426 3.16429 19.1863C11.075 20.9345 13.6679 22.7263 14.1074 23.076C13.9755 23.4256 13.8876 23.8189 13.8876 24.2123C13.8876 25.8294 15.2061 27.1405 16.8322 27.1405C17.008 27.1405 17.1837 27.1405 17.3595 27.0968C17.6232 28.2768 18.3703 29.1946 19.6009 29.6753C19.9525 29.8065 20.3041 29.8939 20.6556 29.8939C20.8754 29.8939 21.0951 29.8502 21.3149 29.8065C21.5346 30.3746 22.018 31.0739 23.1607 31.5109C23.5562 31.6857 23.9518 31.7295 24.3033 31.7295C24.611 31.7295 24.9186 31.6857 25.2263 31.5546C25.7536 32.8658 27.0281 33.6962 28.4345 33.6962C29.3574 33.6962 30.2803 33.3028 30.9395 32.6472C31.5108 32.9532 32.6974 33.5213 33.884 33.5213C34.0598 33.5213 34.1917 33.5213 34.3235 33.4776C35.5101 33.3465 36.0814 32.8658 36.3451 32.5161C36.3891 32.4724 36.433 32.385 36.477 32.2976C36.7407 32.385 37.0483 32.4287 37.4438 32.4287C38.1031 32.4287 38.7183 32.2102 39.3336 31.7295C39.9489 31.2924 40.3884 30.6368 40.4763 30.1124C40.4763 30.1124 40.4763 30.1124 40.4763 30.0687C40.696 30.1124 40.9157 30.1124 41.1355 30.1124C41.7947 30.1124 42.4539 29.8939 43.1131 29.5005C44.3437 28.7138 44.5634 27.6649 44.5195 27.0094C44.7392 27.0531 44.959 27.0968 45.1787 27.0968C45.794 27.0968 46.4093 26.922 47.0245 26.5286C47.7716 26.0479 48.2551 25.3049 48.299 24.4745C48.343 23.9064 48.2111 23.2945 47.9035 22.8137C49.9251 21.9397 54.5836 20.2352 60.0771 19.0115C60.0332 18.5744 59.9892 18.1811 59.9013 17.744C53.0454 19.0989 48.0793 21.2404 46.8487 21.8085ZM28.2587 32.4724C26.9842 32.4724 25.9294 31.4672 25.8855 30.1998C25.8855 30.1124 25.8855 29.8065 25.6218 29.8065C25.5339 29.8065 25.446 29.8502 25.3142 29.9376C25.0505 30.1998 24.6549 30.462 24.1276 30.462C23.9078 30.462 23.6441 30.4183 23.3365 30.2872C21.9741 29.7191 21.9741 28.8013 22.018 28.4516C22.018 28.3642 22.018 28.2331 21.9741 28.1457L21.8862 28.0583H21.7983C21.7104 28.0583 21.6665 28.102 21.5786 28.1457C21.183 28.4079 20.7875 28.539 20.4359 28.539C20.2162 28.539 19.9964 28.4953 19.7767 28.4079C17.9748 27.7086 18.1067 26.0479 18.1946 25.5234C18.1946 25.436 18.1946 25.3486 18.1067 25.3049L18.0188 25.2612L17.9309 25.3486C17.5793 25.6982 17.1398 25.8731 16.6564 25.8731C15.6456 25.8731 14.8105 25.0427 14.8105 24.0375C14.8105 23.0323 15.6456 22.2019 16.6564 22.2019C17.5793 22.2019 18.3703 22.9012 18.5022 23.8189L18.5461 24.2997L18.8098 23.8626C18.8538 23.8189 19.6009 22.6826 20.9633 22.6826C21.227 22.6826 21.4907 22.7263 21.7544 22.8137C22.8531 23.1634 23.0288 24.1249 23.0728 24.5619C23.0728 24.8241 23.2486 24.8241 23.2925 24.8241C23.3804 24.8241 23.4683 24.7804 23.5123 24.693C23.732 24.4745 24.1715 24.1249 24.8747 24.1249C25.1823 24.1249 25.5339 24.2123 25.8855 24.3434C27.6434 25.0864 26.8523 27.3153 26.8523 27.3153C26.7205 27.6649 26.6765 27.8398 26.8523 27.9272L26.9402 27.9709H26.9842C27.0721 27.9709 27.16 27.9272 27.3358 27.8835C27.5555 27.7961 27.951 27.6649 28.2587 27.6649C29.5771 27.6649 30.6319 28.7575 30.6319 30.025C30.6319 31.3798 29.5771 32.4724 28.2587 32.4724Z" fill="#2D3277"/>
</svg>
