<svg width="126" height="101" viewBox="0 0 126 101" fill="none" xmlns="http://www.w3.org/2000/svg">
<g clip-path="url(#clip02)">
<g filter="url(#filter0_dd2)">
<path d="M83.5474 93L62.9129 80.2174C73.0083 65.498 78.2224 50.17 78.5552 34.2332L78.5552 9L114 9L114 31.9091C113.889 42.5336 111.005 53.6008 105.347 65.1107C99.578 76.7312 92.3116 86.0277 83.5474 93ZM27.6345 93L7 80.2174C17.0954 65.498 22.3095 50.17 22.6423 34.2332L22.6423 8.99999L58.0871 9L58.0871 31.9091C57.9762 42.5336 55.0918 53.6008 49.4339 65.1107C43.6651 76.7312 36.3987 86.0277 27.6345 93Z" fill="#F4F4F4"/>
</g>
</g>
<defs>
<filter id="filter0_dd2" x="-6" y="-6" width="129" height="106" filterUnits="userSpaceOnUse" color-interpolation-filters="sRGB">
<feFlood flood-opacity="0" result="BackgroundImageFix"/>
<feColorMatrix in="SourceAlpha" type="matrix" values="0 0 0 0 0 0 0 0 0 0 0 0 0 0 0 0 0 0 127 0"/>
<feOffset dx="-2" dy="-4"/>
<feGaussianBlur stdDeviation="5.5"/>
<feColorMatrix type="matrix" values="0 0 0 0 1 0 0 0 0 1 0 0 0 0 1 0 0 0 0.9 0"/>
<feBlend mode="normal" in2="BackgroundImageFix" result="effect1_dropShadow"/>
<feColorMatrix in="SourceAlpha" type="matrix" values="0 0 0 0 0 0 0 0 0 0 0 0 0 0 0 0 0 0 127 0"/>
<feOffset dx="2" dy="2"/>
<feGaussianBlur stdDeviation="2"/>
<feColorMatrix type="matrix" values="0 0 0 0 0.300658 0 0 0 0 0.299566 0 0 0 0 0.354167 0 0 0 0.19 0"/>
<feBlend mode="exclusion" in2="effect1_dropShadow" result="effect2_dropShadow"/>
<feBlend mode="normal" in="SourceGraphic" in2="effect2_dropShadow" result="shape"/>
</filter>
<clipPath id="clip02">
<rect width="126" height="101" fill="white"/>
</clipPath>
</defs>
</svg>
