<svg width="283" height="107" viewBox="0 0 283 107" fill="none" xmlns="http://www.w3.org/2000/svg">
<path fill-rule="evenodd" clip-rule="evenodd" d="M60.3733 107C108.672 107 120.747 66.5851 120.747 66.5851C120.747 66.5851 108.672 30.2118 60.3733 30.2118C12.0747 30.2118 0 66.5851 0 66.5851C0 66.5851 12.0747 107 60.3733 107ZM60.3733 86.8588C71.4878 86.8588 80.4978 77.8413 80.4978 66.7176C80.4978 55.594 71.4878 46.5765 60.3733 46.5765C49.2589 46.5765 40.2489 55.594 40.2489 66.7176C40.2489 77.8413 49.2589 86.8588 60.3733 86.8588Z" fill="#060809"/>
<path d="M137.098 68.3932C137.098 56.9491 139.589 47.8345 144.571 41.0495C149.598 34.2644 156.454 30.8719 165.141 30.8719C172.107 30.8719 177.861 33.5407 182.403 38.8782V1.42486H201.583V105.643H184.321L183.395 97.8402C178.633 103.947 172.504 107 165.008 107C156.587 107 149.818 103.607 144.704 96.8224C139.633 89.9922 137.098 80.5157 137.098 68.3932ZM156.212 69.818C156.212 76.6935 157.38 81.9632 159.717 85.6271C162.054 89.2911 165.449 91.123 169.903 91.123C175.811 91.123 179.978 88.5673 182.403 83.4559V54.4838C180.022 49.3724 175.899 46.8167 170.035 46.8167C160.82 46.8167 156.212 54.4838 156.212 69.818Z" fill="#060809"/>
<path d="M221.028 105.643V46.6132H210.38V32.2289H221.028V28.8364C221.116 19.6087 223.872 12.5071 229.295 7.53139C234.763 2.51046 242.457 0 252.378 0C258.33 0 265.561 1.33439 274.071 4.00317L271.293 20.2194C266.972 18.9076 263.621 18.0708 261.24 17.7089C258.859 17.3018 256.302 17.0983 253.568 17.0983C244.662 17.0983 240.208 21.1467 240.208 29.2435V32.2289H254.296V46.6132H240.208V105.643H221.028ZM283 105.643H263.82V32.2289H283V105.643Z" fill="#060809"/>
</svg>
