<?xml version="1.0" standalone="no"?>
<!DOCTYPE svg PUBLIC "-//W3C//DTD SVG 20010904//EN"
 "http://www.w3.org/TR/2001/REC-SVG-20010904/DTD/svg10.dtd">
<svg version="1.0" xmlns="http://www.w3.org/2000/svg"
 width="500.000000pt" height="500.000000pt" viewBox="0 0 500.000000 500.000000"
 preserveAspectRatio="xMidYMid meet">
<metadata>
Created by potrace 1.11, written by Peter Selinger 2001-2013
</metadata>
<g transform="translate(0.000000,500.000000) scale(0.100000,-0.100000)"
fill="#000000" stroke="none">
<path d="M2299 4076 c-2 -2 -49 -7 -104 -10 -55 -3 -111 -8 -125 -11 -14 -3
-43 -7 -65 -10 -22 -3 -67 -10 -100 -15 -33 -6 -73 -13 -90 -16 -42 -7 -238
-59 -310 -83 -308 -99 -612 -268 -850 -470 -45 -39 -226 -220 -265 -266 -135
-159 -282 -395 -354 -569 -16 -37 -15 -43 4 -100 28 -81 128 -285 179 -366 23
-36 44 -72 48 -80 13 -28 107 -156 198 -269 11 -14 63 -70 115 -124 345 -360
801 -608 1300 -705 102 -21 127 -25 220 -37 170 -22 566 -28 725 -11 82 9 139
17 155 21 8 2 38 6 65 10 79 10 283 61 402 100 263 88 508 220 733 393 90 70
336 310 385 377 17 22 32 42 35 45 17 16 96 127 143 200 120 185 255 478 241
523 -11 38 -111 233 -156 304 -137 221 -374 483 -568 630 -272 205 -546 338
-900 437 -74 20 -224 53 -280 60 -25 4 -76 11 -115 16 -38 5 -88 12 -110 15
-46 6 -550 16 -556 11z m366 -686 c252 -52 467 -215 578 -436 31 -61 65 -160
73 -211 3 -21 8 -41 10 -45 7 -12 6 -198 -1 -243 -25 -157 -114 -338 -222
-450 -103 -108 -262 -199 -408 -233 -95 -23 -261 -26 -351 -7 -244 51 -451
203 -566 415 -71 131 -99 249 -99 408 1 308 182 596 459 731 73 36 173 69 237
77 28 3 51 7 53 9 7 7 186 -4 237 -15z"/>
</g>
</svg>
