<svg width="657" height="320" viewBox="0 0 657 320" fill="none" xmlns="http://www.w3.org/2000/svg">
<g clip-path="url(#clip0)">
<path d="M218.5 88C232.031 88 243 98.969 243 112.5C243 126.031 232.031 137 218.5 137C204.969 137 194 126.031 194 112.5C194 98.969 204.969 88 218.5 88Z" fill="#1D1D1B" stroke="#44639E" stroke-width="3"/>
<path d="M51 45C57.0751 45 62 40.0751 62 34C62 27.9249 57.0751 23 51 23C44.9249 23 40 27.9249 40 34C40 40.0751 44.9249 45 51 45Z" fill="#1D1D1B" stroke="#44639E" stroke-width="3"/>
<path d="M442.5 252C467.077 252 487 232.524 487 208.5C487 184.476 467.077 165 442.5 165C417.923 165 398 184.476 398 208.5C398 232.524 417.923 252 442.5 252Z" fill="#1D1D1B" stroke="#44639E" stroke-width="3"/>
<path d="M458.1 75.1004C473.895 75.1004 486.7 62.2957 486.7 46.5004C486.7 30.705 473.895 17.9004 458.1 17.9004C442.305 17.9004 429.5 30.705 429.5 46.5004C429.5 62.2957 442.305 75.1004 458.1 75.1004Z" fill="#1D1D1B" stroke="#44639E" stroke-width="3"/>
<path d="M160.4 265.9C171.998 265.9 181.4 256.498 181.4 244.9C181.4 233.302 171.998 223.9 160.4 223.9C148.802 223.9 139.4 233.302 139.4 244.9C139.4 256.498 148.802 265.9 160.4 265.9Z" fill="#1D1D1B" stroke="#44639E" stroke-width="3"/>
<path d="M16.2002 302C22.8276 302 28.2002 296.627 28.2002 290C28.2002 283.373 22.8276 278 16.2002 278C9.57278 278 4.2002 283.373 4.2002 290C4.2002 296.627 9.57278 302 16.2002 302Z" fill="#1D1D1B" stroke="#44639E" stroke-width="3"/>
<path d="M639.3 246.4C647.584 246.4 654.3 239.685 654.3 231.4C654.3 223.116 647.584 216.4 639.3 216.4C631.016 216.4 624.3 223.116 624.3 231.4C624.3 239.685 631.016 246.4 639.3 246.4Z" fill="#1D1D1B" stroke="#44639E" stroke-width="3"/>
<path d="M563.6 79.5C572.05 79.5 578.9 72.7843 578.9 64.5C578.9 56.2157 572.05 49.5 563.6 49.5C555.15 49.5 548.3 56.2157 548.3 64.5C548.3 72.7843 555.15 79.5 563.6 79.5Z" fill="#1D1D1B" stroke="#44639E" stroke-width="3"/>
<path d="M315.4 185.2C315.4 177 316.4 170.4 318.4 165.6C320.4 160.7 324 155.9 329.3 151.2C334.6 146.5 338.1 142.6 339.9 139.7C341.7 136.7 342.5 133.6 342.5 130.3C342.5 120.4 337.9 115.4 328.8 115.4C324.5 115.4 321 116.7 318.4 119.4C315.8 122.1 314.4 125.8 314.3 130.5H288.8C288.9 119.3 292.5 110.5 299.7 104.2C306.8 97.9002 316.5 94.7002 328.9 94.7002C341.3 94.7002 351 97.7002 357.8 103.7C364.7 109.7 368.1 118.2 368.1 129.2C368.1 134.2 367 138.9 364.8 143.3C362.6 147.7 358.7 152.6 353.1 158L346 164.8C341.5 169.1 339 174.1 338.3 179.9L337.9 185.3H315.4V185.2ZM312.9 212.1C312.9 208.2 314.2 205 316.9 202.4C319.6 199.9 323 198.6 327.1 198.6C331.3 198.6 334.7 199.9 337.3 202.4C340 204.9 341.3 208.2 341.3 212.1C341.3 216 340 219.1 337.4 221.7C334.8 224.2 331.3 225.5 327.1 225.5C322.8 225.5 319.4 224.2 316.8 221.7C314.2 219.2 312.9 216 312.9 212.1Z" stroke="#F4F4F4" stroke-width="3"/>
<path d="M121.635 136.713C120.867 132.655 120.744 129.296 121.284 126.734C121.815 124.122 123.147 121.41 125.329 118.588C127.512 115.767 128.878 113.509 129.497 111.906C130.107 110.253 130.213 108.644 129.904 107.011C128.977 102.113 126.232 100.07 121.73 100.922C119.602 101.324 117.992 102.295 116.958 103.875C115.925 105.454 115.579 107.416 115.969 109.751L103.352 112.138C102.353 106.587 103.31 101.896 106.283 98.1047C109.206 94.3228 113.706 91.8312 119.841 90.6702C125.977 89.5092 131.057 90.0853 134.983 92.4174C138.959 94.7401 141.437 98.6274 142.467 104.07C142.935 106.544 142.831 108.973 142.155 111.356C141.478 113.739 140.007 116.528 137.742 119.725L134.866 123.754C133.042 126.303 132.273 129.011 132.47 131.946L132.777 134.656L121.644 136.762L121.635 136.713ZM122.917 150.257C122.552 148.327 122.895 146.622 123.988 145.083C125.09 143.593 126.65 142.631 128.679 142.247C130.757 141.854 132.561 142.179 134.081 143.173C135.651 144.157 136.604 145.668 136.969 147.598C137.334 149.527 136.981 151.183 135.938 152.713C134.886 154.193 133.276 155.164 131.197 155.557C129.07 155.96 127.266 155.635 125.745 154.642C124.225 153.648 123.282 152.186 122.917 150.257Z" stroke="#F4F4F4" stroke-width="3"/>
<path d="M71.5828 208.814C72.4692 211.65 72.8367 214.041 72.6638 215.917C72.5017 217.828 71.7754 219.877 70.4504 222.076C69.1253 224.274 68.3364 226.001 68.0273 227.199C67.729 228.431 67.7874 229.59 68.1441 230.731C69.2142 234.155 71.3456 235.387 74.4929 234.403C75.9802 233.939 77.0502 233.111 77.6576 231.896C78.265 230.681 78.3492 229.25 77.8758 227.614L86.6953 224.857C87.8713 228.742 87.5774 232.175 85.7682 235.132C83.9935 238.078 80.9845 240.233 76.6958 241.574C72.4071 242.914 68.728 242.925 65.7276 241.585C62.6926 240.255 60.5978 237.683 59.4089 233.879C58.8684 232.149 58.7408 230.405 59.0261 228.645C59.3115 226.886 60.1307 224.769 61.4838 222.296L63.2044 219.177C64.296 217.203 64.6203 215.204 64.2354 213.122L63.7901 211.211L71.572 208.779L71.5828 208.814ZM69.5399 199.24C69.9614 200.589 69.8577 201.836 69.2049 203.027C68.5413 204.184 67.5059 205.001 66.0878 205.444C64.6352 205.898 63.3187 205.816 62.1493 205.232C60.9452 204.659 60.1389 203.658 59.7173 202.31C59.2958 200.961 59.4103 199.748 60.0286 198.568C60.6576 197.422 61.7276 196.594 63.1802 196.14C64.6674 195.675 65.9839 195.757 67.1533 196.341C68.3228 196.925 69.1183 197.891 69.5399 199.24Z" stroke="#F4F4F4" stroke-width="3"/>
<path d="M552.009 236.905C553.132 231.54 554.69 227.36 556.656 224.494C558.635 221.562 561.647 218.915 565.758 216.567C569.869 214.218 572.693 212.146 574.267 210.495C575.856 208.779 576.804 206.861 577.256 204.702C578.611 198.226 576.287 194.325 570.334 193.079C567.521 192.49 565.054 192.861 562.983 194.271C560.912 195.681 559.49 197.91 558.781 200.971L542.099 197.479C543.699 190.166 547.259 184.902 552.832 181.767C558.339 178.618 565.123 177.853 573.234 179.551C581.346 181.25 587.281 184.541 590.907 189.397C594.599 194.267 595.659 200.293 594.153 207.489C593.468 210.76 592.105 213.684 590.063 216.261C588.021 218.838 584.799 221.509 580.396 224.274L574.82 227.75C571.288 229.947 568.967 232.875 567.715 236.574L566.714 240.051L551.995 236.97L552.009 236.905ZM546.689 254.159C547.223 251.608 548.512 249.693 550.634 248.362C552.743 247.096 555.145 246.711 557.827 247.273C560.575 247.848 562.621 249.164 563.979 251.155C565.403 253.161 565.802 255.497 565.268 258.049C564.733 260.6 563.458 262.45 561.402 263.795C559.358 265.074 556.891 265.445 554.143 264.87C551.33 264.281 549.284 262.965 547.926 260.973C546.567 258.982 546.155 256.71 546.689 254.159Z" stroke="#F4F4F4" stroke-width="3"/>
<path d="M517.775 112.238C517.453 114.916 516.866 117.032 516.024 118.522C515.178 120.043 513.813 121.47 511.897 122.796C509.981 124.123 508.684 125.259 507.982 126.135C507.276 127.044 506.893 128.025 506.763 129.103C506.373 132.337 507.679 134.151 510.651 134.509C512.056 134.678 513.25 134.392 514.206 133.612C515.161 132.832 515.764 131.679 515.982 130.148L524.311 131.151C523.837 134.806 522.315 137.538 519.715 139.313C517.148 141.091 513.854 141.755 509.804 141.266C505.754 140.778 502.703 139.417 500.719 137.189C498.701 134.958 497.925 132.048 498.358 128.455C498.555 126.822 499.099 125.33 499.991 123.979C500.882 122.629 502.349 121.182 504.391 119.638L506.978 117.697C508.617 116.469 509.63 114.934 510.087 113.068L510.43 111.319L517.779 112.205L517.775 112.238ZM519.651 103.55C519.497 104.824 518.947 105.818 517.962 106.561C516.982 107.271 515.82 107.562 514.481 107.4C513.109 107.235 512.05 106.677 511.299 105.758C510.516 104.835 510.221 103.706 510.374 102.432C510.528 101.158 511.074 100.197 512.026 99.4498C512.974 98.7355 514.168 98.4487 515.54 98.614C516.944 98.7832 518.004 99.3417 518.755 100.261C519.505 101.179 519.804 102.276 519.651 103.55Z" stroke="#F4F4F4" stroke-width="3"/>
</g>
<defs>
<clipPath id="clip0">
<rect width="657" height="320" fill="white"/>
</clipPath>
</defs>
</svg>
