<svg width="657" height="328" viewBox="0 0 657 328" fill="none" xmlns="http://www.w3.org/2000/svg">
<g clip-path="url(#clip0)">
<path d="M144.391 317H130.141V315.562L137.938 306.719C139.229 305.229 140.125 304 140.625 303.031C141.125 302.062 141.375 301.12 141.375 300.203C141.375 298.766 140.953 297.63 140.109 296.797C139.266 295.953 138.104 295.531 136.625 295.531C135.094 295.531 133.854 296.021 132.906 297C131.969 297.979 131.5 299.25 131.5 300.812H129.641C129.641 299.531 129.927 298.365 130.5 297.312C131.083 296.26 131.906 295.438 132.969 294.844C134.042 294.24 135.26 293.938 136.625 293.938C138.708 293.938 140.333 294.484 141.5 295.578C142.677 296.672 143.266 298.161 143.266 300.047C143.266 301.109 142.932 302.271 142.266 303.531C141.609 304.792 140.448 306.365 138.781 308.25L132.438 315.422H144.391V317ZM161.609 307.516C161.609 310.724 161.021 313.161 159.844 314.828C158.667 316.484 156.932 317.312 154.641 317.312C152.391 317.312 150.667 316.5 149.469 314.875C148.271 313.24 147.656 310.865 147.625 307.75V303.672C147.625 300.474 148.219 298.052 149.406 296.406C150.594 294.76 152.328 293.938 154.609 293.938C156.859 293.938 158.578 294.734 159.766 296.328C160.953 297.911 161.568 300.25 161.609 303.344V307.516ZM159.734 303.438C159.734 300.833 159.307 298.865 158.453 297.531C157.609 296.198 156.328 295.531 154.609 295.531C152.922 295.531 151.651 296.182 150.797 297.484C149.943 298.786 149.505 300.708 149.484 303.25V307.719C149.484 310.312 149.922 312.297 150.797 313.672C151.682 315.047 152.964 315.734 154.641 315.734C156.307 315.734 157.568 315.062 158.422 313.719C159.286 312.375 159.724 310.406 159.734 307.812V303.438ZM174.344 317H172.469V296.5L166.281 298.797V297.047L174.031 294.172H174.344V317ZM197.109 307.516C197.109 310.724 196.521 313.161 195.344 314.828C194.167 316.484 192.432 317.312 190.141 317.312C187.891 317.312 186.167 316.5 184.969 314.875C183.771 313.24 183.156 310.865 183.125 307.75V303.672C183.125 300.474 183.719 298.052 184.906 296.406C186.094 294.76 187.828 293.938 190.109 293.938C192.359 293.938 194.078 294.734 195.266 296.328C196.453 297.911 197.068 300.25 197.109 303.344V307.516ZM195.234 303.438C195.234 300.833 194.807 298.865 193.953 297.531C193.109 296.198 191.828 295.531 190.109 295.531C188.422 295.531 187.151 296.182 186.297 297.484C185.443 298.786 185.005 300.708 184.984 303.25V307.719C184.984 310.312 185.422 312.297 186.297 313.672C187.182 315.047 188.464 315.734 190.141 315.734C191.807 315.734 193.068 315.062 193.922 313.719C194.786 312.375 195.224 310.406 195.234 307.812V303.438Z" fill="#F4F4F4"/>
<path d="M481.391 317H467.141V315.562L474.938 306.719C476.229 305.229 477.125 304 477.625 303.031C478.125 302.062 478.375 301.12 478.375 300.203C478.375 298.766 477.953 297.63 477.109 296.797C476.266 295.953 475.104 295.531 473.625 295.531C472.094 295.531 470.854 296.021 469.906 297C468.969 297.979 468.5 299.25 468.5 300.812H466.641C466.641 299.531 466.927 298.365 467.5 297.312C468.083 296.26 468.906 295.438 469.969 294.844C471.042 294.24 472.26 293.938 473.625 293.938C475.708 293.938 477.333 294.484 478.5 295.578C479.677 296.672 480.266 298.161 480.266 300.047C480.266 301.109 479.932 302.271 479.266 303.531C478.609 304.792 477.448 306.365 475.781 308.25L469.438 315.422H481.391V317ZM498.609 307.516C498.609 310.724 498.021 313.161 496.844 314.828C495.667 316.484 493.932 317.312 491.641 317.312C489.391 317.312 487.667 316.5 486.469 314.875C485.271 313.24 484.656 310.865 484.625 307.75V303.672C484.625 300.474 485.219 298.052 486.406 296.406C487.594 294.76 489.328 293.938 491.609 293.938C493.859 293.938 495.578 294.734 496.766 296.328C497.953 297.911 498.568 300.25 498.609 303.344V307.516ZM496.734 303.438C496.734 300.833 496.307 298.865 495.453 297.531C494.609 296.198 493.328 295.531 491.609 295.531C489.922 295.531 488.651 296.182 487.797 297.484C486.943 298.786 486.505 300.708 486.484 303.25V307.719C486.484 310.312 486.922 312.297 487.797 313.672C488.682 315.047 489.964 315.734 491.641 315.734C493.307 315.734 494.568 315.062 495.422 313.719C496.286 312.375 496.724 310.406 496.734 307.812V303.438ZM516.891 317H502.641V315.562L510.438 306.719C511.729 305.229 512.625 304 513.125 303.031C513.625 302.062 513.875 301.12 513.875 300.203C513.875 298.766 513.453 297.63 512.609 296.797C511.766 295.953 510.604 295.531 509.125 295.531C507.594 295.531 506.354 296.021 505.406 297C504.469 297.979 504 299.25 504 300.812H502.141C502.141 299.531 502.427 298.365 503 297.312C503.583 296.26 504.406 295.438 505.469 294.844C506.542 294.24 507.76 293.938 509.125 293.938C511.208 293.938 512.833 294.484 514 295.578C515.177 296.672 515.766 298.161 515.766 300.047C515.766 301.109 515.432 302.271 514.766 303.531C514.109 304.792 512.948 306.365 511.281 308.25L504.938 315.422H516.891V317ZM534.109 307.516C534.109 310.724 533.521 313.161 532.344 314.828C531.167 316.484 529.432 317.312 527.141 317.312C524.891 317.312 523.167 316.5 521.969 314.875C520.771 313.24 520.156 310.865 520.125 307.75V303.672C520.125 300.474 520.719 298.052 521.906 296.406C523.094 294.76 524.828 293.938 527.109 293.938C529.359 293.938 531.078 294.734 532.266 296.328C533.453 297.911 534.068 300.25 534.109 303.344V307.516ZM532.234 303.438C532.234 300.833 531.807 298.865 530.953 297.531C530.109 296.198 528.828 295.531 527.109 295.531C525.422 295.531 524.151 296.182 523.297 297.484C522.443 298.786 522.005 300.708 521.984 303.25V307.719C521.984 310.312 522.422 312.297 523.297 313.672C524.182 315.047 525.464 315.734 527.141 315.734C528.807 315.734 530.068 315.062 530.922 313.719C531.786 312.375 532.224 310.406 532.234 307.812V303.438Z" fill="#F4F4F4"/>
<path d="M6 269C20.887 244.054 43.9617 190.668 71.3165 190.668C98.6713 190.668 112.628 229.585 148.357 229.585C189.668 229.585 214.79 164.225 255.543 154.247C296.296 144.268 321.393 172.02 332 181.5" stroke="#F4F4F4" stroke-width="3" stroke-linecap="round" stroke-linejoin="round"/>
<path d="M336 183C350.655 199.418 373.37 234.552 400.299 234.552C427.228 234.552 440.967 208.94 476.139 208.94C516.807 208.94 541.537 251.954 581.656 258.522C621.774 265.089 641.558 248.014 652 241.776" stroke="#44639E" stroke-width="3" stroke-linecap="round" stroke-linejoin="round" stroke-dasharray="10 10 10 10 10 10"/>
<path d="M652 260C637.349 219.554 614.641 133 587.721 133C560.8 133 547.065 196.096 511.904 196.096C471.248 196.096 463.954 176.816 423.848 160.637C383.742 144.458 365.164 189.242 335 181.714" stroke="#44639E" stroke-width="3" stroke-linecap="round" stroke-linejoin="round" stroke-dasharray="10 10 10 10 10 10"/>
<path d="M653.5 43.5C646.351 76.2718 620.305 185 583.46 185C546.616 185 529.08 28 493.825 28C453.06 28 458.15 131.676 417.937 89.733C377.723 47.7904 362.745 200.515 332.5 181" stroke="#44639E" stroke-width="3" stroke-linecap="round" stroke-linejoin="round" stroke-dasharray="10 10 10 10 10 10"/>
<path d="M332 21L332 310" stroke="#4F4F4F" stroke-width="3"/>
</g>
<defs>
<clipPath id="clip0">
<rect width="657" height="328" fill="white"/>
</clipPath>
</defs>
</svg>
