<svg width="657" height="328" viewBox="0 0 657 328" fill="none" xmlns="http://www.w3.org/2000/svg">
<g clip-path="url(#clip0)">
<path d="M101.531 317H87.2812V315.562L95.0781 306.719C96.3698 305.229 97.2656 304 97.7656 303.031C98.2656 302.062 98.5156 301.12 98.5156 300.203C98.5156 298.766 98.0938 297.63 97.25 296.797C96.4062 295.953 95.2448 295.531 93.7656 295.531C92.2344 295.531 90.9948 296.021 90.0469 297C89.1094 297.979 88.6406 299.25 88.6406 300.812H86.7812C86.7812 299.531 87.0677 298.365 87.6406 297.312C88.224 296.26 89.0469 295.438 90.1094 294.844C91.1823 294.24 92.401 293.938 93.7656 293.938C95.849 293.938 97.474 294.484 98.6406 295.578C99.8177 296.672 100.406 298.161 100.406 300.047C100.406 301.109 100.073 302.271 99.4062 303.531C98.75 304.792 97.5885 306.365 95.9219 308.25L89.5781 315.422H101.531V317ZM118.75 307.516C118.75 310.724 118.161 313.161 116.984 314.828C115.807 316.484 114.073 317.312 111.781 317.312C109.531 317.312 107.807 316.5 106.609 314.875C105.411 313.24 104.797 310.865 104.766 307.75V303.672C104.766 300.474 105.359 298.052 106.547 296.406C107.734 294.76 109.469 293.938 111.75 293.938C114 293.938 115.719 294.734 116.906 296.328C118.094 297.911 118.708 300.25 118.75 303.344V307.516ZM116.875 303.438C116.875 300.833 116.448 298.865 115.594 297.531C114.75 296.198 113.469 295.531 111.75 295.531C110.062 295.531 108.792 296.182 107.938 297.484C107.083 298.786 106.646 300.708 106.625 303.25V307.719C106.625 310.312 107.062 312.297 107.938 313.672C108.823 315.047 110.104 315.734 111.781 315.734C113.448 315.734 114.708 315.062 115.562 313.719C116.427 312.375 116.865 310.406 116.875 307.812V303.438ZM131.484 317H129.609V296.5L123.422 298.797V297.047L131.172 294.172H131.484V317ZM154.25 307.516C154.25 310.724 153.661 313.161 152.484 314.828C151.307 316.484 149.573 317.312 147.281 317.312C145.031 317.312 143.307 316.5 142.109 314.875C140.911 313.24 140.297 310.865 140.266 307.75V303.672C140.266 300.474 140.859 298.052 142.047 296.406C143.234 294.76 144.969 293.938 147.25 293.938C149.5 293.938 151.219 294.734 152.406 296.328C153.594 297.911 154.208 300.25 154.25 303.344V307.516ZM152.375 303.438C152.375 300.833 151.948 298.865 151.094 297.531C150.25 296.198 148.969 295.531 147.25 295.531C145.562 295.531 144.292 296.182 143.438 297.484C142.583 298.786 142.146 300.708 142.125 303.25V307.719C142.125 310.312 142.562 312.297 143.438 313.672C144.323 315.047 145.604 315.734 147.281 315.734C148.948 315.734 150.208 315.062 151.062 313.719C151.927 312.375 152.365 310.406 152.375 307.812V303.438ZM172.172 307.75H164.688V306.172H172.172V307.75ZM197.25 317H183V315.562L190.797 306.719C192.089 305.229 192.984 304 193.484 303.031C193.984 302.062 194.234 301.12 194.234 300.203C194.234 298.766 193.812 297.63 192.969 296.797C192.125 295.953 190.964 295.531 189.484 295.531C187.953 295.531 186.714 296.021 185.766 297C184.828 297.979 184.359 299.25 184.359 300.812H182.5C182.5 299.531 182.786 298.365 183.359 297.312C183.943 296.26 184.766 295.438 185.828 294.844C186.901 294.24 188.12 293.938 189.484 293.938C191.568 293.938 193.193 294.484 194.359 295.578C195.536 296.672 196.125 298.161 196.125 300.047C196.125 301.109 195.792 302.271 195.125 303.531C194.469 304.792 193.307 306.365 191.641 308.25L185.297 315.422H197.25V317ZM214.469 307.516C214.469 310.724 213.88 313.161 212.703 314.828C211.526 316.484 209.792 317.312 207.5 317.312C205.25 317.312 203.526 316.5 202.328 314.875C201.13 313.24 200.516 310.865 200.484 307.75V303.672C200.484 300.474 201.078 298.052 202.266 296.406C203.453 294.76 205.188 293.938 207.469 293.938C209.719 293.938 211.438 294.734 212.625 296.328C213.812 297.911 214.427 300.25 214.469 303.344V307.516ZM212.594 303.438C212.594 300.833 212.167 298.865 211.312 297.531C210.469 296.198 209.188 295.531 207.469 295.531C205.781 295.531 204.51 296.182 203.656 297.484C202.802 298.786 202.365 300.708 202.344 303.25V307.719C202.344 310.312 202.781 312.297 203.656 313.672C204.542 315.047 205.823 315.734 207.5 315.734C209.167 315.734 210.427 315.062 211.281 313.719C212.146 312.375 212.583 310.406 212.594 307.812V303.438ZM232.75 317H218.5V315.562L226.297 306.719C227.589 305.229 228.484 304 228.984 303.031C229.484 302.062 229.734 301.12 229.734 300.203C229.734 298.766 229.312 297.63 228.469 296.797C227.625 295.953 226.464 295.531 224.984 295.531C223.453 295.531 222.214 296.021 221.266 297C220.328 297.979 219.859 299.25 219.859 300.812H218C218 299.531 218.286 298.365 218.859 297.312C219.443 296.26 220.266 295.438 221.328 294.844C222.401 294.24 223.62 293.938 224.984 293.938C227.068 293.938 228.693 294.484 229.859 295.578C231.036 296.672 231.625 298.161 231.625 300.047C231.625 301.109 231.292 302.271 230.625 303.531C229.969 304.792 228.807 306.365 227.141 308.25L220.797 315.422H232.75V317ZM249.969 307.516C249.969 310.724 249.38 313.161 248.203 314.828C247.026 316.484 245.292 317.312 243 317.312C240.75 317.312 239.026 316.5 237.828 314.875C236.63 313.24 236.016 310.865 235.984 307.75V303.672C235.984 300.474 236.578 298.052 237.766 296.406C238.953 294.76 240.688 293.938 242.969 293.938C245.219 293.938 246.938 294.734 248.125 296.328C249.312 297.911 249.927 300.25 249.969 303.344V307.516ZM248.094 303.438C248.094 300.833 247.667 298.865 246.812 297.531C245.969 296.198 244.688 295.531 242.969 295.531C241.281 295.531 240.01 296.182 239.156 297.484C238.302 298.786 237.865 300.708 237.844 303.25V307.719C237.844 310.312 238.281 312.297 239.156 313.672C240.042 315.047 241.323 315.734 243 315.734C244.667 315.734 245.927 315.062 246.781 313.719C247.646 312.375 248.083 310.406 248.094 307.812V303.438Z" fill="#F4F4F4"/>
<path d="M424.031 317H409.781V315.562L417.578 306.719C418.87 305.229 419.766 304 420.266 303.031C420.766 302.062 421.016 301.12 421.016 300.203C421.016 298.766 420.594 297.63 419.75 296.797C418.906 295.953 417.745 295.531 416.266 295.531C414.734 295.531 413.495 296.021 412.547 297C411.609 297.979 411.141 299.25 411.141 300.812H409.281C409.281 299.531 409.568 298.365 410.141 297.312C410.724 296.26 411.547 295.438 412.609 294.844C413.682 294.24 414.901 293.938 416.266 293.938C418.349 293.938 419.974 294.484 421.141 295.578C422.318 296.672 422.906 298.161 422.906 300.047C422.906 301.109 422.573 302.271 421.906 303.531C421.25 304.792 420.089 306.365 418.422 308.25L412.078 315.422H424.031V317ZM441.25 307.516C441.25 310.724 440.661 313.161 439.484 314.828C438.307 316.484 436.573 317.312 434.281 317.312C432.031 317.312 430.307 316.5 429.109 314.875C427.911 313.24 427.297 310.865 427.266 307.75V303.672C427.266 300.474 427.859 298.052 429.047 296.406C430.234 294.76 431.969 293.938 434.25 293.938C436.5 293.938 438.219 294.734 439.406 296.328C440.594 297.911 441.208 300.25 441.25 303.344V307.516ZM439.375 303.438C439.375 300.833 438.948 298.865 438.094 297.531C437.25 296.198 435.969 295.531 434.25 295.531C432.562 295.531 431.292 296.182 430.438 297.484C429.583 298.786 429.146 300.708 429.125 303.25V307.719C429.125 310.312 429.562 312.297 430.438 313.672C431.323 315.047 432.604 315.734 434.281 315.734C435.948 315.734 437.208 315.062 438.062 313.719C438.927 312.375 439.365 310.406 439.375 307.812V303.438ZM459.531 317H445.281V315.562L453.078 306.719C454.37 305.229 455.266 304 455.766 303.031C456.266 302.062 456.516 301.12 456.516 300.203C456.516 298.766 456.094 297.63 455.25 296.797C454.406 295.953 453.245 295.531 451.766 295.531C450.234 295.531 448.995 296.021 448.047 297C447.109 297.979 446.641 299.25 446.641 300.812H444.781C444.781 299.531 445.068 298.365 445.641 297.312C446.224 296.26 447.047 295.438 448.109 294.844C449.182 294.24 450.401 293.938 451.766 293.938C453.849 293.938 455.474 294.484 456.641 295.578C457.818 296.672 458.406 298.161 458.406 300.047C458.406 301.109 458.073 302.271 457.406 303.531C456.75 304.792 455.589 306.365 453.922 308.25L447.578 315.422H459.531V317ZM476.75 307.516C476.75 310.724 476.161 313.161 474.984 314.828C473.807 316.484 472.073 317.312 469.781 317.312C467.531 317.312 465.807 316.5 464.609 314.875C463.411 313.24 462.797 310.865 462.766 307.75V303.672C462.766 300.474 463.359 298.052 464.547 296.406C465.734 294.76 467.469 293.938 469.75 293.938C472 293.938 473.719 294.734 474.906 296.328C476.094 297.911 476.708 300.25 476.75 303.344V307.516ZM474.875 303.438C474.875 300.833 474.448 298.865 473.594 297.531C472.75 296.198 471.469 295.531 469.75 295.531C468.062 295.531 466.792 296.182 465.938 297.484C465.083 298.786 464.646 300.708 464.625 303.25V307.719C464.625 310.312 465.062 312.297 465.938 313.672C466.823 315.047 468.104 315.734 469.781 315.734C471.448 315.734 472.708 315.062 473.562 313.719C474.427 312.375 474.865 310.406 474.875 307.812V303.438ZM494.672 307.75H487.188V306.172H494.672V307.75ZM519.75 317H505.5V315.562L513.297 306.719C514.589 305.229 515.484 304 515.984 303.031C516.484 302.062 516.734 301.12 516.734 300.203C516.734 298.766 516.312 297.63 515.469 296.797C514.625 295.953 513.464 295.531 511.984 295.531C510.453 295.531 509.214 296.021 508.266 297C507.328 297.979 506.859 299.25 506.859 300.812H505C505 299.531 505.286 298.365 505.859 297.312C506.443 296.26 507.266 295.438 508.328 294.844C509.401 294.24 510.62 293.938 511.984 293.938C514.068 293.938 515.693 294.484 516.859 295.578C518.036 296.672 518.625 298.161 518.625 300.047C518.625 301.109 518.292 302.271 517.625 303.531C516.969 304.792 515.807 306.365 514.141 308.25L507.797 315.422H519.75V317ZM536.969 307.516C536.969 310.724 536.38 313.161 535.203 314.828C534.026 316.484 532.292 317.312 530 317.312C527.75 317.312 526.026 316.5 524.828 314.875C523.63 313.24 523.016 310.865 522.984 307.75V303.672C522.984 300.474 523.578 298.052 524.766 296.406C525.953 294.76 527.688 293.938 529.969 293.938C532.219 293.938 533.938 294.734 535.125 296.328C536.312 297.911 536.927 300.25 536.969 303.344V307.516ZM535.094 303.438C535.094 300.833 534.667 298.865 533.812 297.531C532.969 296.198 531.688 295.531 529.969 295.531C528.281 295.531 527.01 296.182 526.156 297.484C525.302 298.786 524.865 300.708 524.844 303.25V307.719C524.844 310.312 525.281 312.297 526.156 313.672C527.042 315.047 528.323 315.734 530 315.734C531.667 315.734 532.927 315.062 533.781 313.719C534.646 312.375 535.083 310.406 535.094 307.812V303.438ZM545.156 304.609H547.094C548.167 304.609 549.104 304.422 549.906 304.047C550.708 303.661 551.318 303.141 551.734 302.484C552.161 301.818 552.375 301.052 552.375 300.188C552.375 298.729 551.964 297.589 551.141 296.766C550.318 295.943 549.135 295.531 547.594 295.531C546.135 295.531 544.938 295.964 544 296.828C543.073 297.682 542.609 298.812 542.609 300.219H540.734C540.734 299.042 541.031 297.969 541.625 297C542.219 296.021 543.042 295.266 544.094 294.734C545.146 294.203 546.312 293.938 547.594 293.938C549.656 293.938 551.281 294.5 552.469 295.625C553.656 296.75 554.25 298.292 554.25 300.25C554.25 301.344 553.901 302.354 553.203 303.281C552.516 304.198 551.568 304.885 550.359 305.344C551.776 305.74 552.849 306.422 553.578 307.391C554.307 308.349 554.672 309.495 554.672 310.828C554.672 312.776 554.036 314.344 552.766 315.531C551.495 316.719 549.797 317.312 547.672 317.312C546.318 317.312 545.073 317.042 543.938 316.5C542.812 315.958 541.938 315.203 541.312 314.234C540.698 313.255 540.391 312.12 540.391 310.828H542.266C542.266 312.276 542.771 313.458 543.781 314.375C544.792 315.281 546.089 315.734 547.672 315.734C549.286 315.734 550.542 315.323 551.438 314.5C552.344 313.667 552.797 312.464 552.797 310.891C552.797 309.37 552.307 308.208 551.328 307.406C550.359 306.604 548.927 306.203 547.031 306.203H545.156V304.609ZM572.469 307.516C572.469 310.724 571.88 313.161 570.703 314.828C569.526 316.484 567.792 317.312 565.5 317.312C563.25 317.312 561.526 316.5 560.328 314.875C559.13 313.24 558.516 310.865 558.484 307.75V303.672C558.484 300.474 559.078 298.052 560.266 296.406C561.453 294.76 563.188 293.938 565.469 293.938C567.719 293.938 569.438 294.734 570.625 296.328C571.812 297.911 572.427 300.25 572.469 303.344V307.516ZM570.594 303.438C570.594 300.833 570.167 298.865 569.312 297.531C568.469 296.198 567.188 295.531 565.469 295.531C563.781 295.531 562.51 296.182 561.656 297.484C560.802 298.786 560.365 300.708 560.344 303.25V307.719C560.344 310.312 560.781 312.297 561.656 313.672C562.542 315.047 563.823 315.734 565.5 315.734C567.167 315.734 568.427 315.062 569.281 313.719C570.146 312.375 570.583 310.406 570.594 307.812V303.438Z" fill="#F4F4F4"/>
<path d="M6 269C20.887 244.054 43.9617 190.668 71.3165 190.668C98.6713 190.668 112.628 229.585 148.357 229.585C189.668 229.585 214.79 164.225 255.543 154.247C296.296 144.268 321.393 172.02 332 181.5" stroke="#F4F4F4" stroke-width="3" stroke-linecap="round" stroke-linejoin="round"/>
<path d="M336 183C350.655 199.418 373.37 234.552 400.299 234.552C427.228 234.552 440.967 208.94 476.139 208.94C516.807 208.94 541.537 251.954 581.656 258.522C621.774 265.089 641.558 248.014 652 241.776" stroke="#44639E" stroke-width="3" stroke-linecap="round" stroke-linejoin="round" stroke-dasharray="10 10 10 10 10 10"/>
<path d="M652 260C637.349 219.554 614.641 133 587.721 133C560.8 133 547.065 196.096 511.904 196.096C471.248 196.096 463.954 176.816 423.848 160.637C383.742 144.458 365.164 189.242 335 181.714" stroke="#44639E" stroke-width="3" stroke-linecap="round" stroke-linejoin="round" stroke-dasharray="10 10 10 10 10 10"/>
<path d="M653.5 43.5C646.351 76.2718 620.305 185 583.46 185C546.616 185 529.08 28 493.825 28C453.06 28 458.15 131.676 417.937 89.733C377.723 47.7904 362.745 200.515 332.5 181" stroke="#44639E" stroke-width="3" stroke-linecap="round" stroke-linejoin="round" stroke-dasharray="10 10 10 10 10 10"/>
<path d="M332 21L332 310" stroke="#4F4F4F" stroke-width="3"/>
</g>
<defs>
<clipPath id="clip0">
<rect width="657" height="328" fill="white"/>
</clipPath>
</defs>
</svg>
