<svg width="657" height="320" viewBox="0 0 657 320" fill="none" xmlns="http://www.w3.org/2000/svg">
<g clip-path="url(#clip0)">
<path d="M20.2148 238.071C20.2148 239.06 19.9714 239.955 19.4844 240.757C18.9974 241.552 18.3206 242.171 17.4541 242.615C16.5804 243.059 15.6029 243.281 14.5215 243.281L14.0596 243.281C12.9424 243.281 11.9362 243.066 11.041 242.637C10.1458 242.2 9.44401 241.595 8.93555 240.821C8.41992 240.048 8.16211 239.21 8.16211 238.308C8.16211 236.897 8.64551 235.78 9.6123 234.956C10.5719 234.125 11.8861 233.71 13.5547 233.71L14.2744 233.71L14.2744 242.003L14.5215 242.003C15.8392 242.003 16.9385 241.627 17.8193 240.875C18.693 240.116 19.1299 239.163 19.1299 238.018C19.1299 237.33 19.0046 236.725 18.7539 236.202C18.5033 235.672 18.1022 235.192 17.5508 234.763L18.1631 233.957C19.5309 234.902 20.2148 236.274 20.2148 238.071ZM9.25781 238.308C9.25781 239.274 9.6123 240.091 10.3213 240.757C11.0303 241.416 11.9827 241.817 13.1787 241.96L13.1787 234.988L13.0391 234.988C11.9219 235.024 11.0124 235.343 10.3105 235.944C9.60872 236.546 9.25781 237.334 9.25781 238.308ZM17.0459 224.246C16.4085 224.246 15.8965 224.504 15.5098 225.02C15.123 225.528 14.8223 226.298 14.6074 227.329C14.3854 228.36 14.1348 229.162 13.8555 229.735C13.569 230.301 13.2217 230.724 12.8135 231.003C12.4053 231.275 11.9111 231.411 11.3311 231.411C10.4144 231.411 9.65885 231.028 9.06445 230.262C8.46289 229.495 8.16211 228.514 8.16211 227.318C8.16211 226.022 8.48437 224.984 9.1289 224.203C9.76627 223.415 10.6006 223.021 11.6318 223.021L11.6318 224.311C10.9515 224.311 10.3857 224.597 9.93457 225.17C9.4834 225.736 9.25781 226.452 9.25781 227.318C9.25781 228.163 9.44759 228.844 9.82715 229.359C10.1995 229.868 10.6865 230.122 11.2881 230.122C11.8682 230.122 12.3193 229.911 12.6416 229.488C12.9567 229.059 13.2467 228.282 13.5117 227.157C13.7767 226.026 14.0596 225.181 14.3603 224.622C14.6611 224.056 15.0228 223.637 15.4453 223.365C15.8678 223.093 16.3799 222.957 16.9814 222.957C17.9626 222.957 18.7467 223.354 19.334 224.149C19.9212 224.937 20.2148 225.968 20.2148 227.243C20.2148 228.597 19.889 229.696 19.2373 230.541C18.5784 231.379 17.7477 231.798 16.7451 231.798L16.7451 230.509C17.4971 230.459 18.0843 230.144 18.5068 229.563C18.9222 228.976 19.1299 228.203 19.1299 227.243C19.1299 226.348 18.9329 225.625 18.5391 225.073C18.1452 224.522 17.6475 224.246 17.0459 224.246ZM20 219.133L9.42969 219.133L9.42969 221.056L8.37695 221.056L8.37695 219.133L6.96972 219.133C5.78092 219.133 4.86784 218.832 4.23047 218.23C3.5931 217.622 3.27441 216.777 3.27441 215.695C3.27441 215.208 3.33528 214.754 3.45703 214.331L4.53125 214.428C4.44531 214.786 4.40234 215.176 4.40234 215.599C4.40234 216.308 4.62435 216.859 5.06836 217.253C5.50521 217.647 6.12825 217.844 6.9375 217.844L8.37695 217.844L8.37695 215.072L9.42969 215.072L9.42969 217.844L20 217.844L20 219.133ZM18.5283 205.297C19.6527 206.07 20.2148 207.306 20.2148 209.003C20.2148 210.242 19.8568 211.184 19.1406 211.828C18.4173 212.473 17.3503 212.802 15.9395 212.816L8.37695 212.816L8.37695 211.538L15.7783 211.538C17.9912 211.538 19.0977 210.643 19.0977 208.853C19.0977 206.991 18.3278 205.812 16.7881 205.318L8.37695 205.318L8.37695 204.029L20 204.029L20 205.275L18.5283 205.297ZM20.2148 196.177C20.2148 197.165 19.9714 198.06 19.4844 198.862C18.9974 199.657 18.3206 200.277 17.4541 200.721C16.5804 201.165 15.6029 201.387 14.5215 201.387L14.0596 201.387C12.9424 201.387 11.9362 201.172 11.041 200.742C10.1458 200.305 9.44401 199.7 8.93554 198.927C8.41992 198.153 8.16211 197.315 8.16211 196.413C8.16211 195.002 8.6455 193.885 9.6123 193.062C10.5719 192.231 11.8861 191.815 13.5547 191.815L14.2744 191.815L14.2744 200.108L14.5215 200.108C15.8392 200.108 16.9385 199.732 17.8193 198.98C18.693 198.221 19.1299 197.269 19.1299 196.123C19.1299 195.436 19.0046 194.83 18.7539 194.308C18.5033 193.778 18.1022 193.298 17.5508 192.868L18.1631 192.062C19.5309 193.008 20.2148 194.379 20.2148 196.177ZM9.25781 196.413C9.25781 197.38 9.6123 198.196 10.3213 198.862C11.0303 199.521 11.9827 199.922 13.1787 200.065L13.1787 193.094L13.0391 193.094C11.9219 193.13 11.0124 193.448 10.3105 194.05C9.60872 194.651 9.25781 195.439 9.25781 196.413ZM9.47265 183.941C9.42252 184.214 9.39746 184.504 9.39746 184.812C9.39746 185.614 9.62304 186.294 10.0742 186.853C10.5182 187.404 11.1663 187.798 12.0186 188.034L20 188.034L20 189.312L8.37695 189.312L8.37695 188.056L10.2246 188.034C8.84961 187.354 8.16211 186.262 8.16211 184.758C8.16211 184.4 8.20866 184.117 8.30175 183.909L9.47265 183.941ZM18.915 181.052L18.915 173.5L20 173.5L20 182.642L19.0547 182.642L9.48339 175.595L9.48339 182.427L8.37695 182.427L8.37695 173.973L9.333 173.973L18.915 181.052ZM14.0166 172.082C12.8994 172.082 11.8932 171.867 10.998 171.437C10.1029 171.001 9.4082 170.388 8.91406 169.601C8.41276 168.806 8.16211 167.907 8.16211 166.904C8.16211 165.357 8.70638 164.104 9.79492 163.145C10.8763 162.185 12.3122 161.705 14.1025 161.705L14.3711 161.705C15.4954 161.705 16.5088 161.924 17.4111 162.36C18.3063 162.79 18.9974 163.399 19.4844 164.187C19.9713 164.974 20.2148 165.873 20.2148 166.883C20.2148 168.423 19.6741 169.676 18.5928 170.643C17.5042 171.602 16.0648 172.082 14.2744 172.082L14.0166 172.082ZM14.3711 170.793C15.7604 170.793 16.9027 170.435 17.7978 169.719C18.6859 168.995 19.1299 168.05 19.1299 166.883C19.1299 165.723 18.6859 164.785 17.7978 164.068C16.9027 163.345 15.7246 162.983 14.2637 162.983L14.0166 162.983C13.1286 162.983 12.3158 163.148 11.5781 163.478C10.8405 163.807 10.2712 164.269 9.87011 164.863C9.46191 165.458 9.25781 166.138 9.25781 166.904C9.25781 168.05 9.70898 168.985 10.6113 169.708C11.5065 170.431 12.681 170.793 14.1348 170.793L14.3711 170.793ZM20.2148 149.19C20.2148 150.179 19.9713 151.074 19.4844 151.876C18.9974 152.671 18.3206 153.29 17.4541 153.734C16.5804 154.178 15.6029 154.4 14.5215 154.4L14.0596 154.4C12.9424 154.4 11.9362 154.186 11.041 153.756C10.1458 153.319 9.44401 152.714 8.93554 151.94C8.41992 151.167 8.1621 150.329 8.1621 149.427C8.1621 148.016 8.6455 146.899 9.6123 146.075C10.5719 145.244 11.8861 144.829 13.5547 144.829L14.2744 144.829L14.2744 153.122L14.5215 153.122C15.8392 153.122 16.9385 152.746 17.8193 151.994C18.693 151.235 19.1299 150.283 19.1299 149.137C19.1299 148.449 19.0046 147.844 18.7539 147.321C18.5033 146.791 18.1022 146.312 17.5508 145.882L18.1631 145.076C19.5309 146.021 20.2148 147.393 20.2148 149.19ZM9.25781 149.427C9.25781 150.394 9.6123 151.21 10.3213 151.876C11.0303 152.535 11.9827 152.936 13.1787 153.079L13.1787 146.107L13.0391 146.107C11.9219 146.143 11.0124 146.462 10.3105 147.063C9.60872 147.665 9.25781 148.453 9.25781 149.427ZM17.0459 135.365C16.4085 135.365 15.8965 135.623 15.5098 136.139C15.123 136.647 14.8223 137.417 14.6074 138.448C14.3854 139.479 14.1348 140.282 13.8555 140.854C13.569 141.42 13.2217 141.843 12.8135 142.122C12.4053 142.394 11.9111 142.53 11.331 142.53C10.4144 142.53 9.65885 142.147 9.06445 141.381C8.46289 140.615 8.1621 139.633 8.1621 138.437C8.1621 137.141 8.48437 136.103 9.1289 135.322C9.76627 134.535 10.6006 134.141 11.6318 134.141L11.6318 135.43C10.9515 135.43 10.3857 135.716 9.93456 136.289C9.48339 136.855 9.25781 137.571 9.25781 138.437C9.25781 139.283 9.44759 139.963 9.82714 140.479C10.1995 140.987 10.6865 141.241 11.2881 141.241C11.8682 141.241 12.3193 141.03 12.6416 140.607C12.9567 140.178 13.2467 139.401 13.5117 138.276C13.7767 137.145 14.0596 136.3 14.3603 135.741C14.6611 135.175 15.0228 134.757 15.4453 134.484C15.8678 134.212 16.3799 134.076 16.9814 134.076C17.9626 134.076 18.7467 134.474 19.334 135.269C19.9212 136.056 20.2148 137.088 20.2148 138.362C20.2148 139.716 19.889 140.815 19.2373 141.66C18.5784 142.498 17.7477 142.917 16.7451 142.917L16.7451 141.628C17.4971 141.578 18.0843 141.263 18.5068 140.683C18.9222 140.095 19.1299 139.322 19.1299 138.362C19.1299 137.467 18.9329 136.744 18.5391 136.192C18.1452 135.641 17.6475 135.365 17.0459 135.365ZM5.40136 129.178L8.37695 129.178L8.37695 126.771L9.42968 126.771L9.42968 129.178L17.1748 129.178C17.8193 129.178 18.2991 129.063 18.6143 128.834C18.9294 128.598 19.0869 128.207 19.0869 127.663C19.0869 127.448 19.0511 127.101 18.9795 126.621L20.0322 126.567C20.154 126.904 20.2148 127.362 20.2148 127.942C20.2148 128.823 19.9606 129.464 19.4521 129.865C18.9365 130.266 18.181 130.467 17.1855 130.467L9.42968 130.467L9.42968 132.604L8.37695 132.604L8.37695 130.467L5.40136 130.467L5.40136 129.178ZM9.47265 118.736C9.42252 119.008 9.39745 119.299 9.39745 119.606C9.39745 120.409 9.62304 121.089 10.0742 121.647C10.5182 122.199 11.1663 122.593 12.0185 122.829L20 122.829L20 124.107L8.37695 124.107L8.37695 122.851L10.2246 122.829C8.8496 122.149 8.1621 121.057 8.1621 119.553C8.1621 119.195 8.20865 118.912 8.30175 118.704L9.47265 118.736ZM20 109.788C19.6348 109.917 19.0941 109.999 18.3779 110.035C18.9652 110.486 19.4199 111.063 19.7422 111.765C20.0573 112.459 20.2148 113.197 20.2148 113.978C20.2148 115.095 19.9033 116.001 19.2803 116.695C18.6572 117.383 17.8695 117.727 16.917 117.727C15.7855 117.727 14.8903 117.257 14.2314 116.319C13.5726 115.374 13.2432 114.06 13.2432 112.377L13.2432 110.046L11.9219 110.046C11.0911 110.046 10.4394 110.304 9.96679 110.819C9.48697 111.328 9.24706 112.073 9.24706 113.054C9.24706 113.949 9.47623 114.69 9.93456 115.277C10.3929 115.865 10.9443 116.158 11.5889 116.158L11.5781 117.447C10.6543 117.447 9.85579 117.018 9.18261 116.158C8.50227 115.299 8.1621 114.243 8.1621 112.989C8.1621 111.693 8.48795 110.673 9.13964 109.928C9.78417 109.176 10.6865 108.789 11.8467 108.768L17.3467 108.768C18.471 108.768 19.3125 108.649 19.8711 108.413L20 108.413L20 109.788ZM19.0762 113.827C19.0762 112.968 18.8685 112.201 18.4531 111.528C18.0378 110.848 17.4827 110.354 16.7881 110.046L14.2314 110.046L14.2314 112.345C14.2458 113.627 14.4821 114.629 14.9404 115.353C15.3916 116.076 16.0146 116.437 16.8096 116.437C17.4613 116.437 18.0019 116.198 18.4316 115.718C18.8613 115.231 19.0762 114.601 19.0762 113.827ZM5.40136 103.332L8.37695 103.332L8.37695 100.926L9.42968 100.926L9.42968 103.332L17.1748 103.332C17.8193 103.332 18.2991 103.217 18.6143 102.988C18.9294 102.752 19.0869 102.362 19.0869 101.817C19.0869 101.603 19.0511 101.255 18.9795 100.775L20.0322 100.722C20.154 101.058 20.2148 101.517 20.2148 102.097C20.2148 102.978 19.9606 103.618 19.4521 104.02C18.9365 104.421 18.181 104.621 17.1855 104.621L9.42968 104.621L9.42968 106.759L8.37695 106.759L8.37695 104.621L5.40136 104.621L5.40136 103.332ZM20.2148 93.7607C20.2148 94.749 19.9713 95.6442 19.4844 96.4463C18.9974 97.2412 18.3206 97.8607 17.4541 98.3047C16.5804 98.7487 15.6029 98.9707 14.5215 98.9707L14.0596 98.9707C12.9424 98.9707 11.9362 98.7559 11.041 98.3262C10.1458 97.8893 9.444 97.2842 8.93554 96.5107C8.41991 95.7373 8.1621 94.8994 8.1621 93.9971C8.1621 92.5863 8.6455 91.4691 9.6123 90.6455C10.5719 89.8148 11.8861 89.3994 13.5547 89.3994L14.2744 89.3994L14.2744 97.6924L14.5215 97.6924C15.8392 97.6924 16.9385 97.3164 17.8193 96.5645C18.693 95.8053 19.1299 94.8529 19.1299 93.707C19.1299 93.0195 19.0045 92.4144 18.7539 91.8916C18.5032 91.3617 18.1022 90.8818 17.5508 90.4521L18.1631 89.6465C19.5309 90.5918 20.2148 91.9632 20.2148 93.7607ZM9.25781 93.9971C9.25781 94.9639 9.6123 95.7803 10.3213 96.4463C11.0303 97.1051 11.9827 97.5062 13.1787 97.6494L13.1787 90.6777L13.0391 90.6777C11.9219 90.7135 11.0124 91.0322 10.3105 91.6338C9.60872 92.2354 9.2578 93.0231 9.25781 93.9971ZM3.49999 92.5684L3.49999 91.0107L6.5078 93.4922L6.50781 94.6201L3.49999 92.5684ZM14.081 87.4121C12.262 87.4121 10.8226 87.0111 9.76269 86.209C8.69563 85.3997 8.1621 84.304 8.1621 82.9219C8.1621 81.3392 8.79231 80.1361 10.0527 79.3125L8.37694 79.248L8.37694 78.0449L19.7637 78.0449C21.2604 78.0449 22.4456 78.4639 23.3193 79.3018C24.193 80.1396 24.6299 81.2747 24.6299 82.707C24.6299 83.5163 24.4473 84.2897 24.082 85.0273C23.724 85.7578 23.2441 86.3343 22.6426 86.7568L21.8691 86.0371C22.9863 85.1276 23.5449 84.0462 23.5449 82.793C23.5449 81.7187 23.2262 80.8809 22.5889 80.2793C21.9587 79.6777 21.0814 79.3662 19.957 79.3447L18.4961 79.3447C19.6419 80.1683 20.2148 81.3678 20.2148 82.9434C20.2148 84.2897 19.6777 85.3711 18.6035 86.1875C17.5293 87.0039 16.0791 87.4121 14.2529 87.4121L14.081 87.4121ZM14.3066 86.1123C15.7891 86.1123 16.96 85.8151 17.8193 85.2207C18.6715 84.6263 19.0976 83.7884 19.0976 82.707C19.0976 81.1243 18.3887 80.0036 16.9707 79.3447L11.5674 79.3447C10.8226 79.6455 10.2568 80.0788 9.87011 80.6445C9.47623 81.2103 9.27929 81.8906 9.27929 82.6855C9.27929 83.7669 9.7054 84.6084 10.5576 85.21C11.4027 85.8115 12.6523 86.1123 14.3066 86.1123ZM20 73.2539L20 74.543L8.37694 74.543L8.37694 73.2539L20 73.2539ZM5.01464 74.7686C4.77115 74.7686 4.56705 74.6898 4.40234 74.5322C4.23046 74.3747 4.14452 74.1598 4.14452 73.8877C4.14452 73.6156 4.23046 73.4007 4.40234 73.2432C4.56705 73.0785 4.77115 72.9961 5.01464 72.9961C5.25813 72.9961 5.46223 73.0785 5.62694 73.2432C5.79166 73.4007 5.87402 73.6156 5.87402 73.8877C5.87402 74.1598 5.79166 74.3747 5.62694 74.5322C5.46223 74.6898 5.25813 74.7686 5.01464 74.7686ZM19.1299 65.4551C19.1299 64.5599 18.8792 63.8115 18.3779 63.21C17.8695 62.6012 17.2142 62.2718 16.4121 62.2217L16.4121 60.9863C17.1211 61.0221 17.7692 61.2441 18.3564 61.6523C18.9365 62.0605 19.3913 62.6048 19.7207 63.2852C20.0501 63.9583 20.2148 64.6816 20.2148 65.4551C20.2148 66.9805 19.6849 68.1908 18.625 69.0859C17.5651 69.974 16.14 70.418 14.3496 70.418L13.9629 70.418C12.817 70.418 11.8037 70.2174 10.9228 69.8164C10.042 69.4154 9.36165 68.8424 8.88183 68.0977C8.40201 67.3457 8.1621 66.4684 8.1621 65.4658C8.1621 64.1911 8.54166 63.1419 9.30077 62.3184C10.0599 61.4876 11.0589 61.0436 12.2978 60.9863L12.2978 62.2217C11.3883 62.279 10.6543 62.6084 10.0957 63.21C9.5371 63.8044 9.2578 64.5563 9.2578 65.4658C9.2578 66.626 9.67675 67.5283 10.5146 68.1729C11.3525 68.8102 12.527 69.1289 14.0381 69.1289L14.4141 69.1289C15.8965 69.1289 17.0531 68.8102 17.8838 68.1729C18.7145 67.5283 19.1299 66.6224 19.1299 65.4551ZM14.0166 59.1172C12.8994 59.1172 11.8932 58.9023 10.998 58.4727C10.1029 58.0358 9.40819 57.4235 8.91405 56.6357C8.41275 55.8408 8.1621 54.9421 8.1621 53.9395C8.1621 52.3926 8.70637 51.1393 9.79491 50.1797C10.8763 49.2201 12.3122 48.7402 14.1025 48.7402L14.3711 48.7402C15.4954 48.7402 16.5088 48.9587 17.4111 49.3955C18.3063 49.8252 18.9974 50.4339 19.4844 51.2217C19.9713 52.0094 20.2148 52.9082 20.2148 53.918C20.2148 55.4577 19.6741 56.7109 18.5928 57.6777C17.5042 58.6374 16.0648 59.1172 14.2744 59.1172L14.0166 59.1172ZM14.3711 57.8281C15.7604 57.8281 16.9027 57.4701 17.7978 56.7539C18.6859 56.0306 19.1299 55.0853 19.1299 53.918C19.1299 52.7578 18.6859 51.8197 17.7978 51.1035C16.9027 50.3802 15.7246 50.0186 14.2637 50.0186L14.0166 50.0186C13.1286 50.0186 12.3157 50.1833 11.5781 50.5127C10.8405 50.8421 10.2711 51.304 9.87011 51.8984C9.4619 52.4928 9.2578 53.1732 9.2578 53.9395C9.2578 55.0853 9.70898 56.0199 10.6113 56.7432C11.5065 57.4665 12.681 57.8281 14.1348 57.8281L14.3711 57.8281Z" fill="#F4F4F4"/>
<path d="M121.728 138.205C121.531 138.341 121.339 138.503 121.151 138.691C120.661 139.181 120.383 139.734 120.318 140.35C120.252 140.958 120.407 141.595 120.784 142.259L125.658 147.134L124.877 147.914L117.779 140.816L118.547 140.049L119.688 141.164C119.264 139.909 119.511 138.822 120.429 137.904C120.648 137.685 120.849 137.541 121.033 137.471L121.728 138.205ZM132.152 140.902C131.549 141.505 130.853 141.903 130.066 142.095C129.283 142.284 128.492 142.249 127.691 141.99C126.887 141.728 126.154 141.267 125.494 140.606L125.212 140.324C124.529 139.642 124.046 138.896 123.762 138.087C123.482 137.274 123.423 136.476 123.585 135.693C123.742 134.906 124.096 134.236 124.647 133.685C125.509 132.824 126.486 132.437 127.58 132.524C128.673 132.603 129.729 133.152 130.748 134.171L131.188 134.61L126.123 139.675L126.274 139.826C127.079 140.63 127.98 141.072 128.977 141.151C129.974 141.221 130.823 140.906 131.522 140.206C131.942 139.786 132.235 139.34 132.401 138.868C132.572 138.391 132.62 137.853 132.546 137.254L133.412 137.136C133.67 138.549 133.25 139.804 132.152 140.902ZM125.317 134.355C124.726 134.945 124.444 135.66 124.47 136.5C124.501 137.335 124.838 138.162 125.481 138.979L129.738 134.722L129.653 134.637C128.949 133.976 128.199 133.615 127.403 133.554C126.607 133.493 125.911 133.76 125.317 134.355ZM138.66 130.523C138.271 130.134 137.8 129.979 137.249 130.058C136.703 130.132 136.049 130.419 135.288 130.917C134.523 131.411 133.88 131.748 133.359 131.927C132.839 132.098 132.369 132.144 131.949 132.065C131.533 131.982 131.148 131.763 130.794 131.409C130.234 130.849 130.007 130.154 130.112 129.323C130.213 128.488 130.628 127.705 131.358 126.974C132.15 126.183 132.981 125.746 133.851 125.662C134.722 125.571 135.472 125.84 136.101 126.469L135.314 127.257C134.899 126.841 134.378 126.671 133.753 126.745C133.132 126.815 132.557 127.114 132.028 127.644C131.511 128.16 131.212 128.691 131.129 129.238C131.046 129.776 131.188 130.228 131.555 130.596C131.909 130.95 132.314 131.096 132.769 131.035C133.224 130.965 133.875 130.668 134.724 130.143C135.577 129.614 136.265 129.271 136.79 129.113C137.319 128.951 137.796 128.916 138.22 129.008C138.644 129.1 139.04 129.33 139.408 129.697C140.007 130.296 140.243 131.018 140.116 131.862C139.994 132.701 139.543 133.511 138.765 134.289C137.938 135.116 137.068 135.588 136.154 135.706C135.24 135.815 134.477 135.564 133.864 134.952L134.652 134.164C135.141 134.593 135.692 134.759 136.305 134.663C136.917 134.558 137.516 134.212 138.102 133.626C138.649 133.08 138.97 132.518 139.066 131.94C139.163 131.363 139.027 130.891 138.66 130.523ZM145.253 120.585C146.359 121.691 146.993 122.815 147.155 123.957C147.312 125.094 146.98 126.074 146.158 126.896C145.187 127.867 144.102 128.269 142.904 128.103L146.525 131.724L145.745 132.505L135.918 122.678L136.646 121.949L137.689 122.914C137.444 121.646 137.807 120.526 138.778 119.555C139.626 118.707 140.612 118.363 141.736 118.525C142.865 118.683 144 119.332 145.141 120.473L145.253 120.585ZM144.328 121.234C143.422 120.329 142.521 119.8 141.625 119.647C140.728 119.494 139.948 119.75 139.283 120.414C138.802 120.895 138.505 121.425 138.391 122.002C138.277 122.579 138.349 123.181 138.607 123.806L142.012 127.211C142.607 127.429 143.186 127.471 143.75 127.335C144.315 127.2 144.835 126.894 145.312 126.417C145.972 125.757 146.224 124.98 146.066 124.088C145.909 123.187 145.329 122.236 144.328 121.234ZM154.142 116.852C154.356 118.011 153.945 119.109 152.908 120.145C152.152 120.902 151.358 121.258 150.527 121.215C149.692 121.167 148.839 120.716 147.969 119.863L143.35 115.245L144.131 114.464L148.651 118.984C150.002 120.336 151.224 120.465 152.318 119.371C153.455 118.234 153.704 117.045 153.066 115.803L147.929 110.666L148.716 109.879L155.814 116.977L155.053 117.738L154.142 116.852ZM160.741 112.313C160.137 112.916 159.442 113.314 158.655 113.507C157.872 113.695 157.08 113.66 156.28 113.402C155.475 113.139 154.743 112.678 154.082 112.018L153.8 111.735C153.118 111.053 152.635 110.308 152.351 109.498C152.071 108.685 152.012 107.887 152.174 107.104C152.331 106.317 152.685 105.648 153.236 105.097C154.098 104.235 155.075 103.848 156.169 103.936C157.262 104.014 158.318 104.563 159.337 105.582L159.777 106.022L154.712 111.086L154.863 111.237C155.668 112.042 156.569 112.483 157.566 112.562C158.563 112.632 159.411 112.317 160.111 111.617C160.531 111.198 160.824 110.751 160.99 110.279C161.161 109.802 161.209 109.264 161.135 108.665L162 108.547C162.259 109.96 161.839 111.215 160.741 112.313ZM153.905 105.766C153.315 106.356 153.033 107.071 153.059 107.911C153.09 108.746 153.426 109.573 154.069 110.391L158.327 106.133L158.242 106.048C157.537 105.387 156.787 105.027 155.991 104.965C155.196 104.904 154.5 105.171 153.905 105.766ZM167.249 101.935C166.859 101.545 166.389 101.39 165.838 101.469C165.291 101.543 164.638 101.83 163.877 102.328C163.111 102.822 162.468 103.159 161.948 103.339C161.428 103.509 160.957 103.555 160.538 103.476C160.122 103.393 159.737 103.175 159.383 102.82C158.823 102.261 158.596 101.565 158.701 100.734C158.801 99.8989 159.217 99.1161 159.947 98.3857C160.739 97.5941 161.57 97.1568 162.44 97.0737C163.31 96.9818 164.06 97.2508 164.69 97.8806L163.903 98.6678C163.487 98.2523 162.967 98.0817 162.342 98.1561C161.721 98.2261 161.146 98.5256 160.616 99.0548C160.1 99.5709 159.801 100.102 159.718 100.649C159.634 101.187 159.777 101.639 160.144 102.007C160.498 102.361 160.903 102.508 161.358 102.446C161.812 102.376 162.464 102.079 163.313 101.554C164.165 101.025 164.854 100.682 165.379 100.524C165.908 100.362 166.385 100.327 166.809 100.419C167.233 100.511 167.629 100.741 167.996 101.108C168.596 101.707 168.832 102.429 168.705 103.273C168.582 104.113 168.132 104.922 167.354 105.7C166.527 106.527 165.657 106.999 164.743 107.117C163.829 107.226 163.065 106.975 162.453 106.363L163.24 105.576C163.73 106.004 164.281 106.17 164.893 106.074C165.506 105.969 166.105 105.624 166.691 105.038C167.238 104.491 167.559 103.929 167.655 103.352C167.751 102.774 167.616 102.302 167.249 101.935ZM163.916 91.045L165.733 92.8621L167.203 91.3927L167.846 92.0355L166.376 93.505L171.106 98.2348C171.499 98.6284 171.862 98.8515 172.195 98.9039C172.532 98.952 172.866 98.8099 173.199 98.4775C173.33 98.3463 173.52 98.1124 173.769 97.7756L174.445 98.3857C174.314 98.6656 174.071 98.9827 173.717 99.3369C173.179 99.8748 172.632 100.111 172.077 100.045C171.517 99.9754 170.933 99.6365 170.325 99.0286L165.589 94.2922L164.283 95.5977L163.641 94.9548L164.946 93.6493L163.129 91.8322L163.916 91.045ZM180.408 92.3832C180.106 92.2389 179.726 91.959 179.267 91.5435C179.35 92.1777 179.275 92.8074 179.044 93.4328C178.812 94.0495 178.458 94.5962 177.981 95.0729C177.299 95.7551 176.555 96.1181 175.75 96.1618C174.95 96.2012 174.259 95.93 173.677 95.3484C172.986 94.6574 172.726 93.8243 172.897 92.849C173.072 91.8694 173.673 90.8657 174.701 89.8379L176.124 88.4144L175.317 87.6075C174.81 87.1002 174.255 86.8596 173.651 86.8859C173.048 86.9034 172.446 87.2117 171.847 87.8109C171.3 88.3575 170.988 88.9501 170.909 89.5886C170.83 90.2272 170.988 90.7432 171.381 91.1368L170.588 91.9175C170.023 91.3533 169.798 90.6033 169.912 89.6674C170.021 88.7271 170.459 87.8743 171.224 87.1089C172.016 86.3173 172.838 85.8931 173.691 85.8363C174.543 85.7707 175.331 86.0856 176.052 86.7809L179.411 90.1397C180.098 90.8263 180.684 91.268 181.169 91.4648L181.248 91.5435L180.408 92.3832ZM177.377 94.2857C177.902 93.7608 178.243 93.1661 178.401 92.5013C178.562 91.8322 178.525 91.1915 178.289 90.5792L176.728 89.0179L175.324 90.4218C174.55 91.2134 174.082 91.9699 173.92 92.6916C173.754 93.4088 173.914 94.0101 174.399 94.4956C174.797 94.8936 175.274 95.0772 175.829 95.0466C176.389 95.0116 176.905 94.758 177.377 94.2857Z" fill="#F4F4F4"/>
<path d="M272.222 118.083C271.994 118.155 271.763 118.253 271.528 118.378C270.916 118.703 270.489 119.151 270.246 119.722C270.005 120.284 269.968 120.938 270.133 121.684L273.369 127.77L272.394 128.288L267.682 119.425L268.64 118.915L269.406 120.316C269.367 118.991 269.921 118.024 271.068 117.414C271.341 117.269 271.575 117.19 271.772 117.177L272.222 118.083ZM281.402 123.709C280.648 124.11 279.867 124.287 279.058 124.241C278.254 124.192 277.508 123.927 276.818 123.446C276.125 122.96 275.559 122.304 275.121 121.48L274.933 121.128C274.48 120.276 274.236 119.421 274.201 118.564C274.171 117.705 274.348 116.924 274.732 116.223C275.112 115.516 275.647 114.98 276.335 114.614C277.411 114.042 278.459 113.958 279.479 114.361C280.501 114.756 281.351 115.589 282.027 116.862L282.319 117.411L275.995 120.773L276.095 120.962C276.63 121.966 277.362 122.652 278.293 123.019C279.226 123.377 280.129 123.324 281.003 122.86C281.527 122.581 281.938 122.24 282.235 121.837C282.537 121.431 282.741 120.931 282.845 120.336L283.707 120.476C283.541 121.902 282.773 122.98 281.402 123.709ZM276.779 115.449C276.042 115.841 275.563 116.443 275.343 117.253C275.128 118.061 275.208 118.95 275.584 119.92L280.9 117.093L280.843 116.987C280.363 116.15 279.751 115.585 279.008 115.294C278.265 115.003 277.522 115.055 276.779 115.449ZM289.473 118.356C290.156 117.993 290.625 117.499 290.88 116.873C291.138 116.238 291.124 115.605 290.837 114.973L291.779 114.472C292.039 115.027 292.132 115.611 292.059 116.225C291.983 116.832 291.752 117.4 291.367 117.927C290.987 118.451 290.503 118.87 289.913 119.184C288.75 119.802 287.612 119.889 286.5 119.443C285.393 118.995 284.476 118.088 283.75 116.723L283.594 116.428C283.129 115.555 282.871 114.701 282.82 113.866C282.768 113.032 282.929 112.281 283.303 111.613C283.682 110.942 284.253 110.404 285.018 109.997C285.99 109.48 286.944 109.344 287.88 109.589C288.821 109.831 289.564 110.413 290.11 111.335L289.168 111.835C288.756 111.165 288.207 110.739 287.522 110.557C286.842 110.372 286.156 110.464 285.462 110.833C284.577 111.303 284.059 111.988 283.907 112.889C283.761 113.786 283.994 114.811 284.607 115.963L284.759 116.25C285.36 117.38 286.072 118.133 286.895 118.508C287.724 118.88 288.583 118.83 289.473 118.356ZM300.304 112.009C300.17 113.18 299.456 114.109 298.162 114.798C297.217 115.3 296.354 115.409 295.572 115.124C294.787 114.834 294.103 114.154 293.52 113.084L290.454 107.317L291.429 106.799L294.43 112.442C295.327 114.13 296.458 114.611 297.823 113.885C299.243 113.13 299.829 112.065 299.582 110.691L296.172 104.277L297.154 103.754L301.867 112.617L300.917 113.122L300.304 112.009ZM309.241 103.128C309.976 104.509 310.253 105.77 310.074 106.908C309.892 108.042 309.288 108.881 308.262 109.427C307.049 110.072 305.894 110.14 304.797 109.63L307.201 114.152L306.226 114.67L299.702 102.4L300.611 101.916L301.327 103.143C301.463 101.859 302.138 100.894 303.35 100.25C304.41 99.6864 305.453 99.6464 306.481 100.13C307.514 100.61 308.409 101.563 309.167 102.988L309.241 103.128ZM308.166 103.478C307.565 102.348 306.859 101.578 306.046 101.17C305.233 100.761 304.412 100.778 303.582 101.219C302.981 101.539 302.542 101.958 302.265 102.476C301.987 102.995 301.88 103.591 301.944 104.265L304.205 108.516C304.71 108.899 305.252 109.108 305.831 109.144C306.41 109.179 306.997 109.038 307.592 108.722C308.417 108.284 308.884 107.615 308.995 106.715C309.107 105.808 308.831 104.729 308.166 103.478ZM317.248 104.649C316.494 105.05 315.713 105.227 314.904 105.181C314.1 105.132 313.353 104.867 312.663 104.387C311.97 103.9 311.405 103.245 310.966 102.42L310.779 102.068C310.326 101.216 310.082 100.362 310.047 99.505C310.017 98.6453 310.194 97.8648 310.577 97.1634C310.958 96.4567 311.492 95.9203 312.181 95.5545C313.256 94.9825 314.304 94.8981 315.324 95.3014C316.347 95.6964 317.196 96.53 317.873 97.8024L318.165 98.3513L311.841 101.714L311.941 101.902C312.475 102.907 313.208 103.593 314.138 103.96C315.071 104.318 315.975 104.265 316.849 103.8C317.373 103.522 317.783 103.181 318.081 102.778C318.383 102.372 318.586 101.871 318.69 101.276L319.553 101.417C319.387 102.843 318.618 103.921 317.248 104.649ZM312.625 96.39C311.888 96.782 311.409 97.3833 311.188 98.194C310.973 99.0018 311.054 99.8907 311.429 100.861L316.746 98.034L316.689 97.9276C316.209 97.0902 315.597 96.5258 314.854 96.2346C314.11 95.9433 313.367 95.9951 312.625 96.39ZM322.222 91.4972C321.994 91.5693 321.763 91.6678 321.528 91.7926C320.916 92.1178 320.489 92.5657 320.246 93.1362C320.006 93.6984 319.968 94.3523 320.133 95.098L323.37 101.184L322.395 101.702L317.682 92.8394L318.641 92.3298L319.406 93.73C319.367 92.4056 319.921 91.4386 321.068 90.8288C321.341 90.6836 321.576 90.6044 321.772 90.5912L322.222 91.4972ZM333.314 95.8967C333.068 95.6704 332.785 95.2915 332.468 94.7599C332.362 95.3907 332.107 95.9712 331.702 96.5015C331.3 97.0234 330.802 97.4426 330.206 97.7591C329.354 98.2121 328.537 98.3418 327.755 98.1484C326.978 97.952 326.397 97.4907 326.01 96.7644C325.552 95.9016 325.546 95.0288 325.995 94.146C326.448 93.2603 327.317 92.4763 328.6 91.7939L330.378 90.8488L329.842 89.8412C329.505 89.2078 329.044 88.8154 328.46 88.664C327.877 88.5043 327.212 88.6233 326.464 89.0211C325.781 89.3841 325.309 89.8593 325.047 90.4469C324.785 91.0345 324.785 91.5741 325.046 92.0656L324.059 92.58C323.684 91.8756 323.688 91.0924 324.07 90.2307C324.45 89.3635 325.117 88.6758 326.073 88.1676C327.062 87.6421 327.972 87.4768 328.804 87.6718C329.639 87.8584 330.3 88.3896 330.786 89.2656L333.016 93.4596C333.472 94.317 333.903 94.9107 334.31 95.2409L334.362 95.3392L333.314 95.8967ZM329.859 96.8298C330.515 96.4814 331.015 96.0123 331.36 95.4227C331.71 94.8301 331.862 94.2065 331.815 93.552L330.778 91.6024L329.025 92.5345C328.054 93.0651 327.385 93.6519 327.019 94.2946C326.651 94.9319 326.628 95.5537 326.95 96.1598C327.214 96.6568 327.616 96.9718 328.156 97.1049C328.702 97.2351 329.27 97.1434 329.859 96.8298ZM339.637 91.6835C340.32 91.3205 340.789 90.8259 341.044 90.1998C341.302 89.5652 341.288 88.932 341.001 88.3L341.943 87.7992C342.203 88.3543 342.296 88.9385 342.223 89.5518C342.147 90.1597 341.917 90.7271 341.531 91.2542C341.152 91.7783 340.667 92.1972 340.077 92.5108C338.914 93.1293 337.776 93.2159 336.664 92.7706C335.557 92.3224 334.64 91.4157 333.914 90.0505L333.758 89.7556C333.293 88.8819 333.035 88.0278 332.984 87.1935C332.932 86.3592 333.094 85.6082 333.467 84.9403C333.846 84.2695 334.417 83.7309 335.182 83.3244C336.154 82.8075 337.108 82.6716 338.044 82.9165C338.985 83.1586 339.729 83.7403 340.275 84.6619L339.333 85.1627C338.92 84.4924 338.371 84.0662 337.686 83.8842C337.006 83.6992 336.32 83.7911 335.626 84.1599C334.742 84.6303 334.223 85.3156 334.072 86.2159C333.925 87.1132 334.158 88.138 334.771 89.2903L334.924 89.577C335.525 90.7074 336.237 91.4601 337.059 91.8352C337.888 92.2073 338.747 92.1567 339.637 91.6835ZM346.461 88.9062L345.478 89.4288L340.766 80.5657L341.748 80.0431L346.461 88.9062ZM339.23 78.0933C339.132 77.9076 339.109 77.72 339.162 77.5305C339.213 77.3356 339.342 77.1829 339.549 77.0726C339.757 76.9623 339.955 76.9407 340.145 77.0079C340.338 77.0667 340.483 77.1889 340.582 77.3746C340.681 77.5603 340.701 77.7493 340.642 77.9417C340.588 78.1312 340.458 78.2811 340.25 78.3914C340.043 78.5018 339.846 78.5261 339.659 78.4644C339.472 78.4026 339.329 78.2789 339.23 78.0933ZM346.165 83.2111C345.712 82.3592 345.468 81.5048 345.432 80.648C345.403 79.7883 345.588 79.0103 345.988 78.3141C346.391 77.6095 346.975 77.054 347.739 76.6475C348.919 76.0203 350.095 75.9272 351.268 76.3682C352.439 76.8037 353.387 77.7041 354.113 79.0693L354.222 79.2741C354.677 80.1314 354.922 80.9927 354.954 81.8579C354.99 82.7148 354.806 83.4886 354.402 84.1793C353.999 84.87 353.413 85.4201 352.643 85.8295C351.469 86.4538 350.294 86.5496 349.118 86.117C347.945 85.6761 346.995 84.773 346.269 83.4077L346.165 83.2111ZM347.292 82.9588C347.855 84.0182 348.591 84.744 349.5 85.1363C350.412 85.5202 351.313 85.4755 352.203 85.0022C353.087 84.5318 353.623 83.8129 353.809 82.8453C353.997 81.8695 353.796 80.8245 353.203 79.7105L353.103 79.5221C352.743 78.8449 352.288 78.2919 351.738 77.863C351.187 77.4341 350.604 77.1872 349.988 77.1224C349.37 77.0521 348.768 77.1723 348.184 77.483C347.31 77.9476 346.78 78.6706 346.594 79.6519C346.406 80.6278 346.606 81.67 347.196 82.7786L347.292 82.9588ZM346.824 72.5741L348.012 71.9426L347.339 75.2423L346.479 75.6996L346.824 72.5741ZM354.756 73.1266L355.595 74.6246C355.638 73.9014 355.832 73.2657 356.178 72.7175C356.521 72.1638 356.993 71.7273 357.594 71.4079C358.544 70.9026 359.393 70.7942 360.142 71.0826C360.891 71.3709 361.552 72.0488 362.127 73.1163L365.219 78.9322L364.245 79.4505L361.148 73.6264C360.721 72.8375 360.239 72.3377 359.699 72.1271C359.165 71.9136 358.535 71.9999 357.809 72.3861C357.203 72.7084 356.767 73.1855 356.5 73.8175C356.236 74.4411 356.164 75.1347 356.283 75.8981L359.51 81.9679L358.535 82.4862L353.823 73.6231L354.756 73.1266Z" fill="#F4F4F4"/>
<path d="M316.965 294.401V297.377H319.371V298.43H316.965V306.175C316.965 306.819 317.079 307.299 317.309 307.614C317.545 307.929 317.935 308.087 318.479 308.087C318.694 308.087 319.042 308.051 319.521 307.979L319.575 309.032C319.239 309.154 318.78 309.215 318.2 309.215C317.319 309.215 316.678 308.961 316.277 308.452C315.876 307.937 315.676 307.181 315.676 306.186V298.43H313.538V297.377H315.676V294.401H316.965ZM323.475 309H322.186V297.377H323.475V309ZM321.96 294.015C321.96 293.771 322.039 293.567 322.196 293.402C322.354 293.23 322.569 293.145 322.841 293.145C323.113 293.145 323.328 293.23 323.485 293.402C323.65 293.567 323.732 293.771 323.732 294.015C323.732 294.258 323.65 294.462 323.485 294.627C323.328 294.792 323.113 294.874 322.841 294.874C322.569 294.874 322.354 294.792 322.196 294.627C322.039 294.462 321.96 294.258 321.96 294.015ZM331.478 309.215C330.489 309.215 329.594 308.971 328.792 308.484C327.997 307.997 327.378 307.321 326.934 306.454C326.49 305.58 326.268 304.603 326.268 303.521V303.06C326.268 301.942 326.482 300.936 326.912 300.041C327.349 299.146 327.954 298.444 328.728 297.936C329.501 297.42 330.339 297.162 331.241 297.162C332.652 297.162 333.769 297.646 334.593 298.612C335.424 299.572 335.839 300.886 335.839 302.555V303.274H327.546V303.521C327.546 304.839 327.922 305.938 328.674 306.819C329.433 307.693 330.385 308.13 331.531 308.13C332.219 308.13 332.824 308.005 333.347 307.754C333.877 307.503 334.356 307.102 334.786 306.551L335.592 307.163C334.646 308.531 333.275 309.215 331.478 309.215ZM331.241 298.258C330.274 298.258 329.458 298.612 328.792 299.321C328.133 300.03 327.732 300.983 327.589 302.179H334.561V302.039C334.525 300.922 334.206 300.012 333.604 299.311C333.003 298.609 332.215 298.258 331.241 298.258ZM339.513 297.377L339.556 299.268C339.985 298.566 340.522 298.039 341.167 297.688C341.812 297.338 342.528 297.162 343.315 297.162C345.149 297.162 346.312 297.914 346.807 299.418C347.222 298.695 347.777 298.14 348.472 297.753C349.166 297.359 349.933 297.162 350.771 297.162C353.263 297.162 354.534 298.523 354.584 301.244V309H353.295V301.341C353.288 300.302 353.062 299.533 352.618 299.031C352.181 298.53 351.465 298.279 350.47 298.279C349.546 298.294 348.765 298.594 348.128 299.182C347.491 299.762 347.136 300.471 347.064 301.309V309H345.775V301.244C345.768 300.249 345.532 299.507 345.066 299.021C344.608 298.526 343.899 298.279 342.939 298.279C342.13 298.279 341.436 298.512 340.855 298.978C340.275 299.436 339.846 300.12 339.566 301.029V309H338.277V297.377H339.513ZM367.195 303.307C367.195 305.118 366.794 306.558 365.992 307.625C365.19 308.685 364.116 309.215 362.77 309.215C361.18 309.215 359.962 308.656 359.117 307.539V313.469H357.839V297.377H359.031L359.096 299.021C359.934 297.782 361.147 297.162 362.737 297.162C364.127 297.162 365.215 297.688 366.003 298.741C366.798 299.794 367.195 301.255 367.195 303.124V303.307ZM365.906 303.081C365.906 301.599 365.602 300.428 364.993 299.568C364.384 298.709 363.536 298.279 362.447 298.279C361.66 298.279 360.983 298.469 360.417 298.849C359.851 299.228 359.418 299.78 359.117 300.503V306.078C359.425 306.744 359.866 307.253 360.438 307.604C361.011 307.954 361.688 308.13 362.469 308.13C363.55 308.13 364.392 307.7 364.993 306.841C365.602 305.974 365.906 304.721 365.906 303.081ZM369.344 303.017C369.344 301.899 369.559 300.893 369.988 299.998C370.425 299.103 371.037 298.408 371.825 297.914C372.62 297.413 373.519 297.162 374.521 297.162C376.068 297.162 377.322 297.706 378.281 298.795C379.241 299.876 379.721 301.312 379.721 303.103V303.371C379.721 304.495 379.502 305.509 379.065 306.411C378.636 307.306 378.027 307.997 377.239 308.484C376.451 308.971 375.553 309.215 374.543 309.215C373.003 309.215 371.75 308.674 370.783 307.593C369.824 306.504 369.344 305.065 369.344 303.274V303.017ZM370.633 303.371C370.633 304.76 370.991 305.903 371.707 306.798C372.43 307.686 373.376 308.13 374.543 308.13C375.703 308.13 376.641 307.686 377.357 306.798C378.081 305.903 378.442 304.725 378.442 303.264V303.017C378.442 302.129 378.278 301.316 377.948 300.578C377.619 299.84 377.157 299.271 376.562 298.87C375.968 298.462 375.288 298.258 374.521 298.258C373.376 298.258 372.441 298.709 371.718 299.611C370.994 300.507 370.633 301.681 370.633 303.135V303.371Z" fill="#F4F4F4"/>
<path d="M458.526 95.399C458.29 95.4346 458.046 95.4957 457.794 95.5823C457.139 95.8078 456.647 96.1833 456.318 96.7088C455.992 97.2264 455.853 97.8664 455.9 98.6287L458.144 105.146L457.1 105.506L453.832 96.0145L454.858 95.6611L455.395 97.1638C455.564 95.8497 456.263 94.9812 457.491 94.5584C457.783 94.4577 458.027 94.4162 458.223 94.4338L458.526 95.399ZM466.713 102.392C465.906 102.67 465.106 102.723 464.315 102.55C463.529 102.376 462.832 101.998 462.226 101.415C461.618 100.827 461.162 100.091 460.858 99.2077L460.728 98.8305C460.414 97.9182 460.306 97.0362 460.405 96.1844C460.51 95.3305 460.807 94.5873 461.296 93.9546C461.782 93.3161 462.394 92.87 463.131 92.6163C464.283 92.2196 465.331 92.3002 466.276 92.8581C467.224 93.4081 467.933 94.3645 468.402 95.727L468.604 96.3147L461.832 98.6465L461.902 98.8482C462.272 99.9243 462.888 100.716 463.75 101.224C464.615 101.724 465.516 101.813 466.452 101.491C467.013 101.298 467.472 101.025 467.828 100.673C468.191 100.32 468.47 99.8573 468.666 99.2862L469.496 99.5596C469.108 100.942 468.181 101.886 466.713 102.392ZM463.439 93.511C462.65 93.7828 462.083 94.3019 461.738 95.0681C461.4 95.8323 461.34 96.7228 461.559 97.7397L467.252 95.7794L467.213 95.6654C466.869 94.7632 466.354 94.1101 465.665 93.7062C464.976 93.3022 464.234 93.2371 463.439 93.511ZM469.99 90.4509L470.584 92.0616C470.739 91.354 471.03 90.7565 471.458 90.2692C471.883 89.776 472.418 89.4187 473.061 89.1972C474.078 88.8468 474.934 88.8726 475.629 89.2745C476.323 89.6765 476.871 90.4495 477.271 91.5937L479.416 97.8218L478.372 98.1812L476.224 91.9444C475.926 91.0984 475.528 90.5293 475.028 90.2369C474.534 89.9425 473.898 89.9292 473.121 90.197C472.471 90.4205 471.966 90.8236 471.604 91.4061C471.246 91.9807 471.066 92.6544 471.064 93.427L473.302 99.927L472.258 100.286L468.99 90.7952L469.99 90.4509ZM479.874 92.1988C479.559 91.2865 479.452 90.4045 479.551 89.5527C479.656 88.6989 479.961 87.9595 480.465 87.3345C480.973 86.7016 481.637 86.2442 482.456 85.9623C483.719 85.5274 484.895 85.6194 485.985 86.2385C487.072 86.8517 487.868 87.8893 488.371 89.3513L488.447 89.5706C488.763 90.4887 488.87 91.3776 488.767 92.2373C488.667 93.0891 488.365 93.8246 487.858 94.4437C487.352 95.0629 486.687 95.5144 485.862 95.7983C484.605 96.2313 483.429 96.1421 482.336 95.5309C481.246 94.9119 480.45 93.8713 479.946 92.4094L479.874 92.1988ZM481.026 92.1258C481.417 93.2603 482.03 94.0924 482.867 94.622C483.707 95.1438 484.604 95.2406 485.557 94.9124C486.504 94.5862 487.146 93.9598 487.481 93.0333C487.82 92.0989 487.784 91.0353 487.373 89.8423L487.303 89.6405C487.054 88.9154 486.691 88.298 486.214 87.7883C485.738 87.2785 485.201 86.9435 484.602 86.7832C484.002 86.617 483.389 86.6416 482.764 86.857C481.828 87.1792 481.192 87.8104 480.855 88.7506C480.516 89.685 480.551 90.7457 480.959 91.9329L481.026 92.1258ZM494.522 91.0011L494.639 81.9635L495.718 81.592L495.442 92.3035L494.591 92.5964L487.762 84.3315L488.841 83.96L494.522 91.0011ZM506.565 88.4736C506.357 88.2116 506.137 87.7932 505.907 87.2185C505.704 87.8249 505.361 88.3583 504.878 88.8188C504.4 89.2715 503.841 89.6075 503.204 89.827C502.292 90.1411 501.464 90.1414 500.722 89.828C499.985 89.5125 499.483 88.9659 499.215 88.1881C498.897 87.2642 499.029 86.4013 499.609 85.5995C500.196 84.7957 501.177 84.1572 502.551 83.684L504.454 83.0286L504.083 81.9496C503.849 81.2713 503.455 80.8116 502.902 80.5706C502.351 80.3218 501.676 80.3353 500.875 80.6111C500.144 80.8628 499.603 81.2584 499.252 81.7978C498.901 82.3371 498.817 82.87 498.998 83.3963L497.942 83.75C497.683 82.9956 497.809 82.2227 498.321 81.4314C498.832 80.6342 499.599 80.0594 500.622 79.707C501.681 79.3426 502.606 79.3217 503.397 79.6445C504.192 79.9594 504.762 80.5875 505.106 81.5288L506.652 86.02C506.968 86.9381 507.301 87.592 507.651 87.9817L507.687 88.087L506.565 88.4736ZM503.007 88.8549C503.708 88.6132 504.276 88.2282 504.709 87.6997C505.147 87.1693 505.395 86.5771 505.451 85.9233L504.732 83.8356L502.855 84.4819C501.812 84.8541 501.06 85.329 500.598 85.9066C500.134 86.4784 500.014 87.0888 500.238 87.738C500.421 88.2701 500.769 88.6442 501.282 88.8602C501.8 89.0741 502.375 89.0724 503.007 88.8549ZM513.469 85.3014C514.2 85.0497 514.741 84.6346 515.091 84.0561C515.445 83.4698 515.53 82.8421 515.345 82.173L516.354 81.8257C516.524 82.4147 516.525 83.0063 516.357 83.6006C516.187 84.1891 515.87 84.7135 515.407 85.1738C514.95 85.6321 514.406 85.9699 513.774 86.1874C512.529 86.6163 511.391 86.5238 510.362 85.9101C509.339 85.2942 508.576 84.2554 508.072 82.7934L507.964 82.4776C507.642 81.5419 507.52 80.658 507.6 79.826C507.68 78.9939 507.956 78.2773 508.43 77.6761C508.909 77.0728 509.558 76.6303 510.377 76.3483C511.417 75.9899 512.381 76.0049 513.267 76.3932C514.159 76.7795 514.802 77.4704 515.197 78.466L514.188 78.8134C513.886 78.0868 513.411 77.58 512.762 77.293C512.12 77.004 511.427 76.9874 510.685 77.2431C509.737 77.5693 509.118 78.1651 508.827 79.0305C508.543 79.894 508.613 80.9426 509.037 82.1765L509.143 82.4836C509.56 83.6941 510.145 84.5489 510.899 85.0481C511.659 85.5452 512.516 85.6297 513.469 85.3014ZM520.644 83.6258L519.591 83.9883L516.323 74.4971L517.375 74.1346L520.644 83.6258ZM515.193 71.8149C515.125 71.6161 515.132 71.4273 515.214 71.2485C515.294 71.0638 515.446 70.9332 515.668 70.8567C515.89 70.7802 516.09 70.79 516.267 70.886C516.448 70.9742 516.572 71.1177 516.641 71.3165C516.709 71.5154 516.699 71.7052 516.611 71.886C516.529 72.0648 516.376 72.1925 516.154 72.269C515.932 72.3455 515.733 72.3387 515.558 72.2485C515.383 72.1583 515.262 72.0137 515.193 71.8149ZM521.242 77.9546C520.928 77.0423 520.82 76.1603 520.919 75.3085C521.025 74.4546 521.329 73.7152 521.834 73.0902C522.342 72.4574 523.005 72 523.824 71.7181C525.087 71.2831 526.263 71.3752 527.353 71.9942C528.441 72.6075 529.236 73.6451 529.74 75.107L529.815 75.3263C530.131 76.2445 530.238 77.1334 530.135 77.993C530.036 78.8448 529.733 79.5803 529.227 80.1995C528.72 80.8186 528.055 81.2702 527.23 81.5541C525.973 81.987 524.798 81.8979 523.704 81.2867C522.614 80.6676 521.818 79.6271 521.314 78.1651L521.242 77.9546ZM522.394 77.8816C522.785 79.0161 523.398 79.8482 524.235 80.3778C525.075 80.8996 525.972 80.9963 526.925 80.6681C527.873 80.3419 528.514 79.7156 528.849 78.7891C529.188 77.8547 529.152 76.791 528.741 75.5981L528.672 75.3963C528.422 74.6712 528.059 74.0537 527.583 73.544C527.106 73.0343 526.569 72.6993 525.971 72.5389C525.371 72.3727 524.758 72.3973 524.132 72.6128C523.196 72.935 522.56 73.5662 522.223 74.5064C521.884 75.4407 521.919 76.5015 522.328 77.6886L522.394 77.8816ZM523.557 67.5516L524.829 67.1137L523.648 70.2675L522.727 70.5847L523.557 67.5516ZM531.305 69.3382L531.899 70.949C532.054 70.2413 532.346 69.6439 532.773 69.1565C533.199 68.6633 533.733 68.306 534.376 68.0845C535.394 67.7341 536.25 67.7599 536.944 68.1619C537.639 68.5638 538.186 69.3369 538.587 70.4811L540.731 76.7091L539.687 77.0685L537.54 70.8317C537.242 69.9858 536.843 69.4166 536.344 69.1242C535.85 68.8299 535.214 68.8166 534.436 69.0844C533.787 69.3079 533.282 69.7109 532.92 70.2934C532.561 70.8681 532.381 71.5417 532.379 72.3144L534.617 78.8143L533.573 79.1738L530.305 69.6826L531.305 69.3382Z" fill="#F4F4F4"/>
<path d="M42 271C42 271 185.551 102.567 219.929 89.6194C254.307 76.672 278 271 278 271" stroke="#F4F4F4" stroke-width="3" stroke-linecap="round" stroke-linejoin="round"/>
<path d="M42 271C42 271 326.131 113.812 389.034 89.0582C451.938 64.3041 461 271 461 271" stroke="#62AF9A" stroke-width="3" stroke-linecap="round" stroke-linejoin="round"/>
<path d="M42 271C42 271 489.243 107.762 560.802 89.213C632.361 70.6637 621.397 271 621.397 271" stroke="#44639E" stroke-width="3" stroke-linecap="round" stroke-linejoin="round"/>
<path d="M42 29L42 274L651 274" stroke="#4F4F4F" stroke-width="3" stroke-linecap="round"/>
</g>
<defs>
<clipPath id="clip0">
<rect width="657" height="320" fill="white"/>
</clipPath>
</defs>
</svg>
