<svg width="657" height="320" viewBox="0 0 657 320" fill="none" xmlns="http://www.w3.org/2000/svg">
<g clip-path="url(#clip0)">
<path d="M111.5 265V187L205 139.5L299.5 187V265L205 312.5L111.5 265Z" fill="#1D1D1B"/>
<path d="M111.5 187V265L205 312.5M111.5 187L205 233.5M111.5 187L205 139.5L299.5 187M205 312.5V233.5M205 312.5L299.5 265V187M205 233.5L299.5 187" stroke="#44639E" stroke-width="3"/>
<path d="M300 264.5V186.5L488.5 92L583 139.5V217.5L393.5 312L300 264.5Z" fill="#1D1D1B"/>
<path d="M300 186.5V264.5L393.5 312M300 186.5L393.5 233M300 186.5L488.5 92L583 139.5M393.5 312V233M393.5 312L583 217.5V139.5M393.5 233L583 139.5" stroke="#44639E" stroke-width="3"/>
<path d="M424 141V120.5C424.5 117.667 429 112 441 112C453 112 456.5 117.667 457.5 120.5V141C455.333 143.167 449.8 147.5 441 147.5C432.2 147.5 425.667 143.167 424 141Z" fill="#1D1D1B"/>
<path d="M424 120.5V141C425.667 143.167 432.2 147.5 441 147.5C449.8 147.5 455.333 143.167 457.5 141V120.5M424 120.5C424.5 117.667 429 112 441 112C453 112 456.5 117.667 457.5 120.5M424 120.5C425.333 123.5 429.5 128.5 441 128.5C452.5 128.5 455.667 123.5 457.5 120.5" stroke="#395385" stroke-width="3" stroke-linejoin="round"/>
<path d="M472 165V144.5C472.5 141.667 477 136 489 136C501 136 504.5 141.667 505.5 144.5V165C503.333 167.167 497.8 171.5 489 171.5C480.2 171.5 473.667 167.167 472 165Z" fill="#1D1D1B"/>
<path d="M472 144.5V165C473.667 167.167 480.2 171.5 489 171.5C497.8 171.5 503.333 167.167 505.5 165V144.5M472 144.5C472.5 141.667 477 136 489 136C501 136 504.5 141.667 505.5 144.5M472 144.5C473.333 147.5 477.5 152.5 489 152.5C500.5 152.5 503.667 147.5 505.5 144.5" stroke="#44639E" stroke-width="3" stroke-linejoin="round"/>
<path d="M472 118V97.5C472.5 94.6667 477 89 489 89C501 89 504.5 94.6667 505.5 97.5V118C503.333 120.167 497.8 124.5 489 124.5C480.2 124.5 473.667 120.167 472 118Z" fill="#1D1D1B"/>
<path d="M472 97.5V118C473.667 120.167 480.2 124.5 489 124.5C497.8 124.5 503.333 120.167 505.5 118V97.5M472 97.5C472.5 94.6667 477 89 489 89C501 89 504.5 94.6667 505.5 97.5M472 97.5C473.333 100.5 477.5 105.5 489 105.5C500.5 105.5 503.667 100.5 505.5 97.5" stroke="#44639E" stroke-width="3" stroke-linejoin="round"/>
<path d="M519 141V120.5C519.5 117.667 524 112 536 112C548 112 551.5 117.667 552.5 120.5V141C550.333 143.167 544.8 147.5 536 147.5C527.2 147.5 520.667 143.167 519 141Z" fill="#1D1D1B"/>
<path d="M519 120.5V141C520.667 143.167 527.2 147.5 536 147.5C544.8 147.5 550.333 143.167 552.5 141V120.5M519 120.5C519.5 117.667 524 112 536 112C548 112 551.5 117.667 552.5 120.5M519 120.5C520.333 123.5 524.5 128.5 536 128.5C547.5 128.5 550.667 123.5 552.5 120.5" stroke="#44639E" stroke-width="3" stroke-linejoin="round"/>
<path d="M206.5 139.5V61.5L300 14L488 109.5V187.5L393.5 235L206.5 139.5Z" fill="#1D1D1B"/>
<path d="M206.5 61.5V139.5L393.5 235M206.5 61.5L393.5 156M206.5 61.5L300 14L488 109.5M393.5 235V156M393.5 235L488 187.5V109.5M393.5 156L488 109.5" stroke="#F4F4F4" stroke-width="3"/>
<path d="M189 212V191.5C189.5 188.667 194 183 206 183C218 183 221.5 188.667 222.5 191.5V212C220.333 214.167 214.8 218.5 206 218.5C197.2 218.5 190.667 214.167 189 212Z" fill="#1D1D1B"/>
<path d="M189 191.5V212C190.667 214.167 197.2 218.5 206 218.5C214.8 218.5 220.333 214.167 222.5 212V191.5M189 191.5C189.5 188.667 194 183 206 183C218 183 221.5 188.667 222.5 191.5M189 191.5C190.333 194.5 194.5 199.5 206 199.5C217.5 199.5 220.667 194.5 222.5 191.5" stroke="#44639E" stroke-width="3" stroke-linejoin="round"/>
<path d="M141 188V167.5C141.5 164.667 146 159 158 159C170 159 173.5 164.667 174.5 167.5V188C172.333 190.167 166.8 194.5 158 194.5C149.2 194.5 142.667 190.167 141 188Z" fill="#1D1D1B"/>
<path d="M141 167.5V188C142.667 190.167 149.2 194.5 158 194.5C166.8 194.5 172.333 190.167 174.5 188V167.5M141 167.5C141.5 164.667 146 159 158 159C170 159 173.5 164.667 174.5 167.5M141 167.5C142.333 170.5 146.5 175.5 158 175.5C169.5 175.5 172.667 170.5 174.5 167.5" stroke="#44639E" stroke-width="3" stroke-linejoin="round"/>
<path d="M189 165V144.5C189.5 141.667 194 136 206 136C218 136 221.5 141.667 222.5 144.5V165C220.333 167.167 214.8 171.5 206 171.5C197.2 171.5 190.667 167.167 189 165Z" fill="#1D1D1B"/>
<path d="M189 144.5V165C190.667 167.167 197.2 171.5 206 171.5C214.8 171.5 220.333 167.167 222.5 165V144.5M189 144.5C189.5 141.667 194 136 206 136C218 136 221.5 141.667 222.5 144.5M189 144.5C190.333 147.5 194.5 152.5 206 152.5C217.5 152.5 220.667 147.5 222.5 144.5" stroke="#44639E" stroke-width="3" stroke-linejoin="round"/>
<path d="M236 188V167.5C236.5 164.667 241 159 253 159C265 159 268.5 164.667 269.5 167.5V188C267.333 190.167 261.8 194.5 253 194.5C244.2 194.5 237.667 190.167 236 188Z" fill="#1D1D1B"/>
<path d="M236 167.5V188C237.667 190.167 244.2 194.5 253 194.5C261.8 194.5 267.333 190.167 269.5 188V167.5M236 167.5C236.5 164.667 241 159 253 159C265 159 268.5 164.667 269.5 167.5M236 167.5C237.333 170.5 241.5 175.5 253 175.5C264.5 175.5 267.667 170.5 269.5 167.5" stroke="#44639E" stroke-width="3" stroke-linejoin="round"/>
<path d="M284 86V65.5C284.5 62.6667 289 57 301 57C313 57 316.5 62.6667 317.5 65.5V86C315.333 88.1667 309.8 92.5 301 92.5C292.2 92.5 285.667 88.1667 284 86Z" fill="#1D1D1B"/>
<path d="M284 65.5V86C285.667 88.1667 292.2 92.5 301 92.5C309.8 92.5 315.333 88.1667 317.5 86V65.5M284 65.5C284.5 62.6667 289 57 301 57C313 57 316.5 62.6667 317.5 65.5M284 65.5C285.333 68.5 289.5 73.5 301 73.5C312.5 73.5 315.667 68.5 317.5 65.5" stroke="#F4F4F4" stroke-width="3" stroke-linejoin="round"/>
<path d="M377 133V112.5C377.5 109.667 382 104 394 104C406 104 409.5 109.667 410.5 112.5V133C408.333 135.167 402.8 139.5 394 139.5C385.2 139.5 378.667 135.167 377 133Z" fill="#1D1D1B"/>
<path d="M377 112.5V133C378.667 135.167 385.2 139.5 394 139.5C402.8 139.5 408.333 135.167 410.5 133V112.5M377 112.5C377.5 109.667 382 104 394 104C406 104 409.5 109.667 410.5 112.5M377 112.5C378.333 115.5 382.5 120.5 394 120.5C405.5 120.5 408.667 115.5 410.5 112.5" stroke="#F4F4F4" stroke-width="3" stroke-linejoin="round"/>
<path d="M236 62V41.5C236.5 38.6667 241 33 253 33C265 33 268.5 38.6667 269.5 41.5V62C267.333 64.1667 261.8 68.5 253 68.5C244.2 68.5 237.667 64.1667 236 62Z" fill="#1D1D1B"/>
<path d="M236 41.5V62C237.667 64.1667 244.2 68.5 253 68.5C261.8 68.5 267.333 64.1667 269.5 62V41.5M236 41.5C236.5 38.6667 241 33 253 33C265 33 268.5 38.6667 269.5 41.5M236 41.5C237.333 44.5 241.5 49.5 253 49.5C264.5 49.5 267.667 44.5 269.5 41.5" stroke="#F4F4F4" stroke-width="3" stroke-linejoin="round"/>
<path d="M329 109V88.5C329.5 85.6667 334 80 346 80C358 80 361.5 85.6667 362.5 88.5V109C360.333 111.167 354.8 115.5 346 115.5C337.2 115.5 330.667 111.167 329 109Z" fill="#1D1D1B"/>
<path d="M329 88.5V109C330.667 111.167 337.2 115.5 346 115.5C354.8 115.5 360.333 111.167 362.5 109V88.5M329 88.5C329.5 85.6667 334 80 346 80C358 80 361.5 85.6667 362.5 88.5M329 88.5C330.333 91.5 334.5 96.5 346 96.5C357.5 96.5 360.667 91.5 362.5 88.5" stroke="#F4F4F4" stroke-width="3" stroke-linejoin="round"/>
<path d="M284 39V18.5C284.5 15.6667 289 10 301 10C313 10 316.5 15.6667 317.5 18.5V39C315.333 41.1667 309.8 45.5 301 45.5C292.2 45.5 285.667 41.1667 284 39Z" fill="#1D1D1B"/>
<path d="M284 18.5V39C285.667 41.1667 292.2 45.5 301 45.5C309.8 45.5 315.333 41.1667 317.5 39V18.5M284 18.5C284.5 15.6667 289 10 301 10C313 10 316.5 15.6667 317.5 18.5M284 18.5C285.333 21.5 289.5 26.5 301 26.5C312.5 26.5 315.667 21.5 317.5 18.5" stroke="#F4F4F4" stroke-width="3" stroke-linejoin="round"/>
<path d="M377 86V65.5C377.5 62.6667 382 57 394 57C406 57 409.5 62.6667 410.5 65.5V86C408.333 88.1667 402.8 92.5 394 92.5C385.2 92.5 378.667 88.1667 377 86Z" fill="#1D1D1B"/>
<path d="M377 65.5V86C378.667 88.1667 385.2 92.5 394 92.5C402.8 92.5 408.333 88.1667 410.5 86V65.5M377 65.5C377.5 62.6667 382 57 394 57C406 57 409.5 62.6667 410.5 65.5M377 65.5C378.333 68.5 382.5 73.5 394 73.5C405.5 73.5 408.667 68.5 410.5 65.5" stroke="#F4F4F4" stroke-width="3" stroke-linejoin="round"/>
<path d="M331 62V41.5C331.5 38.6667 336 33 348 33C360 33 363.5 38.6667 364.5 41.5V62C362.333 64.1667 356.8 68.5 348 68.5C339.2 68.5 332.667 64.1667 331 62Z" fill="#1D1D1B"/>
<path d="M331 41.5V62C332.667 64.1667 339.2 68.5 348 68.5C356.8 68.5 362.333 64.1667 364.5 62V41.5M331 41.5C331.5 38.6667 336 33 348 33C360 33 363.5 38.6667 364.5 41.5M331 41.5C332.333 44.5 336.5 49.5 348 49.5C359.5 49.5 362.667 44.5 364.5 41.5" stroke="#F4F4F4" stroke-width="3" stroke-linejoin="round"/>
<path d="M424 109V88.5C424.5 85.6667 429 80 441 80C453 80 456.5 85.6667 457.5 88.5V109C455.333 111.167 449.8 115.5 441 115.5C432.2 115.5 425.667 111.167 424 109Z" fill="#1D1D1B"/>
<path d="M424 88.5V109C425.667 111.167 432.2 115.5 441 115.5C449.8 115.5 455.333 111.167 457.5 109V88.5M424 88.5C424.5 85.6667 429 80 441 80C453 80 456.5 85.6667 457.5 88.5M424 88.5C425.333 91.5 429.5 96.5 441 96.5C452.5 96.5 455.667 91.5 457.5 88.5" stroke="#F4F4F4" stroke-width="3" stroke-linejoin="round"/>
</g>
<defs>
<clipPath id="clip0">
<rect width="657" height="320" fill="white"/>
</clipPath>
</defs>
</svg>
