<svg width="657" height="328" viewBox="0 0 657 328" fill="none" xmlns="http://www.w3.org/2000/svg">
<g clip-path="url(#clip0)">
<path d="M25.4379 43.2556C18.813 48.8229 27.4254 55.1857 25.4379 67.7785C23.4504 80.3714 14.838 104.232 15.5005 110.197C16.163 116.162 17.4218 132.068 15.4343 137.371C13.4468 142.673 18.813 146.65 20.8005 152.615C22.7879 158.58 25.4379 168.323 27.8891 175.68C30.3403 183.037 33.189 200.534 37.2302 202.986C41.2714 205.439 38.0252 217.634 53.13 218.495C68.1686 219.291 69.8248 225.852 69.8248 234.402C69.8248 242.952 72.276 242.157 84.0683 242.157C95.8607 242.157 119.114 259.257 130.045 259.654C140.976 260.052 159.791 260.847 165.489 257.202C171.186 253.557 180.991 255.147 183.376 257.997C185.827 260.847 194.771 272.645 199.673 281.592C204.575 290.54 212.327 292.992 216.368 288.949C220.409 284.906 225.311 277.152 230.214 277.549C235.116 277.947 245.716 285.834 246.114 290.871C246.511 295.908 251.016 308.104 257.509 310.954C264.001 313.804 276.257 322.751 281.093 320.697C285.996 318.642 283.942 314.201 282.749 309.694C281.557 305.187 278.774 297.897 284.207 292.197C289.639 286.497 302.293 282.852 305.142 275.892C307.99 268.999 314.483 267.74 323.89 268.138C333.297 268.536 329.985 269.331 340.982 271.385C351.98 273.44 362.182 274.235 362.58 270.59C362.977 266.945 355.226 257.136 359.731 253.888C364.236 250.64 384.972 250.243 394.313 251.038C403.654 251.833 413.856 248.983 413.856 255.545C413.856 262.107 414.651 262.902 419.951 268.999C425.251 275.097 421.144 282.454 426.046 285.702C430.949 288.949 432.539 296.306 439.892 299.554C447.246 302.801 444.397 308.899 448.836 310.556C453.341 312.213 465.133 304.061 465.133 292.197C465.133 280.333 463.941 274.699 453.738 262.902C443.536 251.104 434.592 249.05 435.387 228.305C436.182 207.559 449.233 207.559 450.028 203.848C450.823 200.136 458.972 189.863 465.067 182.175C471.162 174.487 475.269 171.637 475.269 165.539C475.269 159.441 467.121 142.739 471.228 135.382C475.269 128.026 477.721 124.778 477.721 113.378C477.721 101.978 474.872 96.6759 479.774 94.6213C484.677 92.5666 506.671 85.6737 506.671 81.1668C506.671 76.6598 497.728 77.1238 499.318 66.1216C500.974 55.1194 502.961 53.9264 508.261 51.4741C513.561 49.0218 518 42.5265 518 38.8149C518 35.1033 515.549 34.308 512.303 30.265C509.056 26.222 505.413 20.5221 503.756 17.2082C502.1 13.9606 495.608 10.3153 490.705 11.1106C485.803 11.9059 483.815 12.3036 483.815 22.5105C483.815 32.7173 484.61 42.8579 479.31 43.7195C474.011 44.5811 452.877 52.6671 447.18 57.9694C441.482 63.2716 439.826 63.6693 439.826 68.5739C439.826 73.4785 436.58 83.6191 431.28 82.8237C425.98 82.0284 412.929 88.5237 413.79 95.8805C414.585 103.237 401.137 111.39 397.493 111.39C393.849 111.39 393.452 105.69 396.3 99.1945C399.149 92.6992 391 84.1493 389.41 84.1493C387.754 84.1493 380.864 88.6562 380.864 80.9016C380.864 73.1471 377.618 65.8565 375.564 65.3925C373.511 64.9286 369.867 57.638 367.018 56.445C364.17 55.2519 356.816 52.402 351.98 55.2519C347.077 58.1019 339.326 63.4042 336.941 60.5542C334.49 57.7042 326.341 52.402 325.546 55.2519C324.751 58.1019 310.905 70.7611 310.044 64.5972C309.249 58.4996 317.795 56.445 316.934 51.5404C316.139 46.6358 310.442 46.6358 303.485 46.6358C296.529 46.6358 291.296 43.3881 285.134 42.1288C279.039 40.9358 270.096 36.8266 269.235 40.9358C268.373 45.0451 257.442 53.9927 244.789 53.9927C232.135 53.9927 193.512 46.6358 184.104 46.2381C174.763 45.8404 149.92 43.3881 144.223 45.8404C138.525 48.2927 109.641 43.3881 94.9332 42.9905C80.4246 42.4602 63.7299 37.158 56.045 37.158C48.3601 37.158 38.9527 36.7603 38.9527 40.0079C38.9527 43.2556 41.0064 45.7079 36.5015 45.7079C31.9966 45.7079 30.2741 39.1463 25.4379 43.2556Z" stroke="#44639E" stroke-width="4" stroke-miterlimit="10"/>
<path d="M18 19H126L230 149H349L451 246L561 247L639.5 311" stroke="#F4F4F4" stroke-width="3" stroke-linecap="round" stroke-linejoin="round"/>
<path d="M640 291.5V311H619" stroke="#F4F4F4" stroke-width="3" stroke-linecap="round" stroke-linejoin="round"/>
</g>
<defs>
<clipPath id="clip0">
<rect width="657" height="328" fill="white"/>
</clipPath>
</defs>
</svg>
