<svg width="657" height="328" viewBox="0 0 657 328" fill="none" xmlns="http://www.w3.org/2000/svg">
<g clip-path="url(#clip0)">
<path d="M17 284.5C27.6667 284.334 56 288.2 84 305C119 326 161.5 326 184 314C202 304.4 235.5 287 235.5 287C240.167 294.667 255.5 311.4 279.5 317C323.674 327.307 460.988 320.167 502 298.5C528.5 284.5 568.5 266 556 205.5C546 157.1 523 143.5 523 143.5" stroke="#44639E" stroke-width="3" stroke-linecap="round"/>
<path d="M75.5001 269C61.0001 259.667 30.6001 230.8 25.0001 190C18.0001 139 25.5001 102.5 48.5001 79.5C66.9001 61.1 81.8334 61.8333 87 64.5C93.1667 51.4999 115.9 24.0998 157.5 18.4998C199.1 12.8998 238.167 30.1665 252.5 39.4998C260.5 37.6665 280.8 36.1 298 44.5C315.2 52.9 321.833 65.6667 323 71C330.333 71 345.2 75.7 346 94.5C346.8 113.3 322.333 117 310 116.5C327.848 111.695 327.446 83.4788 306 87.5C299.6 88.7 295.667 92.6667 294.5 94.5C293.167 87.3333 290 74 271.5 72C256.388 70.3663 252 75.5 252 75.5" stroke="#F4F4F4" stroke-width="3" stroke-linecap="round"/>
<path d="M201 71.5002C218.22 57.4695 258.415 67.5321 259.5 92.5C260.429 113.861 250.421 122.434 231 125.5C231 119.5 228 107.6 216 108C201 108.5 193 120 191.5 134.5C190 149 191 170 201 182.5C209 192.5 221.333 204.667 226.5 209.5" stroke="#F4F4F4" stroke-width="3" stroke-linecap="round"/>
<path d="M161 164C163.167 174.167 169 192 187 208C201.181 220.605 210.833 224.167 213 225.5" stroke="#44639E" stroke-width="3" stroke-linecap="round"/>
<path d="M135 192.5C141.667 205.667 163.8 234 199 242" stroke="#44639E" stroke-width="3" stroke-linecap="round"/>
<path d="M90 186.5C98.3333 207.667 126.7 251.7 173.5 258.5" stroke="#44639E" stroke-width="3" stroke-linecap="round"/>
<path d="M482.5 95.9998C476.667 82.9998 467.971 48.9882 491.5 39.9998C536 23 545.5 55.4998 545.5 55.4998C536.5 53.333 518 52.0996 516 64.4996C513.5 79.9996 521 97.5 545.5 115.5C562.429 127.937 574.5 155 575.5 155.5" stroke="#F4F4F4" stroke-width="3" stroke-linecap="round"/>
<path d="M568 141.5C562.333 133 555.6 112.6 574 98.9999C597 81.9999 622.5 93.9999 626 105.5C628.8 114.7 623.833 124.667 621 128.5C621 128.5 614 118 603 126.5C586.509 139.243 615 157.5 626 177.5C634.852 193.594 629.5 209.5 629 217" stroke="#F4F4F4" stroke-width="3" stroke-linecap="round"/>
<path d="M433 86C436.167 96.1667 444.2 107.2 449 111" stroke="#44639E" stroke-width="3" stroke-linecap="round"/>
<path d="M493.5 322.5C514.667 318 562.2 301.5 583 271.5C609 234 593 214 581.5 218C567.333 222.928 574.5 236 574.5 236C570.667 235.666 562.2 233.9 559 229.5M557.5 216.5C557.333 209 560.593 192.494 583 191C613 189 634.5 207 634 247.5C633.6 279.9 596.167 311 577.5 322.5" stroke="#44639E" stroke-width="3" stroke-linecap="round"/>
<path d="M20 257C30.6667 256.167 61.6 260.3 100 283.5C174.025 328.224 222.5 235.5 257.5 248.5C255.833 254.667 255.667 270.949 272.5 279C319.616 301.534 481.027 294.633 517 245.5C537.5 217.5 517.804 178.611 503.5 162C491.1 147.6 468 131 468 131" stroke="#44639E" stroke-width="3" stroke-linecap="round"/>
<path d="M197.5 117.5C196.167 113 191.2 104.5 182 106.5C162.717 110.692 172.744 157.415 146 148.5C145.833 141.5 142.4 126.5 130 122.5C114.5 117.5 103 124 101 127.5C99.3999 130.3 100.333 132.333 101 133C107.667 132.833 121.7 135.7 124.5 148.5C127.3 161.3 112 169.5 104 172C104.833 166.334 103.7 155 92.5 155C78.5 155 63.5 165.5 63.5 185C63.5 240.005 125.696 281.252 177 257.5C204 245 219.5 214.5 232 203C242 193.8 255.5 192.834 261 193.5C263.5 187.667 273.4 176.7 293 179.5C312.6 182.3 319.833 198.667 321 206.5C312.833 204.334 295.1 203.2 289.5 216C282.5 232 294.5 249 312 257.5C342.063 272.102 453.982 259.595 476 235.5C502.5 206.5 491 182 454.5 157.5C418 133 376 91.0002 374 48.0002C372.4 13.6002 402.333 6.3335 417.5 7.00016C413.5 13.0001 408.5 25.4 420.5 27C432.885 28.6514 471.499 4.24907 481 18.5C475.667 19.3333 466.1 23.6999 470.5 34.5C474.9 45.3001 484.333 43.3334 488.5 41" stroke="#F4F4F4" stroke-width="3" stroke-linecap="round"/>
</g>
<defs>
<clipPath id="clip0">
<rect width="657" height="328" fill="white"/>
</clipPath>
</defs>
</svg>
