<svg width="657" height="328" viewBox="0 0 657 328" fill="none" xmlns="http://www.w3.org/2000/svg">
<g clip-path="url(#clip0)">
<path d="M7 315C80.7721 315 77.1327 24 329.101 24C581.07 24 584.5 315 651 315" stroke="#44639E" stroke-width="3"/>
<path d="M153 315C200.5 315 180.051 228 328.813 228C480.08 228 458.045 315 505 315" stroke="#F4F4F4" stroke-width="3"/>
<path d="M266.451 263.037C266.141 262.98 265.812 262.952 265.462 262.952C264.55 262.952 263.777 263.208 263.143 263.721C262.516 264.225 262.068 264.962 261.8 265.93V275H260.347V261.792H261.775L261.8 263.892C262.573 262.329 263.814 261.548 265.523 261.548C265.93 261.548 266.251 261.601 266.487 261.707L266.451 263.037ZM273.641 275.244C272.518 275.244 271.5 274.967 270.589 274.414C269.686 273.861 268.982 273.092 268.477 272.107C267.972 271.114 267.72 270.003 267.72 268.774V268.25C267.72 266.98 267.964 265.837 268.453 264.819C268.949 263.802 269.637 263.005 270.516 262.427C271.395 261.841 272.347 261.548 273.372 261.548C274.975 261.548 276.245 262.097 277.181 263.196C278.125 264.286 278.597 265.78 278.597 267.676V268.494H269.173V268.774C269.173 270.272 269.6 271.521 270.455 272.522C271.317 273.515 272.4 274.011 273.702 274.011C274.483 274.011 275.171 273.869 275.765 273.584C276.367 273.299 276.912 272.843 277.4 272.217L278.316 272.913C277.242 274.467 275.683 275.244 273.641 275.244ZM273.372 262.793C272.273 262.793 271.346 263.196 270.589 264.001C269.84 264.807 269.384 265.889 269.222 267.249H277.144V267.09C277.103 265.82 276.741 264.787 276.058 263.989C275.374 263.192 274.479 262.793 273.372 262.793ZM286.324 274.011C287.341 274.011 288.191 273.726 288.875 273.157C289.567 272.579 289.941 271.834 289.998 270.923H291.402C291.361 271.729 291.109 272.465 290.645 273.132C290.181 273.792 289.563 274.308 288.79 274.683C288.025 275.057 287.203 275.244 286.324 275.244C284.59 275.244 283.215 274.642 282.198 273.438C281.189 272.233 280.684 270.614 280.684 268.579V268.14C280.684 266.838 280.912 265.686 281.368 264.685C281.823 263.684 282.474 262.911 283.321 262.366C284.175 261.82 285.172 261.548 286.312 261.548C287.76 261.548 288.952 261.979 289.888 262.842C290.832 263.704 291.337 264.84 291.402 266.248H289.998C289.933 265.214 289.559 264.38 288.875 263.745C288.2 263.11 287.345 262.793 286.312 262.793C284.993 262.793 283.968 263.269 283.235 264.221C282.511 265.173 282.149 266.508 282.149 268.225V268.652C282.149 270.337 282.511 271.651 283.235 272.595C283.968 273.539 284.997 274.011 286.324 274.011ZM302.828 273.328C301.949 274.605 300.545 275.244 298.616 275.244C297.208 275.244 296.138 274.837 295.406 274.023C294.673 273.201 294.299 271.989 294.283 270.386V261.792H295.735V270.203C295.735 272.717 296.753 273.975 298.787 273.975C300.903 273.975 302.242 273.1 302.803 271.35V261.792H304.268V275H302.852L302.828 273.328ZM318.697 268.53C318.697 270.589 318.241 272.225 317.33 273.438C316.418 274.642 315.197 275.244 313.667 275.244C311.861 275.244 310.477 274.609 309.517 273.34V280.078H308.064V261.792H309.419L309.493 263.66C310.445 262.252 311.824 261.548 313.631 261.548C315.21 261.548 316.447 262.146 317.342 263.342C318.245 264.539 318.697 266.199 318.697 268.323V268.53ZM317.232 268.274C317.232 266.589 316.886 265.259 316.194 264.282C315.503 263.306 314.538 262.817 313.301 262.817C312.406 262.817 311.637 263.033 310.994 263.464C310.351 263.896 309.859 264.522 309.517 265.344V271.68C309.867 272.437 310.368 273.014 311.019 273.413C311.67 273.812 312.439 274.011 313.326 274.011C314.555 274.011 315.511 273.523 316.194 272.546C316.886 271.562 317.232 270.138 317.232 268.274ZM327.059 275.244C325.936 275.244 324.918 274.967 324.007 274.414C323.104 273.861 322.4 273.092 321.895 272.107C321.39 271.114 321.138 270.003 321.138 268.774V268.25C321.138 266.98 321.382 265.837 321.871 264.819C322.367 263.802 323.055 263.005 323.934 262.427C324.812 261.841 325.765 261.548 326.79 261.548C328.393 261.548 329.663 262.097 330.599 263.196C331.543 264.286 332.015 265.78 332.015 267.676V268.494H322.591V268.774C322.591 270.272 323.018 271.521 323.873 272.522C324.735 273.515 325.818 274.011 327.12 274.011C327.901 274.011 328.589 273.869 329.183 273.584C329.785 273.299 330.33 272.843 330.818 272.217L331.734 272.913C330.66 274.467 329.101 275.244 327.059 275.244ZM326.79 262.793C325.691 262.793 324.764 263.196 324.007 264.001C323.258 264.807 322.802 265.889 322.64 267.249H330.562V267.09C330.521 265.82 330.159 264.787 329.476 263.989C328.792 263.192 327.897 262.793 326.79 262.793ZM340.962 263.037C340.653 262.98 340.324 262.952 339.974 262.952C339.062 262.952 338.289 263.208 337.654 263.721C337.028 264.225 336.58 264.962 336.312 265.93V275H334.859V261.792H336.287L336.312 263.892C337.085 262.329 338.326 261.548 340.035 261.548C340.442 261.548 340.763 261.601 340.999 261.707L340.962 263.037ZM351.131 275C350.984 274.585 350.891 273.971 350.85 273.157C350.337 273.824 349.682 274.341 348.885 274.707C348.095 275.065 347.257 275.244 346.37 275.244C345.101 275.244 344.071 274.89 343.282 274.182C342.5 273.474 342.11 272.579 342.11 271.497C342.11 270.211 342.643 269.194 343.709 268.445C344.783 267.696 346.277 267.322 348.189 267.322H350.838V265.82C350.838 264.876 350.545 264.136 349.959 263.599C349.381 263.053 348.535 262.781 347.42 262.781C346.403 262.781 345.56 263.041 344.893 263.562C344.226 264.083 343.892 264.709 343.892 265.442L342.427 265.43C342.427 264.38 342.916 263.472 343.892 262.708C344.869 261.934 346.069 261.548 347.493 261.548C348.966 261.548 350.126 261.918 350.972 262.659C351.827 263.391 352.266 264.417 352.291 265.735V271.985C352.291 273.263 352.425 274.219 352.693 274.854V275H351.131ZM346.541 273.95C347.518 273.95 348.388 273.714 349.153 273.242C349.926 272.77 350.488 272.139 350.838 271.35V268.445H348.226C346.769 268.461 345.63 268.73 344.808 269.25C343.986 269.763 343.575 270.471 343.575 271.375C343.575 272.115 343.847 272.729 344.393 273.218C344.946 273.706 345.662 273.95 346.541 273.95ZM361.08 274.011C362.097 274.011 362.947 273.726 363.631 273.157C364.323 272.579 364.697 271.834 364.754 270.923H366.158C366.117 271.729 365.865 272.465 365.401 273.132C364.937 273.792 364.319 274.308 363.545 274.683C362.78 275.057 361.958 275.244 361.08 275.244C359.346 275.244 357.971 274.642 356.954 273.438C355.944 272.233 355.44 270.614 355.44 268.579V268.14C355.44 266.838 355.668 265.686 356.124 264.685C356.579 263.684 357.23 262.911 358.077 262.366C358.931 261.82 359.928 261.548 361.067 261.548C362.516 261.548 363.708 261.979 364.644 262.842C365.588 263.704 366.093 264.84 366.158 266.248H364.754C364.689 265.214 364.314 264.38 363.631 263.745C362.955 263.11 362.101 262.793 361.067 262.793C359.749 262.793 358.724 263.269 357.991 264.221C357.267 265.173 356.905 266.508 356.905 268.225V268.652C356.905 270.337 357.267 271.651 357.991 272.595C358.724 273.539 359.753 274.011 361.08 274.011ZM370.723 275H369.258V261.792H370.723V275ZM369.002 257.971C369.002 257.694 369.091 257.463 369.271 257.275C369.45 257.08 369.694 256.982 370.003 256.982C370.312 256.982 370.556 257.08 370.735 257.275C370.923 257.463 371.016 257.694 371.016 257.971C371.016 258.248 370.923 258.48 370.735 258.667C370.556 258.854 370.312 258.948 370.003 258.948C369.694 258.948 369.45 258.854 369.271 258.667C369.091 258.48 369.002 258.248 369.002 257.971ZM373.897 268.201C373.897 266.931 374.141 265.788 374.629 264.771C375.126 263.753 375.822 262.964 376.717 262.402C377.62 261.833 378.641 261.548 379.781 261.548C381.539 261.548 382.963 262.166 384.053 263.403C385.144 264.632 385.689 266.264 385.689 268.298V268.604C385.689 269.881 385.441 271.033 384.944 272.058C384.456 273.075 383.764 273.861 382.869 274.414C381.974 274.967 380.953 275.244 379.805 275.244C378.056 275.244 376.631 274.63 375.533 273.401C374.442 272.164 373.897 270.528 373.897 268.494V268.201ZM375.362 268.604C375.362 270.182 375.769 271.48 376.583 272.498C377.404 273.507 378.479 274.011 379.805 274.011C381.124 274.011 382.19 273.507 383.003 272.498C383.825 271.48 384.236 270.142 384.236 268.481V268.201C384.236 267.192 384.049 266.268 383.675 265.43C383.3 264.591 382.776 263.944 382.1 263.489C381.425 263.025 380.652 262.793 379.781 262.793C378.479 262.793 377.417 263.306 376.595 264.331C375.773 265.348 375.362 266.683 375.362 268.335V268.604ZM381.233 256.25H383.003L380.184 259.668H378.902L381.233 256.25ZM390.108 261.792L390.157 264.05C390.653 263.236 391.272 262.618 392.012 262.195C392.753 261.764 393.571 261.548 394.466 261.548C395.882 261.548 396.936 261.947 397.627 262.744C398.319 263.542 398.669 264.738 398.677 266.333V275H397.225V266.321C397.216 265.141 396.964 264.262 396.468 263.684C395.979 263.106 395.194 262.817 394.112 262.817C393.208 262.817 392.407 263.102 391.707 263.672C391.015 264.233 390.503 264.994 390.169 265.955V275H388.716V261.792H390.108ZM275.691 305.244C274.568 305.244 273.551 304.967 272.64 304.414C271.736 303.861 271.032 303.092 270.528 302.107C270.023 301.114 269.771 300.003 269.771 298.774V298.25C269.771 296.98 270.015 295.837 270.503 294.819C271 293.802 271.688 293.005 272.566 292.427C273.445 291.841 274.397 291.548 275.423 291.548C277.026 291.548 278.296 292.097 279.231 293.196C280.175 294.286 280.647 295.78 280.647 297.676V298.494H271.224V298.774C271.224 300.272 271.651 301.521 272.505 302.522C273.368 303.515 274.45 304.011 275.752 304.011C276.534 304.011 277.221 303.869 277.815 303.584C278.418 303.299 278.963 302.843 279.451 302.217L280.367 302.913C279.292 304.467 277.734 305.244 275.691 305.244ZM275.423 292.793C274.324 292.793 273.396 293.196 272.64 294.001C271.891 294.807 271.435 295.889 271.272 297.249H279.195V297.09C279.154 295.82 278.792 294.787 278.108 293.989C277.425 293.192 276.53 292.793 275.423 292.793ZM288.375 304.011C289.392 304.011 290.242 303.726 290.926 303.157C291.618 302.579 291.992 301.834 292.049 300.923H293.453C293.412 301.729 293.16 302.465 292.696 303.132C292.232 303.792 291.613 304.308 290.84 304.683C290.075 305.057 289.253 305.244 288.375 305.244C286.641 305.244 285.266 304.642 284.249 303.438C283.239 302.233 282.735 300.614 282.735 298.579V298.14C282.735 296.838 282.963 295.686 283.418 294.685C283.874 293.684 284.525 292.911 285.372 292.366C286.226 291.82 287.223 291.548 288.362 291.548C289.811 291.548 291.003 291.979 291.939 292.842C292.883 293.704 293.388 294.84 293.453 296.248H292.049C291.984 295.214 291.609 294.38 290.926 293.745C290.25 293.11 289.396 292.793 288.362 292.793C287.044 292.793 286.019 293.269 285.286 294.221C284.562 295.173 284.2 296.508 284.2 298.225V298.652C284.2 300.337 284.562 301.651 285.286 302.595C286.019 303.539 287.048 304.011 288.375 304.011ZM295.577 298.201C295.577 296.931 295.821 295.788 296.309 294.771C296.806 293.753 297.501 292.964 298.396 292.402C299.3 291.833 300.321 291.548 301.46 291.548C303.218 291.548 304.642 292.166 305.733 293.403C306.823 294.632 307.369 296.264 307.369 298.298V298.604C307.369 299.881 307.12 301.033 306.624 302.058C306.136 303.075 305.444 303.861 304.549 304.414C303.654 304.967 302.632 305.244 301.485 305.244C299.735 305.244 298.311 304.63 297.212 303.401C296.122 302.164 295.577 300.528 295.577 298.494V298.201ZM297.042 298.604C297.042 300.182 297.448 301.48 298.262 302.498C299.084 303.507 300.158 304.011 301.485 304.011C302.803 304.011 303.869 303.507 304.683 302.498C305.505 301.48 305.916 300.142 305.916 298.481V298.201C305.916 297.192 305.729 296.268 305.354 295.43C304.98 294.591 304.455 293.944 303.78 293.489C303.104 293.025 302.331 292.793 301.46 292.793C300.158 292.793 299.096 293.306 298.274 294.331C297.452 295.348 297.042 296.683 297.042 298.335V298.604ZM311.788 291.792L311.836 294.05C312.333 293.236 312.951 292.618 313.692 292.195C314.432 291.764 315.25 291.548 316.146 291.548C317.562 291.548 318.615 291.947 319.307 292.744C319.999 293.542 320.349 294.738 320.357 296.333V305H318.904V296.321C318.896 295.141 318.644 294.262 318.147 293.684C317.659 293.106 316.874 292.817 315.792 292.817C314.888 292.817 314.087 293.102 313.387 293.672C312.695 294.233 312.182 294.994 311.849 295.955V305H310.396V291.792H311.788ZM323.335 298.201C323.335 296.931 323.58 295.788 324.068 294.771C324.564 293.753 325.26 292.964 326.155 292.402C327.059 291.833 328.08 291.548 329.219 291.548C330.977 291.548 332.401 292.166 333.492 293.403C334.582 294.632 335.127 296.264 335.127 298.298V298.604C335.127 299.881 334.879 301.033 334.383 302.058C333.895 303.075 333.203 303.861 332.308 304.414C331.412 304.967 330.391 305.244 329.244 305.244C327.494 305.244 326.07 304.63 324.971 303.401C323.881 302.164 323.335 300.528 323.335 298.494V298.201ZM324.8 298.604C324.8 300.182 325.207 301.48 326.021 302.498C326.843 303.507 327.917 304.011 329.244 304.011C330.562 304.011 331.628 303.507 332.442 302.498C333.264 301.48 333.675 300.142 333.675 298.481V298.201C333.675 297.192 333.488 296.268 333.113 295.43C332.739 294.591 332.214 293.944 331.539 293.489C330.863 293.025 330.09 292.793 329.219 292.793C327.917 292.793 326.855 293.306 326.033 294.331C325.211 295.348 324.8 296.683 324.8 298.335V298.604ZM330.672 286.25H332.442L329.622 289.668H328.34L330.672 286.25ZM339.485 291.792L339.534 293.94C340.022 293.143 340.633 292.545 341.365 292.146C342.098 291.747 342.911 291.548 343.807 291.548C345.89 291.548 347.212 292.402 347.774 294.111C348.246 293.289 348.877 292.659 349.666 292.219C350.455 291.772 351.326 291.548 352.278 291.548C355.11 291.548 356.555 293.094 356.612 296.187V305H355.147V296.296C355.139 295.116 354.882 294.242 354.378 293.672C353.882 293.102 353.068 292.817 351.937 292.817C350.887 292.834 350 293.175 349.275 293.843C348.551 294.502 348.148 295.308 348.067 296.26V305H346.602V296.187C346.594 295.055 346.325 294.213 345.796 293.66C345.276 293.098 344.47 292.817 343.379 292.817C342.46 292.817 341.67 293.082 341.011 293.611C340.352 294.132 339.864 294.909 339.546 295.942V305H338.082V291.792H339.485ZM361.958 305H360.494V291.792H361.958V305ZM360.237 287.971C360.237 287.694 360.327 287.463 360.506 287.275C360.685 287.08 360.929 286.982 361.238 286.982C361.548 286.982 361.792 287.08 361.971 287.275C362.158 287.463 362.251 287.694 362.251 287.971C362.251 288.248 362.158 288.48 361.971 288.667C361.792 288.854 361.548 288.948 361.238 288.948C360.929 288.948 360.685 288.854 360.506 288.667C360.327 288.48 360.237 288.248 360.237 287.971ZM370.821 304.011C371.838 304.011 372.688 303.726 373.372 303.157C374.064 302.579 374.438 301.834 374.495 300.923H375.899C375.858 301.729 375.606 302.465 375.142 303.132C374.678 303.792 374.06 304.308 373.287 304.683C372.522 305.057 371.7 305.244 370.821 305.244C369.087 305.244 367.712 304.642 366.695 303.438C365.686 302.233 365.181 300.614 365.181 298.579V298.14C365.181 296.838 365.409 295.686 365.865 294.685C366.32 293.684 366.972 292.911 367.818 292.366C368.672 291.82 369.669 291.548 370.809 291.548C372.257 291.548 373.449 291.979 374.385 292.842C375.329 293.704 375.834 294.84 375.899 296.248H374.495C374.43 295.214 374.056 294.38 373.372 293.745C372.697 293.11 371.842 292.793 370.809 292.793C369.49 292.793 368.465 293.269 367.732 294.221C367.008 295.173 366.646 296.508 366.646 298.225V298.652C366.646 300.337 367.008 301.651 367.732 302.595C368.465 303.539 369.494 304.011 370.821 304.011ZM387.166 305C387.02 304.585 386.926 303.971 386.885 303.157C386.373 303.824 385.717 304.341 384.92 304.707C384.131 305.065 383.292 305.244 382.405 305.244C381.136 305.244 380.106 304.89 379.317 304.182C378.536 303.474 378.145 302.579 378.145 301.497C378.145 300.211 378.678 299.194 379.744 298.445C380.818 297.696 382.312 297.322 384.224 297.322H386.873V295.82C386.873 294.876 386.58 294.136 385.994 293.599C385.416 293.053 384.57 292.781 383.455 292.781C382.438 292.781 381.596 293.041 380.928 293.562C380.261 294.083 379.927 294.709 379.927 295.442L378.462 295.43C378.462 294.38 378.951 293.472 379.927 292.708C380.904 291.934 382.104 291.548 383.528 291.548C385.001 291.548 386.161 291.918 387.007 292.659C387.862 293.391 388.301 294.417 388.326 295.735V301.985C388.326 303.263 388.46 304.219 388.729 304.854V305H387.166ZM382.576 303.95C383.553 303.95 384.424 303.714 385.188 303.242C385.962 302.77 386.523 302.139 386.873 301.35V298.445H384.261C382.804 298.461 381.665 298.73 380.843 299.25C380.021 299.763 379.61 300.471 379.61 301.375C379.61 302.115 379.882 302.729 380.428 303.218C380.981 303.706 381.697 303.95 382.576 303.95Z" fill="#F4F4F4"/>
<path d="M256.719 94.7031C256.719 93.776 256.344 93.0312 255.594 92.4688C254.854 91.9062 253.734 91.4688 252.234 91.1562C250.734 90.8333 249.568 90.4688 248.734 90.0625C247.911 89.6458 247.297 89.1406 246.891 88.5469C246.495 87.9531 246.297 87.2344 246.297 86.3906C246.297 85.0573 246.854 83.9583 247.969 83.0938C249.083 82.2188 250.51 81.7812 252.25 81.7812C254.135 81.7812 255.646 82.25 256.781 83.1875C257.927 84.1146 258.5 85.3281 258.5 86.8281H256.625C256.625 85.8385 256.208 85.0156 255.375 84.3594C254.552 83.7031 253.51 83.375 252.25 83.375C251.021 83.375 250.031 83.651 249.281 84.2031C248.542 84.7448 248.172 85.4531 248.172 86.3281C248.172 87.1719 248.479 87.8281 249.094 88.2969C249.719 88.7552 250.849 89.1771 252.484 89.5625C254.13 89.9479 255.359 90.3594 256.172 90.7969C256.995 91.2344 257.604 91.7604 258 92.375C258.396 92.9896 258.594 93.7344 258.594 94.6094C258.594 96.0365 258.016 97.1771 256.859 98.0312C255.714 98.8854 254.214 99.3125 252.359 99.3125C250.391 99.3125 248.792 98.8385 247.562 97.8906C246.344 96.9323 245.734 95.724 245.734 94.2656H247.609C247.682 95.3594 248.141 96.2135 248.984 96.8281C249.839 97.4323 250.964 97.7344 252.359 97.7344C253.661 97.7344 254.714 97.4479 255.516 96.875C256.318 96.3021 256.719 95.5781 256.719 94.7031ZM269.359 99.3125C267.922 99.3125 266.62 98.9583 265.453 98.25C264.297 97.5417 263.396 96.5573 262.75 95.2969C262.104 94.026 261.781 92.6042 261.781 91.0312V90.3594C261.781 88.7344 262.094 87.2708 262.719 85.9688C263.354 84.6667 264.234 83.6458 265.359 82.9062C266.484 82.1562 267.703 81.7812 269.016 81.7812C271.068 81.7812 272.693 82.4844 273.891 83.8906C275.099 85.2865 275.703 87.1979 275.703 89.625V90.6719H263.641V91.0312C263.641 92.9479 264.188 94.5469 265.281 95.8281C266.385 97.099 267.771 97.7344 269.438 97.7344C270.438 97.7344 271.318 97.5521 272.078 97.1875C272.849 96.8229 273.547 96.2396 274.172 95.4375L275.344 96.3281C273.969 98.3177 271.974 99.3125 269.359 99.3125ZM269.016 83.375C267.609 83.375 266.422 83.8906 265.453 84.9219C264.495 85.9531 263.911 87.3385 263.703 89.0781H273.844V88.875C273.792 87.25 273.328 85.9271 272.453 84.9062C271.578 83.8854 270.432 83.375 269.016 83.375ZM278.594 90.3906C278.594 87.7448 279.177 85.651 280.344 84.1094C281.521 82.5573 283.115 81.7812 285.125 81.7812C287.427 81.7812 289.177 82.6979 290.375 84.5312L290.469 82.0938H292.219V98.6562C292.219 100.833 291.609 102.557 290.391 103.828C289.172 105.099 287.521 105.734 285.438 105.734C284.26 105.734 283.135 105.469 282.062 104.938C281 104.417 280.161 103.719 279.547 102.844L280.594 101.719C281.917 103.344 283.49 104.156 285.312 104.156C286.875 104.156 288.094 103.693 288.969 102.766C289.844 101.849 290.297 100.573 290.328 98.9375V96.8125C289.13 98.4792 287.385 99.3125 285.094 99.3125C283.135 99.3125 281.562 98.5312 280.375 96.9688C279.188 95.4062 278.594 93.2969 278.594 90.6406V90.3906ZM280.484 90.7188C280.484 92.875 280.917 94.5781 281.781 95.8281C282.646 97.0677 283.865 97.6875 285.438 97.6875C287.74 97.6875 289.37 96.6562 290.328 94.5938V86.7344C289.891 85.651 289.26 84.8281 288.438 84.2656C287.615 83.6927 286.625 83.4062 285.469 83.4062C283.896 83.4062 282.672 84.026 281.797 85.2656C280.922 86.4948 280.484 88.3125 280.484 90.7188ZM307.969 96.8594C306.844 98.4948 305.047 99.3125 302.578 99.3125C300.776 99.3125 299.406 98.7917 298.469 97.75C297.531 96.6979 297.052 95.1458 297.031 93.0938V82.0938H298.891V92.8594C298.891 96.0781 300.193 97.6875 302.797 97.6875C305.505 97.6875 307.219 96.5677 307.938 94.3281V82.0938H309.812V99H308L307.969 96.8594ZM316.469 82.0938L316.531 84.9844C317.167 83.9427 317.958 83.151 318.906 82.6094C319.854 82.0573 320.901 81.7812 322.047 81.7812C323.859 81.7812 325.208 82.2917 326.094 83.3125C326.979 84.3333 327.427 85.8646 327.438 87.9062V99H325.578V87.8906C325.568 86.3802 325.245 85.2552 324.609 84.5156C323.984 83.776 322.979 83.4062 321.594 83.4062C320.438 83.4062 319.411 83.7708 318.516 84.5C317.63 85.2188 316.974 86.1927 316.547 87.4219V99H314.688V82.0938H316.469ZM331.531 90.3906C331.531 87.7656 332.115 85.6771 333.281 84.125C334.458 82.5625 336.052 81.7812 338.062 81.7812C340.344 81.7812 342.083 82.6823 343.281 84.4844V75H345.141V99H343.391L343.312 96.75C342.115 98.4583 340.354 99.3125 338.031 99.3125C336.083 99.3125 334.51 98.5312 333.312 96.9688C332.125 95.3958 331.531 93.276 331.531 90.6094V90.3906ZM333.422 90.7188C333.422 92.875 333.854 94.5781 334.719 95.8281C335.583 97.0677 336.802 97.6875 338.375 97.6875C340.677 97.6875 342.312 96.6719 343.281 94.6406V86.7031C342.312 84.5052 340.688 83.4062 338.406 83.4062C336.833 83.4062 335.609 84.026 334.734 85.2656C333.859 86.4948 333.422 88.3125 333.422 90.7188ZM360.734 99C360.547 98.4688 360.427 97.6823 360.375 96.6406C359.719 97.4948 358.88 98.1562 357.859 98.625C356.849 99.0833 355.776 99.3125 354.641 99.3125C353.016 99.3125 351.698 98.8594 350.688 97.9531C349.688 97.0469 349.188 95.901 349.188 94.5156C349.188 92.8698 349.87 91.5677 351.234 90.6094C352.609 89.651 354.521 89.1719 356.969 89.1719H360.359V87.25C360.359 86.0417 359.984 85.0938 359.234 84.4062C358.495 83.7083 357.411 83.3594 355.984 83.3594C354.682 83.3594 353.604 83.6927 352.75 84.3594C351.896 85.026 351.469 85.8281 351.469 86.7656L349.594 86.75C349.594 85.4062 350.219 84.2448 351.469 83.2656C352.719 82.276 354.255 81.7812 356.078 81.7812C357.964 81.7812 359.448 82.2552 360.531 83.2031C361.625 84.1406 362.188 85.4531 362.219 87.1406V95.1406C362.219 96.776 362.391 98 362.734 98.8125V99H360.734ZM354.859 97.6562C356.109 97.6562 357.224 97.3542 358.203 96.75C359.193 96.1458 359.911 95.3385 360.359 94.3281V90.6094H357.016C355.151 90.6302 353.693 90.974 352.641 91.6406C351.589 92.2969 351.062 93.2031 351.062 94.3594C351.062 95.3073 351.411 96.0938 352.109 96.7188C352.818 97.3438 353.734 97.6562 354.859 97.6562ZM373.969 90.2969C373.969 88.6719 374.281 87.2083 374.906 85.9062C375.542 84.6042 376.432 83.5938 377.578 82.875C378.734 82.1458 380.042 81.7812 381.5 81.7812C383.75 81.7812 385.573 82.5729 386.969 84.1562C388.365 85.7292 389.062 87.8177 389.062 90.4219V90.8125C389.062 92.4479 388.745 93.9219 388.109 95.2344C387.484 96.5365 386.599 97.5417 385.453 98.25C384.307 98.9583 383 99.3125 381.531 99.3125C379.292 99.3125 377.469 98.526 376.062 96.9531C374.667 95.3698 373.969 93.276 373.969 90.6719V90.2969ZM375.844 90.8125C375.844 92.8333 376.365 94.4948 377.406 95.7969C378.458 97.0885 379.833 97.7344 381.531 97.7344C383.219 97.7344 384.583 97.0885 385.625 95.7969C386.677 94.4948 387.203 92.7812 387.203 90.6562V90.2969C387.203 89.0052 386.964 87.8229 386.484 86.75C386.005 85.6771 385.333 84.849 384.469 84.2656C383.604 83.6719 382.615 83.375 381.5 83.375C379.833 83.375 378.474 84.0312 377.422 85.3438C376.37 86.6458 375.844 88.3542 375.844 90.4688V90.8125ZM395.031 99H393.156V75H395.031V99ZM410.797 99C410.609 98.4688 410.49 97.6823 410.438 96.6406C409.781 97.4948 408.943 98.1562 407.922 98.625C406.911 99.0833 405.839 99.3125 404.703 99.3125C403.078 99.3125 401.76 98.8594 400.75 97.9531C399.75 97.0469 399.25 95.901 399.25 94.5156C399.25 92.8698 399.932 91.5677 401.297 90.6094C402.672 89.651 404.583 89.1719 407.031 89.1719H410.422V87.25C410.422 86.0417 410.047 85.0938 409.297 84.4062C408.557 83.7083 407.474 83.3594 406.047 83.3594C404.745 83.3594 403.667 83.6927 402.812 84.3594C401.958 85.026 401.531 85.8281 401.531 86.7656L399.656 86.75C399.656 85.4062 400.281 84.2448 401.531 83.2656C402.781 82.276 404.318 81.7812 406.141 81.7812C408.026 81.7812 409.51 82.2552 410.594 83.2031C411.688 84.1406 412.25 85.4531 412.281 87.1406V95.1406C412.281 96.776 412.453 98 412.797 98.8125V99H410.797ZM404.922 97.6562C406.172 97.6562 407.286 97.3542 408.266 96.75C409.255 96.1458 409.974 95.3385 410.422 94.3281V90.6094H407.078C405.214 90.6302 403.755 90.974 402.703 91.6406C401.651 92.2969 401.125 93.2031 401.125 94.3594C401.125 95.3073 401.474 96.0938 402.172 96.7188C402.88 97.3438 403.797 97.6562 404.922 97.6562ZM250.531 128.391C250.531 125.766 251.115 123.677 252.281 122.125C253.458 120.562 255.052 119.781 257.062 119.781C259.344 119.781 261.083 120.682 262.281 122.484V113H264.141V137H262.391L262.312 134.75C261.115 136.458 259.354 137.312 257.031 137.312C255.083 137.312 253.51 136.531 252.312 134.969C251.125 133.396 250.531 131.276 250.531 128.609V128.391ZM252.422 128.719C252.422 130.875 252.854 132.578 253.719 133.828C254.583 135.068 255.802 135.688 257.375 135.688C259.677 135.688 261.312 134.672 262.281 132.641V124.703C261.312 122.505 259.688 121.406 257.406 121.406C255.833 121.406 254.609 122.026 253.734 123.266C252.859 124.495 252.422 126.312 252.422 128.719ZM275.609 137.312C274.172 137.312 272.87 136.958 271.703 136.25C270.547 135.542 269.646 134.557 269 133.297C268.354 132.026 268.031 130.604 268.031 129.031V128.359C268.031 126.734 268.344 125.271 268.969 123.969C269.604 122.667 270.484 121.646 271.609 120.906C272.734 120.156 273.953 119.781 275.266 119.781C277.318 119.781 278.943 120.484 280.141 121.891C281.349 123.286 281.953 125.198 281.953 127.625V128.672H269.891V129.031C269.891 130.948 270.438 132.547 271.531 133.828C272.635 135.099 274.021 135.734 275.688 135.734C276.688 135.734 277.568 135.552 278.328 135.188C279.099 134.823 279.797 134.24 280.422 133.438L281.594 134.328C280.219 136.318 278.224 137.312 275.609 137.312ZM275.266 121.375C273.859 121.375 272.672 121.891 271.703 122.922C270.745 123.953 270.161 125.339 269.953 127.078H280.094V126.875C280.042 125.25 279.578 123.927 278.703 122.906C277.828 121.885 276.682 121.375 275.266 121.375ZM299.625 135.734C300.927 135.734 302.016 135.37 302.891 134.641C303.776 133.901 304.255 132.948 304.328 131.781H306.125C306.073 132.812 305.75 133.755 305.156 134.609C304.562 135.453 303.771 136.115 302.781 136.594C301.802 137.073 300.75 137.312 299.625 137.312C297.406 137.312 295.646 136.542 294.344 135C293.052 133.458 292.406 131.385 292.406 128.781V128.219C292.406 126.552 292.698 125.078 293.281 123.797C293.865 122.516 294.698 121.526 295.781 120.828C296.875 120.13 298.151 119.781 299.609 119.781C301.464 119.781 302.99 120.333 304.188 121.438C305.396 122.542 306.042 123.995 306.125 125.797H304.328C304.245 124.474 303.766 123.406 302.891 122.594C302.026 121.781 300.932 121.375 299.609 121.375C297.922 121.375 296.609 121.984 295.672 123.203C294.745 124.422 294.281 126.13 294.281 128.328V128.875C294.281 131.031 294.745 132.714 295.672 133.922C296.609 135.13 297.927 135.734 299.625 135.734ZM308.844 128.297C308.844 126.672 309.156 125.208 309.781 123.906C310.417 122.604 311.307 121.594 312.453 120.875C313.609 120.146 314.917 119.781 316.375 119.781C318.625 119.781 320.448 120.573 321.844 122.156C323.24 123.729 323.938 125.818 323.938 128.422V128.812C323.938 130.448 323.62 131.922 322.984 133.234C322.359 134.536 321.474 135.542 320.328 136.25C319.182 136.958 317.875 137.312 316.406 137.312C314.167 137.312 312.344 136.526 310.938 134.953C309.542 133.37 308.844 131.276 308.844 128.672V128.297ZM310.719 128.812C310.719 130.833 311.24 132.495 312.281 133.797C313.333 135.089 314.708 135.734 316.406 135.734C318.094 135.734 319.458 135.089 320.5 133.797C321.552 132.495 322.078 130.781 322.078 128.656V128.297C322.078 127.005 321.839 125.823 321.359 124.75C320.88 123.677 320.208 122.849 319.344 122.266C318.479 121.672 317.49 121.375 316.375 121.375C314.708 121.375 313.349 122.031 312.297 123.344C311.245 124.646 310.719 126.354 310.719 128.469V128.812ZM332.828 134.422L337.969 120.094H339.891L333.578 137H332.062L325.719 120.094H327.641L332.828 134.422ZM345.062 137H343.188V120.094H345.062V137ZM342.859 115.203C342.859 114.849 342.974 114.552 343.203 114.312C343.432 114.062 343.745 113.938 344.141 113.938C344.536 113.938 344.849 114.062 345.078 114.312C345.318 114.552 345.438 114.849 345.438 115.203C345.438 115.557 345.318 115.854 345.078 116.094C344.849 116.333 344.536 116.453 344.141 116.453C343.745 116.453 343.432 116.333 343.203 116.094C342.974 115.854 342.859 115.557 342.859 115.203ZM349.406 128.391C349.406 125.766 349.99 123.677 351.156 122.125C352.333 120.562 353.927 119.781 355.938 119.781C358.219 119.781 359.958 120.682 361.156 122.484V113H363.016V137H361.266L361.188 134.75C359.99 136.458 358.229 137.312 355.906 137.312C353.958 137.312 352.385 136.531 351.188 134.969C350 133.396 349.406 131.276 349.406 128.609V128.391ZM351.297 128.719C351.297 130.875 351.729 132.578 352.594 133.828C353.458 135.068 354.677 135.688 356.25 135.688C358.552 135.688 360.188 134.672 361.156 132.641V124.703C360.188 122.505 358.562 121.406 356.281 121.406C354.708 121.406 353.484 122.026 352.609 123.266C351.734 124.495 351.297 126.312 351.297 128.719ZM373.75 127.75H366.266V126.172H373.75V127.75ZM385.5 137H383.625V116.5L377.438 118.797V117.047L385.188 114.172H385.5V137ZM406.219 126.469C405.552 127.448 404.724 128.208 403.734 128.75C402.745 129.281 401.672 129.547 400.516 129.547C399.224 129.547 398.083 129.214 397.094 128.547C396.104 127.88 395.339 126.958 394.797 125.781C394.255 124.604 393.984 123.318 393.984 121.922C393.984 120.422 394.271 119.057 394.844 117.828C395.427 116.599 396.234 115.646 397.266 114.969C398.307 114.281 399.505 113.938 400.859 113.938C403.141 113.938 404.917 114.74 406.188 116.344C407.458 117.938 408.094 120.203 408.094 123.141V124.828C408.094 128.932 407.219 132.016 405.469 134.078C403.719 136.141 401.047 137.172 397.453 137.172H397.109L397.125 135.547H397.781C400.5 135.505 402.568 134.734 403.984 133.234C405.401 131.734 406.146 129.479 406.219 126.469ZM400.75 127.938C402 127.938 403.12 127.568 404.109 126.828C405.109 126.078 405.818 125.109 406.234 123.922V122.844C406.234 120.531 405.75 118.74 404.781 117.469C403.823 116.188 402.526 115.547 400.891 115.547C399.411 115.547 398.198 116.146 397.25 117.344C396.302 118.531 395.828 120.031 395.828 121.844C395.828 123.583 396.281 125.036 397.188 126.203C398.104 127.359 399.292 127.938 400.75 127.938Z" fill="#F4F4F4"/>
</g>
<defs>
<clipPath id="clip0">
<rect width="657" height="328" fill="white"/>
</clipPath>
</defs>
</svg>
