<svg width="657" height="153" viewBox="0 0 657 153" fill="none" xmlns="http://www.w3.org/2000/svg">
<g clip-path="url(#clip0)">
<path d="M55.4483 72.8408H53.9483V74.3408V87.0299H20.5V33.2734H97.3138V49.7178H55.4483H53.9483V51.2178V56.9985V58.4985H55.4483H97.3138V72.8408H55.4483Z" stroke="#F4F4F4" stroke-width="3"/>
<path d="M147.212 45.5845H145.712V47.0845V58.4358V59.9358H147.212H158.324C162.46 59.9358 165.395 59.4232 167.295 58.0752C169.363 56.6074 169.878 54.4171 169.878 52.1002C169.878 50.9571 169.63 49.8957 169.059 48.9699C168.488 48.0436 167.658 47.359 166.666 46.8642C164.749 45.9076 162.068 45.5845 158.853 45.5845H147.212ZM181.106 66.1258L203.234 87.0299H165.069L148.582 69.0377L148.136 68.551H147.476H147.212H145.712V70.051V87.0299H112.729V33.2734H178.696C186.623 33.2734 192.714 34.7057 196.774 37.2949C200.749 39.8297 202.86 43.5152 202.86 48.4044C202.86 53.4854 200.418 57.0016 196.612 59.4125C192.736 61.8682 187.456 63.1524 182.029 63.5392L178.625 63.7818L181.106 66.1258Z" stroke="#F4F4F4" stroke-width="3"/>
<path d="M253.772 73.5525V75.0525H255.272H297.735V87.0299H220.921V33.2734H297.735V48.1412H255.272H253.772V49.6412V55.1592V56.6592H255.272H297.735V66.7973H255.272H253.772V68.2973V73.5525Z" stroke="#F4F4F4" stroke-width="3"/>
<path d="M347.397 33.2734V87.0299H314.924V33.2734H347.397Z" stroke="#F4F4F4" stroke-width="3"/>
<path d="M419.627 52.6082H418.127V54.1082V87.0299H384.311V54.1082V52.6082H382.811H362.812V33.2734H439.626V52.6082H419.627Z" stroke="#F4F4F4" stroke-width="3"/>
<path d="M500.099 67.1697H502.278L501.5 65.1342L493.567 44.376L493.198 43.4115H492.165H491.901H490.843L490.488 44.4075L483.083 65.1657L482.369 67.1697H484.496H500.099ZM480.53 79.6726H479.475L479.118 80.6652L476.83 87.0299H443.343L464.884 33.2734H519.98L541.771 87.0299H507.801L505.757 80.7109L505.421 79.6726H504.33H480.53Z" stroke="#F4F4F4" stroke-width="3"/>
<path d="M604.842 76.9923H606.342V75.4923V61.1229H635.969V84.1142C623.3 87.3183 611.901 88.8037 594.231 88.8037C580.282 88.8037 568.927 86.631 561.107 82.0038C553.4 77.4429 549.044 70.4581 549.044 60.4164C549.044 54.8436 550.359 50.3168 552.665 46.642C554.975 42.9618 558.333 40.0523 562.542 37.803C571.005 33.2814 582.78 31.5 595.823 31.5C611.695 31.5 620.59 32.4881 634.908 34.2371V51.3286C626.309 50.3904 615.461 49.9237 606.964 49.9237C601.81 49.9237 595.8 50.1113 591.054 51.7589C588.658 52.5904 586.477 53.8283 584.893 55.6983C583.285 57.5954 582.386 60.0319 582.386 63.0613C582.386 67.9781 584.229 71.5702 587.459 73.8708C590.604 76.1106 594.876 76.9923 599.537 76.9923H604.842Z" stroke="#F4F4F4" stroke-width="3"/>
<path d="M383.884 115.699L368.582 85.2026C368.087 84.2154 366.885 83.8166 365.898 84.312L352.334 91.1179C351.346 91.6133 350.948 92.8152 351.443 93.8024L366.898 124.603C367.764 126.329 370.331 125.947 370.657 124.043L371.973 116.34C372.205 114.984 373.704 114.261 374.908 114.924L381.133 118.348C382.853 119.295 384.765 117.454 383.884 115.699Z" stroke="#F4F4F4" stroke-width="3"/>
<path d="M331.885 115.699L347.187 85.2026C347.682 84.2154 348.884 83.8166 349.872 84.312L363.436 91.1179C364.423 91.6133 364.822 92.8152 364.326 93.8024L348.872 124.603C348.006 126.329 345.438 125.947 345.113 124.043L343.797 116.34C343.565 114.984 342.066 114.261 340.861 114.924L334.637 118.348C332.916 119.295 331.005 117.454 331.885 115.699Z" stroke="#F4F4F4" stroke-width="3"/>
<circle cx="357.761" cy="88.5" r="19.5" fill="#1D1D1B" stroke="#44639E" stroke-width="4"/>
</g>
<defs>
<clipPath id="clip0">
<rect width="657" height="153" fill="white"/>
</clipPath>
</defs>
</svg>
