<svg width="430" height="244" viewBox="0 0 430 244" fill="none" xmlns="http://www.w3.org/2000/svg">
<path d="M89 69.4583C103.141 71.3241 116 79 123.5 88.5M89 174.542C103.141 172.676 116 164.5 123.5 155.5" stroke="#F4F4F4" stroke-width="2" stroke-linecap="round"/>
<path d="M425 23L139 88.5M425 221L139 155.5" stroke="#F4F4F4" stroke-width="2" stroke-linecap="round" stroke-linejoin="round" stroke-dasharray="15 15"/>
<path d="M121.833 50.4967L47.5 121.497L121.833 195.833" stroke="#F4F4F4" stroke-width="2" stroke-linecap="round" stroke-linejoin="round"/>
<mask id="path-5-inside-1" fill="white">
<path fill-rule="evenodd" clip-rule="evenodd" d="M123.5 157.338C131.895 147.961 137 135.577 137 122C137 108.423 131.895 96.0389 123.5 86.6616C115.105 96.0389 110 108.423 110 122C110 135.577 115.105 147.961 123.5 157.338Z"/>
</mask>
<path d="M123.5 157.338L122.01 158.672L123.5 160.337L124.99 158.672L123.5 157.338ZM123.5 86.6616L124.99 85.3276L123.5 83.6632L122.01 85.3276L123.5 86.6616ZM135 122C135 135.066 130.089 146.98 122.01 156.004L124.99 158.672C133.701 148.943 139 136.088 139 122H135ZM122.01 87.9956C130.089 97.0204 135 108.934 135 122H139C139 107.912 133.701 95.0574 124.99 85.3276L122.01 87.9956ZM112 122C112 108.934 116.911 97.0204 124.99 87.9956L122.01 85.3276C113.299 95.0574 108 107.912 108 122H112ZM124.99 156.004C116.911 146.98 112 135.066 112 122H108C108 136.088 113.299 148.943 122.01 158.672L124.99 156.004Z" fill="#4F478B" mask="url(#path-5-inside-1)"/>
<mask id="path-7-inside-2" fill="white">
<path fill-rule="evenodd" clip-rule="evenodd" d="M134 133.779C135.866 130.654 137 126.525 137 122C137 117.474 135.866 113.346 134 110.22C132.134 113.346 131 117.474 131 122C131 126.525 132.134 130.654 134 133.779Z"/>
</mask>
<path fill-rule="evenodd" clip-rule="evenodd" d="M134 133.779C135.866 130.654 137 126.525 137 122C137 117.474 135.866 113.346 134 110.22C132.134 113.346 131 117.474 131 122C131 126.525 132.134 130.654 134 133.779Z" fill="#4F478B"/>
<path d="M134 133.779L132.283 134.804L134 137.682L135.717 134.804L134 133.779ZM134 110.22L135.717 109.195L134 106.318L132.283 109.195L134 110.22ZM135 122C135 126.207 133.943 129.973 132.283 132.754L135.717 134.804C137.788 131.335 139 126.844 139 122H135ZM132.283 111.245C133.943 114.027 135 117.793 135 122H139C139 117.155 137.788 112.665 135.717 109.195L132.283 111.245ZM133 122C133 117.793 134.057 114.027 135.717 111.245L132.283 109.195C130.212 112.665 129 117.155 129 122H133ZM135.717 132.754C134.057 129.973 133 126.207 133 122H129C129 126.844 130.212 131.335 132.283 134.804L135.717 132.754Z" fill="#4F478B" mask="url(#path-7-inside-2)"/>
</svg>
