<svg width="657" height="304" viewBox="0 0 657 304" fill="none" xmlns="http://www.w3.org/2000/svg">
<g clip-path="url(#clip0)">
<path d="M500 49C508 36.1667 529.1 12.3 549.5 19.5C575 28.5 574.5 80 558 127.5C544.8 165.5 506.167 208 488.5 224.5" stroke="#F4F4F4" stroke-width="2"/>
<path d="M500.921 59.4448C507.822 48.4355 529.024 20.9612 546.623 27.1378C568.62 34.8586 564.189 86.0386 549.955 126.787C538.568 159.386 508.24 193.845 493 208" stroke="#F4F4F4" stroke-width="2"/>
<path d="M161.144 49.0003C154.5 30.5006 124.968 2.0891 104.644 9.50033C74.5 20.4924 82.5 60.5006 99 108.001C112.2 146.001 134.5 180.501 156 198.001" stroke="#F4F4F4" stroke-width="2"/>
<path d="M158 58.765C151.86 41.6019 125.567 10.2432 106.784 17.1189C82 26.1912 93.3185 67.4344 109.568 112.502C114.232 125.441 126.5 156.5 151.246 183" stroke="#F4F4F4" stroke-width="2"/>
<path d="M335.5 15C376.5 15 461.5 49 500 49C500 72 523.373 115.173 520.5 136C518.5 150.5 507 170 497.5 193.5C486.181 221.5 484.5 244.5 481 247C478.2 249 466.5 247.167 461.5 245.5C444.167 261.667 395.1 294 337.5 294C279.9 294 218.5 257 195 239.5C195.973 242.777 184.25 243.064 177.5 241.5C164 222 145 171.5 145 148C145 127.5 152.852 62.908 161.5 49C208.99 47.1868 291 15 335.5 15Z" stroke="#F4F4F4" stroke-width="2" stroke-linecap="round"/>
<path d="M335.308 34C371.316 34 450 60 490 70C495 90 508.523 118.711 506 137C502.551 162 483 221.511 463.094 235.728C426.381 261.948 383.125 277 337.064 277C276.446 277 233 249 188.5 223.5C176.644 206.376 163 168.428 163 147.792C163 129.79 167.896 77.0698 175.491 64.8566C219 58 296.225 34 335.308 34Z" stroke="#44639E" stroke-width="2" stroke-linecap="round"/>
<path d="M174 135C242.471 130.514 300.53 115.797 321 109" stroke="#44639E" stroke-width="2" stroke-linecap="round"/>
<path d="M493 133C416.48 133 360.45 117 342 109" stroke="#44639E" stroke-width="2" stroke-linecap="round"/>
<path d="M482 166C345.476 204.25 177 166 177 166" stroke="#44639E" stroke-width="2" stroke-linecap="round"/>
<path d="M481 193C339.787 272.229 186 195.971 186 195.971" stroke="#44639E" stroke-width="2" stroke-linecap="round"/>
<path d="M219 59.8463V53.6253C219 52.2481 219.929 51.0506 221.264 50.7115C248.549 43.7786 303.103 28.0003 338.087 28C367.244 27.9997 410.065 42.5624 429.869 48.6098C431.138 48.9973 432 50.1628 432 51.4894V55.6732C432 57.6 430.22 59.0223 428.36 58.5228C410.727 53.7899 376.698 41.2254 338.087 41.2254C303.626 41.2254 248.923 54.5825 222.933 62.7341C220.981 63.3461 219 61.8915 219 59.8463Z" fill="#1D1D1B" stroke="#44639E" stroke-width="2"/>
</g>
<defs>
<clipPath id="clip0">
<rect width="657" height="304" fill="white"/>
</clipPath>
</defs>
</svg>
