<svg width="657" height="328" viewBox="0 0 657 328" fill="none" xmlns="http://www.w3.org/2000/svg">
<g clip-path="url(#clip0)">
<path d="M36.2641 35.8494C33.4732 38.9186 34.3105 41.9244 36.2641 46.3887C38.2178 50.853 48.2653 63.4089 51.3354 65.641C54.4054 67.8732 58.871 82.1032 61.662 88.2417C64.4529 94.3801 75.3377 110.842 79.5241 116.423C83.7106 122.003 89.5716 141.255 89.5716 145.999C89.5716 150.742 89.5716 156.881 94.5954 159.671C99.6191 162.74 105.201 168.041 105.201 171.39C105.201 174.738 104.085 180.597 100.456 180.597C96.8281 180.597 91.5253 166.925 88.7343 164.135C85.9434 161.066 78.1287 152.974 73.6631 151.579C69.1976 150.184 70.8721 138.186 70.3139 133.164C69.4767 128.142 63.8947 123.677 63.8947 119.213C63.8947 114.749 59.1501 110.005 55.8009 110.563C52.4518 111.121 47.7071 114.749 43.5207 110.284C39.3342 105.82 32.6359 97.1703 33.1941 95.4962C33.7523 93.8221 41.0088 97.4493 44.0788 96.3332C47.1489 95.2172 44.637 83.7773 44.3579 81.8242C44.0788 79.8711 22.0302 62.0138 20.9138 58.1075C19.7974 54.2012 19.2392 46.1097 18.1228 41.9244C17.0065 37.7391 8.07536 19.3237 8.07536 15.4175C8.07536 11.5112 7.23807 9 11.1454 9C15.0528 9 33.1941 11.2322 37.9387 12.9063C42.6834 14.5804 45.1952 21.8349 52.1727 23.7881C59.1501 25.7412 78.6869 38.5761 85.9434 38.8551C93.1999 39.1342 124.18 45.8306 126.971 42.2034C129.762 38.5761 131.157 31.3216 135.344 31.3216C139.251 31.3216 154.322 30.7636 157.113 33.8328C159.904 36.902 170.51 45.8306 174.696 50.853C178.883 55.8753 181.394 64.2459 183.348 67.3152C185.302 70.6634 192 78.476 197.861 78.1969C203.722 77.9179 210.979 74.5697 211.537 72.6165C212.095 70.6634 220.468 71.5005 224.654 72.0585C228.562 72.8956 237.214 73.1746 237.214 79.034C237.214 84.8934 245.029 90.4738 248.378 94.6591C251.727 98.5654 257.03 115.307 262.612 120.329C268.473 125.351 277.404 130.653 283.265 131.769C289.126 132.885 294.708 131.49 294.429 135.117C293.871 138.744 283.823 144.325 283.265 147.673C282.707 151.021 283.265 164.972 283.544 169.157C283.823 173.343 280.753 176.412 280.753 180.318C280.753 184.225 288.009 208.778 292.475 216.033C296.941 223.287 302.243 240.866 314.245 247.283C326.246 253.7 340.201 263.466 352.76 260.955C365.319 258.165 365.598 252.026 372.018 252.026C378.437 252.026 387.647 253.421 389.601 247.841C391.554 241.982 398.253 227.752 398.811 220.218C399.648 212.685 403.276 201.524 419.743 201.524C435.931 201.803 443.187 196.78 450.444 199.292C457.7 201.803 460.77 206.825 457.979 207.941C455.188 209.057 446.536 215.475 447.374 219.102C448.49 222.729 449.886 235.285 449.886 240.866C449.886 246.446 445.699 248.399 444.304 245.888C443.187 243.377 439.001 245.051 438.722 247.562C438.443 250.073 427.279 262.071 422.534 261.234C417.789 260.118 401.323 262.629 399.369 262.629C397.695 262.629 397.974 265.14 397.974 268.21C397.974 270.374 396.863 272.538 395.817 273.822C395.135 274.659 393.94 275.029 393.422 275.976C393.028 276.695 393.454 277.741 396.578 279.649C401.602 282.719 407.742 289.136 404.393 289.136C400.765 289.136 384.298 295.553 382.065 300.576C379.832 305.598 379.553 310.063 380.111 314.248C380.67 318.433 376.204 319.549 372.576 315.364C368.948 311.458 351.364 292.484 344.108 292.205C337.131 291.926 329.037 294.716 326.525 300.576C324.013 306.435 315.361 305.598 312.849 305.598C310.337 305.598 282.148 296.391 275.171 293.321C268.194 290.252 245.587 284.393 238.33 278.812C231.074 273.232 219.352 264.024 215.723 264.861C212.095 265.698 204.28 268.21 197.303 259.002C190.605 250.073 169.952 236.68 169.114 232.495C168.277 228.31 165.765 221.334 167.44 218.823C169.114 216.312 171.068 212.406 170.51 207.941C169.952 203.756 159.346 190.642 159.625 186.736C159.904 183.108 148.74 165.53 145.112 163.019C141.484 160.508 128.924 143.209 123.901 140.976C118.877 138.744 109.667 132.885 109.667 127.025C109.667 121.166 109.108 115.865 104.643 115.586C100.177 115.028 95.4327 106.936 94.5954 101.914C93.7581 96.8913 93.479 96.8913 88.4552 93.8221C83.4315 90.7528 76.175 80.1501 73.6631 73.4536C71.1512 66.7571 66.4066 49.8003 59.9874 42.8248C53.5681 35.8494 38.776 32.7801 36.2641 35.8494Z" fill="#262624" stroke="#F4F4F4" stroke-width="2"/>
<path d="M541.89 39H526.618C521.957 39 518.178 42.7786 518.178 47.4397C518.178 52.1008 521.957 55.8794 526.618 55.8794V55.8794C527.519 55.8794 528.184 56.7222 527.974 57.5989L525.012 69.9376C524.313 72.8509 521.832 74.9671 518.871 75.4228C513.563 76.2395 508.42 77.5557 503.491 79.3219C500.739 80.3082 497.629 79.6888 495.617 77.5678L490.15 71.8058C489.673 71.3035 489.791 70.4877 490.391 70.1414V70.1414C493.639 68.2661 494.752 64.1127 492.877 60.8645C491.001 57.6164 486.848 56.5035 483.6 58.3788L472.958 64.5232C469.709 66.3985 468.596 70.5519 470.472 73.8001C472.347 77.0482 476.501 78.1611 479.749 76.2858V76.2858C480.377 75.9231 481.179 76.2431 481.385 76.9386L483.46 83.9405C484.312 86.815 483.185 89.8875 480.809 91.7145C475.447 95.8359 470.599 100.593 466.378 105.874C464.505 108.218 461.426 109.314 458.549 108.461L448.543 105.497C447.718 105.252 447.339 104.301 447.769 103.555V103.555C450.1 99.5186 448.716 94.3569 444.68 92.0264C440.643 89.6958 435.481 91.0789 433.151 95.1155L425.515 108.341C423.184 112.378 424.568 117.54 428.604 119.87C432.641 122.201 437.802 120.818 440.133 116.781V116.781C440.584 116 441.646 115.846 442.3 116.467L450.464 124.213C452.532 126.175 453.177 129.188 452.287 131.897C451.022 135.746 450.03 139.718 449.332 143.791C448.834 146.698 446.733 149.117 443.865 149.805L434.42 152.072C433.747 152.233 433.099 151.723 433.099 151.03V151.03C433.099 147.28 430.059 144.239 426.308 144.239C422.558 144.239 419.517 147.28 419.517 151.03V163.319C419.517 167.07 422.558 170.11 426.308 170.11C430.059 170.11 433.099 167.07 433.099 163.319V163.319C433.099 162.594 433.778 162.059 434.483 162.228L443.58 164.412C446.501 165.113 448.62 167.605 449.068 170.575C449.988 176.666 451.565 182.541 453.725 188.126C454.804 190.917 454.21 194.118 452.039 196.177L442.794 204.949C442.17 205.542 441.156 205.395 440.726 204.649V204.649C438.395 200.613 433.233 199.23 429.197 201.56C425.16 203.891 423.777 209.052 426.108 213.089L433.744 226.315C436.074 230.351 441.236 231.735 445.272 229.404C449.309 227.073 450.692 221.912 448.362 217.875V217.875C447.911 217.094 448.308 216.097 449.173 215.841L462.301 211.952C465.013 211.148 467.922 212.074 469.823 214.167C472.436 217.043 475.246 219.735 478.232 222.224C480.495 224.109 481.534 227.133 480.698 229.957L477.932 239.292C477.735 239.956 476.969 240.262 476.37 239.916V239.916C473.121 238.04 468.968 239.153 467.093 242.401C465.217 245.649 466.33 249.803 469.578 251.678L480.221 257.823C483.469 259.698 487.622 258.585 489.498 255.337C491.373 252.089 490.26 247.935 487.012 246.06V246.06C486.384 245.697 486.26 244.843 486.759 244.316L493.203 237.525C495.269 235.347 498.484 234.757 501.279 235.85C506.851 238.027 512.714 239.624 518.794 240.565C521.752 241.023 524.23 243.139 524.929 246.05L527.912 258.479C528.113 259.316 527.478 260.121 526.618 260.121V260.121C521.957 260.121 518.178 263.899 518.178 268.56C518.178 273.221 521.957 277 526.618 277H541.89C546.551 277 550.329 273.221 550.329 268.56C550.329 263.899 546.551 260.121 541.89 260.121V260.121C540.988 260.121 540.324 259.278 540.534 258.401L543.732 245.076C544.393 242.322 546.655 240.264 549.423 239.666C555.616 238.327 561.552 236.301 567.15 233.673V233.673C566.485 234.057 566.354 234.961 566.882 235.518L576.929 246.107C577.405 246.609 577.287 247.425 576.687 247.771V247.771C573.439 249.646 572.326 253.8 574.202 257.048C576.077 260.296 580.23 261.409 583.479 259.534L594.121 253.389C597.369 251.514 598.482 247.361 596.607 244.112C594.731 240.864 590.578 239.751 587.33 241.627V241.627C586.701 241.989 585.899 241.669 585.693 240.974L581.722 227.571C581.424 226.565 580.264 226.102 579.355 226.626V226.626C587.457 220.988 594.513 213.951 600.174 205.866V205.866C598.582 208.624 599.986 212.145 603.04 213.05L616.237 216.96C617.062 217.205 617.442 218.156 617.011 218.901V218.901C614.681 222.938 616.064 228.1 620.1 230.43C624.137 232.761 629.299 231.378 631.629 227.341L639.265 214.115C641.596 210.079 640.213 204.917 636.176 202.586C632.139 200.256 626.978 201.639 624.647 205.676V205.676C624.196 206.456 623.134 206.61 622.48 205.99L608.847 193.054C608.426 192.655 607.744 192.754 607.454 193.256V193.256C610.514 186.69 612.746 179.661 614.016 172.302C614.517 169.398 616.616 166.984 619.481 166.296L628.759 164.069C629.432 163.908 630.079 164.418 630.079 165.111V165.111C630.079 168.861 633.12 171.902 636.871 171.902C640.621 171.902 643.662 168.861 643.662 165.111V152.822C643.662 149.071 640.621 146.031 636.871 146.031C633.12 146.031 630.079 149.071 630.079 152.822V152.822C630.079 153.547 629.401 154.082 628.696 153.913L619.811 151.78C616.885 151.078 614.764 148.578 614.321 145.601C613.657 141.139 612.641 136.792 611.3 132.589C610.441 129.895 611.094 126.914 613.145 124.967L623.171 115.454C623.795 114.862 624.809 115.009 625.24 115.754V115.754C627.57 119.791 632.732 121.174 636.768 118.844C640.805 116.513 642.188 111.351 639.858 107.315L632.222 94.0888C629.891 90.0522 624.729 88.6691 620.693 90.9997C616.656 93.3302 615.273 98.4919 617.604 102.529V102.529C618.054 103.309 617.657 104.306 616.792 104.562L604.588 108.178C601.721 109.028 598.653 107.943 596.777 105.615C593.324 101.33 589.457 97.3925 585.236 93.8641C582.98 91.978 581.945 88.9585 582.78 86.1389L585.491 76.9892C585.688 76.3252 586.454 76.0198 587.053 76.366V76.366C590.302 78.2413 594.455 77.1285 596.33 73.8803C598.206 70.6322 597.093 66.4788 593.845 64.6035L583.202 58.4592C579.954 56.5839 575.801 57.6968 573.925 60.9449C572.05 64.193 573.163 68.3464 576.411 70.2217V70.2217C577.039 70.5844 577.163 71.4391 576.664 71.9654L570.398 78.5692C568.327 80.7524 565.102 81.3392 562.302 80.2358C558.185 78.6134 553.908 77.3084 549.501 76.3512C546.736 75.7505 544.477 73.6941 543.817 70.9424L540.596 57.5208C540.395 56.6839 541.029 55.8794 541.89 55.8794V55.8794C546.551 55.8794 550.329 52.1008 550.329 47.4397C550.329 42.7786 546.551 39 541.89 39Z" fill="#252525" stroke="#44639E" stroke-width="2"/>
</g>
<defs>
<clipPath id="clip0">
<rect width="657" height="328" fill="white"/>
</clipPath>
</defs>
</svg>
