<svg width="657" height="304" viewBox="0 0 657 304" fill="none" xmlns="http://www.w3.org/2000/svg">
<g clip-path="url(#clip0)">
<path d="M408.846 210.546C357.643 278.372 192.788 381.655 22.2814 258.639C-125.706 151.869 -102.799 -24.9173 -46.9354 -89.9219" stroke="#F4F4F4" stroke-width="2"/>
<path d="M414.093 112.841C444.684 192.128 445.415 386.662 250.942 466.574C82.1537 535.931 -55.9222 423.178 -81.6572 341.422" stroke="#F4F4F4" stroke-width="2"/>
<path d="M425.605 154.223C413.867 238.392 320.083 408.83 111.267 384.305C-69.9699 363.018 -135.963 197.419 -118.781 113.448" stroke="#F4F4F4" stroke-width="2"/>
<path d="M384.977 81.2025C449.478 136.537 542.276 307.513 408.864 470.015C293.072 611.054 118.058 577.164 56.6646 517.355" stroke="#F4F4F4" stroke-width="2"/>
<path d="M292.382 70.495C374.644 49.162 567.989 70.6597 625.161 272.989C674.782 448.595 546.993 572.886 462.832 589.113" stroke="#F4F4F4" stroke-width="2"/>
<path d="M256.457 95.3309C319.862 38.7444 501.641 -30.5429 645 123.255C769.425 256.74 712.609 425.708 645.181 478.621" stroke="#F4F4F4" stroke-width="2"/>
<path d="M341.211 64.4004C423.694 84.8643 583.405 195.934 537.207 401.047C497.11 579.07 325.524 627.408 243.807 601.551" stroke="#F4F4F4" stroke-width="2"/>
<path d="M231.523 134.769C259.362 56.072 382.148 -87.1552 575.35 -15.3283C743.035 47.0123 772.764 222.371 739.8 299.622" stroke="#F4F4F4" stroke-width="2"/>
<path d="M254.148 224.78C206.167 154.637 160.783 -34.5314 331.709 -156.965C480.06 -263.23 640.338 -185.197 684.159 -111.535" stroke="#F4F4F4" stroke-width="2"/>
<path d="M230.484 176.95C222.581 92.335 274.719 -95.084 483.587 -119.166C664.869 -140.067 767.126 5.95281 769.685 91.6253" stroke="#F4F4F4" stroke-width="2"/>
<path d="M289.749 248.886C214.266 209.842 84.685 64.7446 177.216 -124.051C257.525 -287.911 435.644 -295.117 509.132 -251.004" stroke="#F4F4F4" stroke-width="2"/>
<path d="M381.9 239.056C307.344 279.843 114.607 306.24 9.72951 124.014C-81.2964 -34.1449 12.2489 -185.893 89.8935 -222.192" stroke="#F4F4F4" stroke-width="2"/>
<path d="M345.132 254.628C260.196 257.482 76.2127 194.281 64.604 -15.6489C54.5285 -197.854 206.375 -291.239 292.048 -288.696" stroke="#F4F4F4" stroke-width="2"/>
<circle cx="327.318" cy="159.833" r="97.55" fill="#1D1D1B" stroke="#F4F4F4" stroke-width="2"/>
<circle cx="326.5" cy="160.5" r="38.5" fill="#1D1D1B" stroke="#44639E" stroke-width="2"/>
<circle r="7" transform="matrix(1 0 0 -1 288 111)" fill="#1D1D1B" stroke="#44639E" stroke-width="2"/>
<ellipse rx="19" ry="18.5" transform="matrix(1 0 0 -1 362 169.5)" fill="#1D1D1B" stroke="#44639E" stroke-width="2"/>
<circle r="9.5" transform="matrix(1 0 0 -1 332.5 121.5)" fill="#1D1D1B" stroke="#44639E" stroke-width="2"/>
<circle r="7" transform="matrix(1 0 0 -1 273 188)" fill="#1D1D1B" stroke="#44639E" stroke-width="2"/>
<circle r="4" transform="matrix(1 0 0 -1 350 230)" fill="#1D1D1B" stroke="#44639E" stroke-width="2"/>
<circle r="5" transform="matrix(1 0 0 -1 313 165)" fill="#1D1D1B" stroke="#44639E" stroke-width="2"/>
<ellipse rx="5.5" ry="5" transform="matrix(1 0 0 -1 379.5 133)" fill="#1D1D1B" stroke="#44639E" stroke-width="2"/>
</g>
<defs>
<clipPath id="clip0">
<rect width="657" height="304" fill="white"/>
</clipPath>
</defs>
</svg>
