<svg width="657" height="304" viewBox="0 0 657 304" fill="none" xmlns="http://www.w3.org/2000/svg">
<path d="M17.3408 11.7556C19.3211 9.76981 22.0054 8.65325 24.8048 8.64993H30.0591C32.8585 8.65325 35.5428 9.76981 37.5231 11.7556C39.5037 13.7416 40.6182 16.4348 40.6214 19.2446V231.088C40.6182 233.898 39.5037 236.591 37.5231 238.577C35.5427 240.563 32.8581 241.68 30.0585 241.683H24.8054C22.0058 241.68 19.3212 240.563 17.3408 238.577C15.3603 236.591 14.2458 233.898 14.2425 231.089V19.244C14.2458 16.4345 15.3603 13.7414 17.3408 11.7556Z" stroke="#F4F4F4" stroke-width="2"/>
<path d="M106.192 11.7556C108.173 9.76981 110.857 8.65325 113.657 8.64993H118.911C121.71 8.65325 124.394 9.76981 126.375 11.7556C128.355 13.7416 129.47 16.4348 129.473 19.2446V231.088C129.47 233.898 128.355 236.591 126.375 238.577C124.394 240.563 121.71 241.68 118.91 241.683H113.657C110.857 241.68 108.173 240.563 106.192 238.577C104.212 236.591 103.097 233.898 103.094 231.089V19.244C103.097 16.4345 104.212 13.7414 106.192 11.7556Z" stroke="#F4F4F4" stroke-width="2"/>
<path d="M189.716 11.7556C191.697 9.76981 194.381 8.65325 197.181 8.64993H202.435C205.234 8.65325 207.918 9.76981 209.899 11.7556C211.879 13.7416 212.994 16.4348 212.997 19.2446V231.088C212.994 233.898 211.879 236.591 209.899 238.577C207.918 240.563 205.234 241.68 202.434 241.683H197.181C194.381 241.68 191.697 240.563 189.716 238.577C187.736 236.591 186.621 233.898 186.618 231.089V19.244C186.621 16.4345 187.736 13.7414 189.716 11.7556Z" stroke="#F4F4F4" stroke-width="2"/>
<path d="M275.904 11.7556C277.885 9.76981 280.569 8.65325 283.368 8.64993H288.622C291.422 8.65325 294.106 9.76981 296.087 11.7556C298.067 13.7416 299.182 16.4348 299.185 19.2446V231.088C299.182 233.898 298.067 236.591 296.087 238.577C294.106 240.563 291.422 241.68 288.622 241.683H283.369C280.569 241.68 277.885 240.563 275.904 238.577C273.924 236.591 272.809 233.898 272.806 231.089V19.244C272.809 16.4345 273.924 13.7414 275.904 11.7556Z" stroke="#F4F4F4" stroke-width="2"/>
<path d="M362.092 11.7556C364.072 9.76981 366.757 8.65325 369.556 8.64993H374.81C377.61 8.65325 380.294 9.76981 382.274 11.7556C384.255 13.7416 385.369 16.4348 385.373 19.2446V231.088C385.369 233.898 384.255 236.591 382.274 238.577C380.294 240.563 377.609 241.68 374.81 241.683H369.557C366.757 241.68 364.072 240.563 362.092 238.577C360.112 236.591 358.997 233.898 358.994 231.089V19.244C358.997 16.4345 360.112 13.7414 362.092 11.7556Z" stroke="#F4F4F4" stroke-width="2"/>
<path d="M44.5187 75.1892H11.3962C8.80774 75.1863 6.32552 74.154 4.49433 72.3178C2.66318 70.4816 1.63265 67.9915 1.62964 65.3935V63.7339C1.63265 61.136 2.66318 58.6459 4.49433 56.8097C6.32539 54.9736 8.80741 53.9412 11.3957 53.9382H44.5192C47.1075 53.9412 49.5896 54.9736 51.4206 56.8097C53.2519 58.646 54.2825 61.1363 54.2853 63.7344V65.393C54.2825 67.9911 53.2519 70.4815 51.4206 72.3178C49.5894 74.154 47.1072 75.1863 44.5187 75.1892Z" fill="#1D1D1B" stroke="#4F478B" stroke-width="2"/>
<path d="M92.2949 91.5903C94.126 89.7542 96.608 88.7219 99.1963 88.7188H132.32C134.908 88.7219 137.39 89.7542 139.221 91.5903C141.052 93.4266 142.083 95.9169 142.086 98.515V100.174C142.083 102.772 141.052 105.262 139.221 107.098C137.39 108.935 134.908 109.967 132.319 109.97H99.1968C96.6083 109.967 94.1261 108.935 92.2949 107.098C90.4638 105.262 89.4332 102.772 89.4302 100.174V98.5145C89.4332 95.9166 90.4638 93.4265 92.2949 91.5903Z" fill="#1D1D1B" stroke="#4F478B" stroke-width="2"/>
<path d="M176.87 175.606C175.039 173.769 174.008 171.279 174.005 168.681V167.022C174.008 164.424 175.039 161.934 176.87 160.098C178.701 158.262 181.183 157.229 183.771 157.226H216.895C219.483 157.229 221.965 158.262 223.796 160.098C225.628 161.934 226.658 164.424 226.661 167.022V168.681C226.658 171.279 225.628 173.769 223.796 175.606C221.965 177.442 219.483 178.474 216.894 178.477H183.772C181.183 178.474 178.701 177.442 176.87 175.606Z" fill="#1D1D1B" stroke="#4F478B" stroke-width="2"/>
<path d="M303.082 54.11H269.96C267.371 54.1071 264.889 53.0748 263.058 51.2386C261.227 49.4024 260.196 46.9123 260.193 44.3143V42.6547C260.196 40.0568 261.227 37.5667 263.058 35.7305C264.889 33.8944 267.371 32.8621 269.959 32.859H303.083C305.671 32.8621 308.153 33.8944 309.984 35.7305C311.815 37.5668 312.846 40.0571 312.849 42.6552V44.3138C312.846 46.9119 311.815 49.4023 309.984 51.2386C308.153 53.0748 305.671 54.1071 303.082 54.11Z" fill="#1D1D1B" stroke="#4F478B" stroke-width="2"/>
<path d="M389.27 136.319H356.148C353.559 136.316 351.077 135.284 349.246 133.447C347.415 131.611 346.384 129.121 346.381 126.523V124.863C346.384 122.266 347.415 119.775 349.246 117.939C351.077 116.103 353.559 115.071 356.147 115.068H389.27C391.859 115.071 394.341 116.103 396.172 117.939C398.003 119.776 399.034 122.266 399.037 124.864V126.523C399.034 129.121 398.003 131.611 396.172 133.447C394.341 135.284 391.858 136.316 389.27 136.319Z" fill="#1D1D1B" stroke="#4F478B" stroke-width="2"/>
<path d="M40.6215 284.841C40.6215 291.859 34.949 297.543 27.9575 297.543C20.966 297.543 15.2936 291.859 15.2936 284.841C15.2936 277.824 20.966 272.14 27.9575 272.14C34.949 272.14 40.6215 277.824 40.6215 284.841Z" stroke="#F4F4F4" stroke-width="2"/>
<path d="M126.809 284.841C126.809 291.859 121.137 297.543 114.145 297.543C107.154 297.543 101.481 291.859 101.481 284.841C101.481 277.824 107.154 272.14 114.145 272.14C121.137 272.14 126.809 277.824 126.809 284.841Z" stroke="#F4F4F4" stroke-width="2"/>
<path d="M212.997 284.841C212.997 291.859 207.325 297.543 200.333 297.543C193.342 297.543 187.669 291.859 187.669 284.841C187.669 277.824 193.342 272.14 200.333 272.14C207.325 272.14 212.997 277.824 212.997 284.841Z" stroke="#F4F4F4" stroke-width="2"/>
<path d="M299.185 284.841C299.185 291.859 293.512 297.543 286.521 297.543C279.529 297.543 273.857 291.859 273.857 284.841C273.857 277.824 279.529 272.14 286.521 272.14C293.512 272.14 299.185 277.824 299.185 284.841Z" stroke="#F4F4F4" stroke-width="2"/>
<path d="M385.373 284.841C385.373 291.859 379.7 297.543 372.709 297.543C365.717 297.543 360.045 291.859 360.045 284.841C360.045 277.824 365.717 272.14 372.709 272.14C379.7 272.14 385.373 277.824 385.373 284.841Z" stroke="#F4F4F4" stroke-width="2"/>
<path d="M446.68 11.7556C448.66 9.76981 451.344 8.65325 454.144 8.64993H459.398C462.197 8.65325 464.882 9.76981 466.862 11.7556C468.843 13.7416 469.957 16.4348 469.96 19.2446V231.088C469.957 233.898 468.843 236.591 466.862 238.577C464.882 240.563 462.197 241.68 459.397 241.683H454.144C451.345 241.68 448.66 240.563 446.68 238.577C444.699 236.591 443.585 233.898 443.581 231.089V19.244C443.585 16.4345 444.699 13.7414 446.68 11.7556Z" stroke="#F4F4F4" stroke-width="2"/>
<path d="M535.531 11.7556C537.512 9.76981 540.196 8.65325 542.995 8.64993H548.25C551.049 8.65325 553.733 9.76981 555.714 11.7556C557.694 13.7416 558.809 16.4348 558.812 19.2446V231.088C558.809 233.898 557.694 236.591 555.714 238.577C553.733 240.563 551.049 241.68 548.249 241.683H542.996C540.196 241.68 537.512 240.563 535.531 238.577C533.551 236.591 532.436 233.898 532.433 231.089V19.244C532.436 16.4345 533.551 13.7414 535.531 11.7556Z" stroke="#F4F4F4" stroke-width="2"/>
<path d="M619.055 11.7556C621.036 9.76981 623.72 8.65325 626.519 8.64993H631.774C634.573 8.65325 637.257 9.76981 639.238 11.7556C641.218 13.7416 642.333 16.4348 642.336 19.2446V231.088C642.333 233.898 641.218 236.591 639.238 238.577C637.257 240.563 634.573 241.68 631.773 241.683H626.52C623.72 241.68 621.036 240.563 619.055 238.577C617.075 236.591 615.96 233.898 615.957 231.089V19.244C615.96 16.4345 617.075 13.7414 619.055 11.7556Z" stroke="#F4F4F4" stroke-width="2"/>
<path d="M473.858 75.1892H440.735C438.147 75.1863 435.664 74.154 433.833 72.3178C432.002 70.4816 430.972 67.9915 430.969 65.3935V63.7339C430.972 61.136 432.002 58.6459 433.833 56.8097C435.664 54.9736 438.146 53.9412 440.735 53.9382H473.858C476.446 53.9412 478.928 54.9736 480.76 56.8097C482.591 58.646 483.621 61.1363 483.624 63.7344V65.393C483.621 67.9911 482.591 70.4815 480.76 72.3178C478.928 74.154 476.446 75.1863 473.858 75.1892Z" fill="#1D1D1B" stroke="#4F478B" stroke-width="2"/>
<path d="M521.634 91.5903C523.465 89.7542 525.947 88.7219 528.535 88.7188H561.659C564.247 88.7219 566.729 89.7542 568.56 91.5903C570.391 93.4266 571.422 95.9169 571.425 98.515V100.174C571.422 102.772 570.391 105.262 568.56 107.098C566.729 108.935 564.247 109.967 561.658 109.97H528.536C525.947 109.967 523.465 108.935 521.634 107.098C519.803 105.262 518.772 102.772 518.769 100.174V98.5145C518.772 95.9166 519.803 93.4265 521.634 91.5903Z" fill="#1D1D1B" stroke="#4F478B" stroke-width="2"/>
<path d="M606.209 175.606C604.378 173.769 603.347 171.279 603.344 168.681V167.022C603.347 164.424 604.378 161.934 606.209 160.098C608.04 158.262 610.522 157.229 613.11 157.226H646.234C648.822 157.229 651.304 158.262 653.135 160.098C654.967 161.934 655.997 164.424 656 167.022V168.681C655.997 171.279 654.967 173.769 653.135 175.606C651.304 177.442 648.822 178.474 646.233 178.477H613.111C610.522 178.474 608.04 177.442 606.209 175.606Z" fill="#1D1D1B" stroke="#4F478B" stroke-width="2"/>
<path d="M469.96 284.841C469.96 291.859 464.288 297.543 457.296 297.543C450.305 297.543 444.633 291.859 444.633 284.841C444.633 277.824 450.305 272.14 457.296 272.14C464.288 272.14 469.96 277.824 469.96 284.841Z" stroke="#F4F4F4" stroke-width="2"/>
<path d="M556.148 284.841C556.148 291.859 550.476 297.543 543.484 297.543C536.493 297.543 530.82 291.859 530.82 284.841C530.82 277.824 536.493 272.14 543.484 272.14C550.476 272.14 556.148 277.824 556.148 284.841Z" stroke="#F4F4F4" stroke-width="2"/>
<path d="M642.336 284.841C642.336 291.859 636.664 297.543 629.672 297.543C622.681 297.543 617.008 291.859 617.008 284.841C617.008 277.824 622.681 272.14 629.672 272.14C636.664 272.14 642.336 277.824 642.336 284.841Z" stroke="#F4F4F4" stroke-width="2"/>
</svg>
