<?xml version="1.0" encoding="utf-8"?>
<!-- Generator: Adobe Illustrator 24.0.1, SVG Export Plug-In . SVG Version: 6.00 Build 0)  -->
<svg version="1.1" id="Capa_1" xmlns="http://www.w3.org/2000/svg" xmlns:xlink="http://www.w3.org/1999/xlink" x="0px" y="0px"
	 viewBox="0 0 657 304" style="enable-background:new 0 0 657 304;" xml:space="preserve">
<style type="text/css">
	.st0{fill:none;}
	.st1{fill:#1D1D1B;stroke:#44639E;stroke-width:2;}
	.st2{fill:none;stroke:#F4F4F4;stroke-width:2;}
</style>
<rect class="st0" width="657" height="304"/>
<circle class="st1" cx="328.5" cy="162.2" r="115.8"/>
<circle class="st1" cx="130" cy="28.4" r="21"/>
<ellipse class="st1" cx="420.6" cy="207.6" rx="57.1" ry="55.6"/>
<circle class="st1" cx="458.1" cy="46.5" r="28.6"/>
<circle class="st1" cx="160.4" cy="244.9" r="21"/>
<circle class="st1" cx="15.2" cy="290" r="12"/>
<circle class="st1" cx="639.3" cy="231.4" r="15"/>
<ellipse class="st1" cx="563.6" cy="64.5" rx="15.3" ry="15"/>
<g>
	<path class="st2" d="M315.4,185.2c0-8.2,1-14.8,3-19.6c2-4.9,5.6-9.7,10.9-14.4c5.3-4.7,8.8-8.6,10.6-11.5c1.8-3,2.6-6.1,2.6-9.4
		c0-9.9-4.6-14.9-13.7-14.9c-4.3,0-7.8,1.3-10.4,4c-2.6,2.7-4,6.4-4.1,11.1h-25.5c0.1-11.2,3.7-20,10.9-26.3
		c7.1-6.3,16.8-9.5,29.2-9.5c12.4,0,22.1,3,28.9,9c6.9,6,10.3,14.5,10.3,25.5c0,5-1.1,9.7-3.3,14.1c-2.2,4.4-6.1,9.3-11.7,14.7
		l-7.1,6.8c-4.5,4.3-7,9.3-7.7,15.1l-0.4,5.4H315.4z M312.9,212.1c0-3.9,1.3-7.1,4-9.7c2.7-2.5,6.1-3.8,10.2-3.8
		c4.2,0,7.6,1.3,10.2,3.8c2.7,2.5,4,5.8,4,9.7c0,3.9-1.3,7-3.9,9.6c-2.6,2.5-6.1,3.8-10.3,3.8c-4.3,0-7.7-1.3-10.3-3.8
		C314.2,219.2,312.9,216,312.9,212.1z"/>
</g>
</svg>
