<svg width="430" height="222" viewBox="0 0 430 222" fill="none" xmlns="http://www.w3.org/2000/svg">
<path d="M335.045 47.9546L337.458 49.9958C338.589 50.9527 339.944 51.607 341.396 51.8975L346.941 53.0065C349.508 53.5198 350.959 56.2571 349.943 58.6692V58.6692C349.569 59.5586 348.895 60.2892 348.039 60.7345L343.647 63.0184C342.183 63.7794 340.957 64.9279 340.102 66.3386L336.117 72.9137C335.412 74.0773 334.452 75.0659 333.31 75.8051L325.795 80.6674C324.761 81.3366 323.6 81.7863 322.385 81.9888L311.014 83.8841C308.724 84.2657 307.045 86.2472 307.045 88.5688V88.5688C307.045 89.6704 307.428 90.7377 308.129 91.5881L310.632 94.6276C311.193 95.3092 311.5 96.1647 311.5 97.0477V97.3999C311.5 100.096 314.359 101.832 316.751 100.588V100.588C318.311 99.7767 320.228 100.213 321.283 101.62L322.639 103.428C323.654 104.782 325.174 105.666 326.853 105.881L335.18 106.944C337.726 107.269 340.012 108.665 341.463 110.782L345.39 116.508C346.284 117.812 347.763 118.591 349.343 118.591V118.591C351.99 118.591 354.136 120.737 354.136 123.384V127.322C354.136 129.292 353.47 131.204 352.246 132.747L347.901 138.226C347.186 139.128 346.65 140.158 346.323 141.262L345.185 145.102C344.595 147.094 343.334 148.82 341.617 149.988L339.011 151.76C337.302 152.922 336.187 154.773 335.959 156.827L335.607 159.988C335.312 162.645 332.715 164.41 330.136 163.707V163.707C328.82 163.348 327.747 162.391 327.241 161.124L324.871 155.2C324.446 154.137 324.227 153.003 324.227 151.858V136.183C324.227 132.641 322.15 129.429 318.921 127.976L314.128 125.819C312.419 125.05 310.992 123.766 310.048 122.147L308.271 119.102C307.469 117.725 307.045 116.16 307.045 114.567V111.616C307.045 110.581 307.456 109.589 308.188 108.858V108.858C309.911 107.135 309.649 104.271 307.643 102.888L300.069 97.6706C298.212 96.3916 296.903 94.4623 296.401 92.2644L294.636 84.5455" stroke="#4F478B" stroke-width="2" stroke-linecap="round" stroke-linejoin="round"/>
<path d="M386.909 49.5454L380.111 52.9442C378.723 53.6385 377.192 54 375.639 54H372.732C370.479 54 368.397 55.2024 367.271 57.1541L366.343 58.763C365.204 60.737 365.793 63.2561 367.69 64.5203V64.5203C368.591 65.1211 369.685 65.3617 370.755 65.1945L377.377 64.1599C378.629 63.9641 379.908 64.0084 381.144 64.2903L393.635 67.1392C396.063 67.693 398.611 67.3207 400.779 66.0952L404.727 63.8636" stroke="#4F478B" stroke-width="2" stroke-linecap="round" stroke-linejoin="round"/>
<path d="M414.909 77.2273L402.369 80.6235C400.582 81.1074 398.696 81.0859 396.921 80.5615L387.921 77.9024C386.419 77.4585 385.042 76.6679 383.901 75.5942L383.115 74.8544C381.26 73.1085 378.809 72.1364 376.261 72.1364H373.387C370.1 72.1364 367.022 73.7525 365.155 76.459L364.004 78.1277C362.57 80.2075 361.976 82.7532 362.342 85.253L362.882 88.943C363.38 92.3448 365.59 95.2523 368.735 96.6418L375.433 99.6014C376.706 100.164 378.083 100.455 379.474 100.455H383.719C385.99 100.455 388.193 101.227 389.966 102.646L393.02 105.088C395.392 106.986 396.773 109.859 396.773 112.897V114.788C396.773 116.65 397.293 118.475 398.274 120.057L405.135 131.125C406.117 132.707 406.636 134.532 406.636 136.394V137.676C406.636 140.328 407.69 142.872 409.565 144.747L412.045 147.227" stroke="#4F478B" stroke-width="2" stroke-linecap="round" stroke-linejoin="round"/>
<circle cx="357" cy="110" r="69" stroke="#F4F4F4" stroke-width="2"/>
<path d="M106 60L310 60" stroke="#F4F4F4" stroke-width="2" stroke-linecap="round"/>
<path d="M142 91L220 91" stroke="#F4F4F4" stroke-width="2" stroke-linecap="round"/>
<path d="M232 90L291 90" stroke="#F4F4F4" stroke-width="2" stroke-linecap="round"/>
<path d="M205 119L289 119" stroke="#F4F4F4" stroke-width="2" stroke-linecap="round"/>
<path d="M65 120L192 120" stroke="#F4F4F4" stroke-width="2" stroke-linecap="round"/>
<path d="M116 162L311 162" stroke="#F4F4F4" stroke-width="2" stroke-linecap="round"/>
</svg>
